<svg width="142" height="66" viewBox="0 0 142 66" fill="none" xmlns="http://www.w3.org/2000/svg">
<path d="M42.6872 6.83812C42.6872 6.83812 48.9239 0.960938 54.1665 0.960938C59.4091 0.960938 60.5845 3.1305 60.6752 6.0222C60.7658 8.9139 51.0935 10.7239 45.5789 11.9869L19.9069 51.2171C19.9069 51.2171 10.6878 66.9449 3.90716 64.866C-2.87349 62.7871 0.834151 57.9947 2.73173 54.6528C4.62931 51.3078 7.88365 48.3255 8.69645 48.9569C9.50925 49.5884 7.9743 50.7639 10.0532 50.5825C12.1321 50.4012 35.1844 14.244 35.1844 14.244C35.1844 14.244 13.3982 20.5714 5.98607 14.8755C-1.42606 9.17962 10.5065 4.11836 11.9508 5.2938C13.3951 6.46923 9.78123 7.28204 12.4041 8.54813C15.0269 9.81423 28.3131 10.0862 42.6872 6.83187V6.83812Z" fill="#33B0B4"/>
<path d="M57.8742 35.7659C57.8742 35.7659 51.997 38.4325 49.693 40.5583C47.389 42.6841 46.9357 43.9033 48.6082 43.6313C50.2807 43.3593 54.1666 41.1898 55.8391 42.5465C57.5116 43.9033 57.5115 45.3038 56.2455 46.6137C54.9794 47.9235 44.2222 51.6312 43.1843 55.245C42.1433 58.862 49.5586 59.4028 52.8567 58.0461C56.1548 56.6893 64.1547 49.6836 65.1519 49.8211C66.1491 49.9587 71.9763 39.9237 72.1139 39.2891C72.2514 38.6545 69.9005 37.1633 70.4414 35.7628C70.9822 34.3622 77.5378 28.6882 80.2044 28.7664C82.871 28.8477 84.0902 31.0172 83.2774 33.4556C82.4646 35.894 72.7016 51.4436 72.7016 51.4436C72.7016 51.4436 69.5817 56.0985 70.9853 57.771C72.3858 59.4435 78.7601 55.964 81.8331 52.1657C84.9061 48.3706 92.1838 33.8152 92.1838 33.8152L102.897 14.4267C102.897 14.4267 108.412 4.30103 109.587 3.76021C110.763 3.21938 113.067 2.45035 114.151 1.63442C115.236 0.821616 116.818 2.49411 115.327 5.20449C113.836 7.91488 93.4062 43.7595 93.4062 43.7595C93.4062 43.7595 97.2013 42.2683 102.716 37.9292C108.23 33.5901 109.09 32.0301 109.497 30.0763C109.903 28.1224 111.71 27.2627 114.289 27.6254C116.868 27.988 116.684 33.2743 112.751 37.751C108.818 42.2277 101.09 47.6953 97.8797 48.8708C97.8797 48.8708 100.365 57.0519 104.073 57.7741C107.78 58.4962 111.757 54.476 114.605 50.2275C117.453 45.9791 120.979 39.6517 120.707 38.7014C120.435 37.751 118.991 37.0288 119.216 36.0347C119.441 35.0406 125.996 29.4573 127.847 28.7695C129.698 28.0818 132.23 29.2103 132.139 32.2833C132.049 35.3563 120.569 53.0754 120.569 53.0754C120.569 53.0754 118.265 56.6924 119.757 57.821C121.248 58.9495 126.084 56.7362 128.66 53.8883C131.236 51.0403 133.133 48.3737 133.768 49.9555C134.4 51.5374 134.672 54.5666 133.405 56.6893C132.139 58.8151 126.897 64.1014 120.976 64.7329C115.055 65.3644 112.388 60.5282 112.388 60.5282C112.388 60.5282 108.728 65.5457 101.315 64.0545C93.9032 62.5634 90.0174 50.9028 90.0174 50.9028C90.0174 50.9028 84.3684 63.6044 83.0554 63.9201C81.7456 64.2359 79.0321 63.2886 78.4443 62.0663C78.4443 62.0663 73.8801 65.5019 69.1346 64.5985C64.3891 63.695 62.8073 58.2243 62.8073 58.2243C62.8073 58.2243 53.6601 66.4492 43.0937 63.9639C32.5272 61.4786 34.7406 50.4495 43.9596 48.1455C43.9596 48.1455 38.1293 44.3034 44.2316 36.9351C50.3339 29.5667 61.9945 28.4381 64.7955 29.3885C67.5966 30.3389 67.8685 35.3532 63.667 37.5697C59.4623 39.783 56.705 38.5638 57.8804 35.7628L57.8742 35.7659Z" fill="#33B0B4"/>
<path d="M84.9025 17.2324C84.9025 17.2324 81.7826 20.2616 83.3207 23.1971C84.8588 26.1357 89.8294 22.8345 91.9989 19.0393C94.1685 15.2442 90.1451 11.7616 84.9025 17.2324Z" fill="#33B0B4"/>
<path d="M133.533 17.2324C133.533 17.2324 130.413 20.2616 131.952 23.1971C133.49 26.1357 138.46 22.8345 140.63 19.0393C142.799 15.2442 138.776 11.7616 133.533 17.2324Z" fill="#33B0B4"/>
</svg>
