<svg width="555" height="740" viewBox="0 0 555 740" fill="none" xmlns="http://www.w3.org/2000/svg">
<path d="M1.58079 425.113C2.74059 426.934 4.87072 427.376 6.85807 426.43L46.077 538.943C45.9609 539.04 45.8336 539.143 45.7211 539.252C43.4197 541.431 42.7386 545.075 44.204 547.381C45.187 548.925 46.8622 549.48 48.563 549.028L68.7467 681.408C68.3317 681.653 67.9164 681.941 67.5378 682.306C65.2364 684.485 64.5553 688.128 66.0207 690.435C67.486 692.742 70.5455 692.848 72.8469 690.669C73.4729 690.073 73.9767 689.379 74.3544 688.618L152.478 713.69C152.038 715.337 152.186 717.047 153.015 718.342C154.48 720.649 157.539 720.755 159.841 718.576C160.324 718.121 160.723 717.603 161.058 717.051L211.879 740.762C211.249 742.564 211.316 744.534 212.241 745.971C212.918 747.029 213.93 747.621 215.05 747.739L202.494 844.479C201.547 844.67 200.583 845.154 199.732 845.967C197.431 848.146 196.75 851.79 198.215 854.097C199.434 856.025 201.773 856.415 203.855 855.214L229.828 914.257C229.828 914.257 229.805 914.27 229.794 914.277C227.492 916.456 226.811 920.1 228.277 922.406C229.742 924.713 232.802 924.819 235.103 922.64C236.347 921.467 237.107 919.872 237.33 918.296L314.779 904.168C314.848 905.005 315.092 905.81 315.522 906.49C316.988 908.797 320.047 908.903 322.349 906.724C324.65 904.545 325.331 900.901 323.866 898.594C323.811 898.499 323.748 898.423 323.685 898.347L437.852 749.835L438.26 750.047L438.382 749.14L440.242 746.726L438.582 747.706L452.92 640.131C453.871 639.953 454.842 639.45 455.708 638.642C457.477 636.975 458.292 634.428 457.898 632.296L527.473 590.253C527.55 590.419 527.642 590.592 527.742 590.745C529.207 593.052 532.267 593.158 534.568 590.979C536.663 588.992 537.416 585.802 536.427 583.497L735.93 537.346C736.025 538.097 736.255 538.811 736.653 539.426C738.118 541.732 741.177 541.838 743.479 539.659C745.78 537.48 746.461 533.836 744.996 531.53C744.436 530.642 743.647 530.089 742.756 529.85L787.06 338.453C788.192 338.394 789.372 337.881 790.41 336.901C791.366 335.997 792.037 334.851 792.399 333.646L860.57 336.333C860.468 337.568 860.698 338.763 861.321 339.726C862.786 342.033 865.846 342.139 868.147 339.96C869.762 338.441 870.567 336.21 870.422 334.201L932.59 305.022C932.7 305.382 932.868 305.721 933.071 306.041C934.536 308.347 937.596 308.453 939.897 306.274C942.199 304.095 942.88 300.451 941.414 298.145C941.308 297.967 941.182 297.815 941.057 297.662L1019.21 184.897C1020.81 185.851 1022.99 185.511 1024.74 183.857C1027.04 181.678 1027.72 178.034 1026.26 175.728C1025.3 174.226 1023.67 173.656 1022.02 174.051L1012.67 101.857C1013.22 101.594 1013.74 101.24 1014.24 100.778C1016.37 98.7717 1017.1 95.5212 1016.06 93.2191L1077.14 43.559C1077.2 43.6539 1077.24 43.7433 1077.29 43.8382C1078.76 46.1447 1081.82 46.2507 1084.12 44.0717C1086.42 41.8926 1087.1 38.2488 1085.64 35.9422C1084.17 33.6356 1081.11 33.5296 1078.81 35.7087C1078.68 35.8308 1078.55 35.9768 1078.42 36.1109L1054.82 8.9523C1056.3 6.78726 1056.59 3.91083 1055.36 1.97705C1053.9 -0.329497 1050.84 -0.435447 1048.53 1.74359C1047.05 3.14093 1046.25 5.12762 1046.25 6.98557L963.138 37.2095C963.015 36.6732 962.814 36.1832 962.519 35.7341C961.054 33.4276 957.994 33.3216 955.693 35.5006C953.999 37.109 953.177 39.5048 953.46 41.5745L940.253 50.2594L866.955 98.4348C865.467 96.2268 862.47 96.1545 860.199 98.3016C857.898 100.481 857.216 104.125 858.682 106.431C859.109 107.099 859.664 107.579 860.31 107.877L827.34 196.842C826.023 196.685 824.552 197.199 823.297 198.378C823.297 198.378 823.297 198.378 823.286 198.385L794.007 164.964L709.718 263.625C708.108 262.282 705.646 262.489 703.701 264.316C702.681 265.271 701.987 266.516 701.65 267.805L640.084 268.328C640.133 267.181 639.902 266.071 639.324 265.166C637.859 262.86 634.799 262.754 632.498 264.933C631.43 265.946 630.709 267.277 630.398 268.65L529.201 274.294C529.208 273.228 528.966 272.21 528.432 271.364C526.967 269.057 523.907 268.951 521.606 271.131C519.305 273.31 518.623 276.953 520.089 279.26C520.667 280.165 521.486 280.729 522.411 280.948L505.356 359.517C504.257 359.599 503.092 360.117 502.084 361.066C500.071 362.975 499.294 365.996 500.115 368.272L357.593 487.15L357.898 487.721C356.981 486.266 355.433 485.693 353.833 485.999L347.092 415.157C347.611 414.907 348.113 414.555 348.596 414.099C350.897 411.92 351.579 408.276 350.113 405.97C348.648 403.663 345.588 403.557 343.287 405.736C341.93 407.018 341.139 408.816 341.012 410.533L203.505 447.979C203.383 447.357 203.168 446.776 202.836 446.25C201.75 444.541 199.799 444.036 197.921 444.776L183.136 383.691C183.319 383.554 183.499 383.406 183.683 383.227C185.984 381.048 186.665 377.404 185.2 375.097C183.734 372.791 180.675 372.685 178.373 374.864C177.14 376.03 176.377 377.613 176.154 379.189L10.6848 419.161C10.582 418.428 10.3562 417.726 9.97335 417.117C8.50799 414.81 5.44846 414.704 3.14707 416.883C0.845676 419.062 0.164546 422.706 1.6299 425.013L1.58079 425.113ZM8.0512 425.655C8.1673 425.558 8.29462 425.455 8.40708 425.346C9.22797 424.565 9.83787 423.61 10.2174 422.593L130.46 440.679L51.598 538.446C50.4094 537.533 48.7943 537.439 47.2589 538.175L8.03998 425.662L8.0512 425.655ZM193.791 450.214C193.663 450.926 193.654 451.639 193.754 452.317L52.7863 539.925C52.7129 539.77 52.632 539.634 52.5474 539.485C52.518 539.432 52.481 539.397 52.4553 539.356L131.877 440.905L193.795 450.226L193.791 450.214ZM344.515 415.729L325.856 556.049C324.906 556.228 323.934 556.73 323.069 557.538C322.915 557.686 322.765 557.845 322.626 557.998L283.059 523.3L343.523 415.465C343.839 415.59 344.169 415.678 344.512 415.717L344.515 415.729ZM1035.37 40.6125L1013.34 91.0326C1011.92 90.7095 1010.26 91.1892 1008.87 92.4909L1008.85 92.5041L962.366 42.0819C962.645 41.5632 962.854 41.0296 963.006 40.4864L1035.37 40.6005L1035.37 40.6125ZM884.454 306.327L959.044 185.854C959.311 185.994 959.601 186.078 959.887 186.149L937.726 296.442C936.649 296.554 935.532 297.057 934.547 297.992C933.426 299.05 932.69 300.461 932.397 301.894L884.443 306.334L884.454 306.327ZM317.028 898.41C316.526 898.89 316.105 899.422 315.766 900.004L269.424 879.299L327.627 816.161L319.618 896.967C318.731 897.179 317.841 897.647 317.039 898.403L317.028 898.41ZM200.065 455.389L251.45 569.571C251.049 569.949 250.699 570.368 250.413 570.82L165.919 523.797L196.573 455.863C197.654 456.202 198.899 456.034 200.061 455.377L200.065 455.389ZM507.355 369.522C507.58 369.304 507.779 369.088 507.971 368.847L514.983 374.322L508.196 452.397L505.515 370.735C506.15 370.474 506.77 370.079 507.344 369.528L507.355 369.522ZM525.089 280.755L562.31 407.23C562.116 407.373 561.925 407.529 561.741 407.708C561.516 407.925 561.317 408.142 561.126 408.382L516.315 373.437L524.358 281.002C524.604 280.942 524.846 280.87 525.089 280.755ZM636.134 274.495L662.853 355.947C662.703 356.064 662.557 356.193 662.425 356.327C662.066 356.667 661.754 357.034 661.479 357.437L608.061 325.15L633.031 274.769C633.993 275.065 635.077 274.977 636.134 274.495ZM798.684 293.243L788.787 327.043C787.558 327.003 786.222 327.523 785.082 328.606C784.865 328.805 784.677 329.014 784.497 329.248L710.589 270.515C710.638 270.416 710.683 270.304 710.729 270.192L798.684 293.243ZM826.967 207.921L848.685 271.512L859.988 304.596C859.861 304.7 859.733 304.803 859.61 304.919C858.92 305.566 858.378 306.353 857.996 307.187L800.286 292.071L824.789 208.37C825.5 208.404 826.246 208.247 826.978 207.914L826.967 207.921ZM867.713 102.291L959.234 98.8739L960.9 175.09C960.25 175.345 959.596 175.76 959.011 176.317C958.805 176.51 958.617 176.72 958.433 176.941L867.292 103.998C867.504 103.434 867.65 102.867 867.713 102.291ZM960.975 43.9501C961.17 43.7643 961.339 43.5797 961.515 43.3765L1007.9 93.6878C1007.49 94.2858 1007.17 94.9523 1006.95 95.6205L960.48 97.3596L959.333 45.075C959.901 44.8107 960.465 44.4491 960.979 43.9621L960.975 43.9501ZM962.168 174.78L960.503 98.8325L1006.62 97.116C1006.5 98.395 1006.73 99.6448 1007.36 100.644C1007.46 100.786 1007.56 100.94 1007.66 101.063L964.135 175.078C963.526 174.814 962.857 174.699 962.164 174.768L962.168 174.78ZM957.483 184.453C957.534 184.536 957.597 184.612 957.648 184.695L925.574 226.201L865.386 304.087C864.675 303.572 863.813 303.344 862.919 303.405L863.409 197.206L956.718 182.059C956.786 182.939 957.026 183.774 957.475 184.472L957.483 184.453ZM857.506 308.666C857.409 309.091 857.347 309.538 857.329 309.959L792.57 330.544C792.452 329.934 792.24 329.366 791.916 328.863C791.43 328.088 790.756 327.565 789.987 327.297L799.854 293.571L857.498 308.684L857.506 308.666ZM533.628 581.199L555.487 468.38L591.454 471.636C591.277 472.972 591.495 474.302 592.169 475.348C592.375 475.679 592.615 475.948 592.885 476.185L534.268 581.388C534.06 581.312 533.84 581.243 533.628 581.199ZM513.855 489.59L509.672 467.877C509.971 467.687 510.267 467.441 510.556 467.172C511.358 466.416 511.96 465.48 512.343 464.475L554.248 468.262L532.382 581.141C532.087 581.174 531.8 581.23 531.509 581.316L513.851 489.578L513.855 489.59ZM206.562 846.256C205.984 845.351 205.169 844.798 204.251 844.561L225.396 748.289L327.507 808.955C327.17 809.762 326.974 810.6 326.935 811.43L207.234 847.996C207.112 847.375 206.904 846.775 206.573 846.249L206.562 846.256ZM161.369 710.482C161.008 709.902 160.531 709.462 160.004 709.164L190.131 635.822C190.874 635.963 191.683 635.883 192.481 635.595L204.366 689.982L161.809 711.369C161.689 711.058 161.546 710.76 161.373 710.494L161.369 710.482ZM136.053 510.784C136.454 510.406 136.803 509.987 137.101 509.529L164.242 524.632L145.303 566.598C144.619 566.435 143.87 566.452 143.128 566.664L134.844 511.681C135.259 511.436 135.674 511.149 136.064 510.777L136.053 510.784ZM326.686 567.083L342.379 629.374C342.316 629.426 342.263 629.471 342.2 629.522C341.892 629.817 341.607 630.141 341.355 630.488L296.588 600.925L322.619 566.836C323.76 567.635 325.256 567.729 326.686 567.083ZM708.964 272.791C709.272 272.496 709.546 272.179 709.79 271.85L783.631 330.538C783.186 331.381 782.908 332.295 782.812 333.201L702.472 351.357L706.889 274.1C707.605 273.847 708.308 273.418 708.957 272.809L708.964 272.791ZM695.652 448.747C695.409 448.82 695.174 448.916 694.942 449.024L678.579 399.361L667.285 365.082C667.435 364.966 667.57 364.844 667.716 364.715C669.009 363.485 669.795 361.803 669.967 360.145L701.111 353.108L695.64 448.754L695.652 448.747ZM555.766 466.899L565.397 417.202C565.964 416.938 566.529 416.576 567.043 416.089C567.342 415.813 567.605 415.503 567.842 415.193L593.543 467.359C592.752 468.152 592.161 469.124 591.8 470.158L555.766 466.899ZM594.67 466.454L568.694 413.728C568.947 413.168 569.115 412.587 569.212 411.992L621.364 429.751L598.847 466.014C597.6 465.433 596.058 465.578 594.659 466.46L594.67 466.454ZM569.313 410.403C569.286 410.051 569.232 409.701 569.145 409.37L660.449 363.595C660.57 363.906 660.713 364.204 660.889 364.481C661.062 364.747 661.254 364.988 661.461 365.192L622.215 428.413L569.328 410.409L569.313 410.403ZM662.439 365.889C663.512 366.417 664.83 366.404 666.081 365.821L677.59 400.766L693.727 449.77C693.577 449.886 693.442 450.008 693.296 450.137C692.689 450.708 692.204 451.376 691.83 452.106L623.378 428.803L662.439 365.889ZM560.452 416.198C561.341 417.344 562.674 417.817 564.065 417.606L554.53 466.793L512.737 463.025C512.897 462.025 512.848 461.034 512.56 460.128L560.452 416.198ZM215.896 736.565L205.88 690.703L236.895 675.121C237.016 675.432 237.159 675.73 237.332 675.996C237.755 676.652 238.31 677.131 238.93 677.431L217.823 736.335C217.205 736.26 216.553 736.334 215.893 736.553L215.896 736.565ZM194.452 634.333C194.689 634.109 194.906 633.867 195.105 633.608L237.485 669.648C236.768 670.949 236.449 672.425 236.584 673.789L205.569 689.372L193.674 634.949C193.936 634.766 194.194 634.571 194.426 634.335L194.452 634.333ZM195.934 632.327C196.711 630.792 196.944 629.027 196.541 627.523L228.928 660.384L195.937 632.339L195.934 632.327ZM345.526 639.154L364.423 711.716C364.183 711.885 363.936 712.074 363.711 712.291C363.126 712.849 362.638 713.505 362.268 714.205L340.176 706.344L345.068 639.297C345.224 639.247 345.37 639.204 345.526 639.154ZM340.671 637.659C341.407 638.824 342.554 639.422 343.797 639.467L338.95 705.92L246.166 672.907C246.353 672.259 246.447 671.608 246.448 670.957L340.075 636.213C340.205 636.73 340.403 637.208 340.682 637.652L340.671 637.659ZM245.594 674.335L338.835 707.503L331.716 805.042C331.063 805.2 330.417 805.511 329.803 805.972L244.71 675.649C245.048 675.237 245.352 674.803 245.594 674.335ZM333.355 804.952C333.232 804.94 333.109 804.927 332.986 804.915L340.064 707.939L361.696 715.632C361.214 717.318 361.34 719.084 362.183 720.427C362.591 721.078 363.143 721.545 363.751 721.852L355.254 745.086L333.355 804.952ZM365.641 711.068L346.778 638.486C347.018 638.317 347.265 638.128 347.49 637.911C348.569 636.891 349.286 635.548 349.601 634.187L377.123 634.484L366.518 710.819C366.23 710.875 365.936 710.95 365.641 711.068ZM349.787 632.705C349.798 631.65 349.552 630.62 349.022 629.787C348.724 629.325 348.358 628.947 347.954 628.661L389.253 542.752C389.453 542.804 389.65 542.843 389.859 542.876L377.335 633L349.787 632.705ZM387.09 541.112C387.388 541.573 387.74 541.946 388.143 542.232L346.614 628.079C346.358 628.017 346.086 627.994 345.807 627.989L350.309 552.89L386.475 539.649C386.605 540.166 386.799 540.675 387.09 541.112ZM340.571 631.828C340.125 632.799 339.898 633.839 339.906 634.826L246.279 669.57C246.149 669.052 245.951 668.574 245.671 668.13C245.616 668.036 245.55 667.947 245.483 667.859L295.648 602.145L340.567 631.816L340.571 631.828ZM244.603 667.005C244.081 666.634 243.487 666.418 242.858 666.35L253.989 579.441C254.925 579.257 255.886 578.761 256.74 577.959C257.047 577.665 257.333 577.341 257.585 576.994L294.637 601.468L244.611 666.987L244.603 667.005ZM249.415 572.98L148.334 571.761C148.443 570.507 148.217 569.281 147.591 568.306C147.264 567.791 146.85 567.384 146.39 567.089L165.272 525.241L249.685 572.212C249.579 572.473 249.495 572.72 249.419 572.992L249.415 572.98ZM148.029 573.243L249.163 574.46C249.083 575.639 249.325 576.785 249.914 577.726C250.591 578.784 251.607 579.388 252.727 579.506L241.596 666.416C240.66 666.6 239.7 667.095 238.845 667.897C238.774 667.967 238.703 668.038 238.643 668.101L147.092 575.212C147.502 574.602 147.816 573.935 148.029 573.243ZM193.551 624.502C192.22 624.212 190.694 624.631 189.376 625.777L156.547 586.961L193.551 624.502ZM162.086 712.721L204.632 691.34L214.641 737.179C214.331 737.376 214.035 737.621 213.746 737.891C213.263 738.346 212.865 738.864 212.529 739.416L161.708 715.705C162.057 714.72 162.184 713.697 162.086 712.721ZM220.587 738.13C220.164 737.473 219.609 736.994 218.989 736.694L238.873 681.216L224.63 746.065L220.778 743.779C221.585 741.859 221.578 739.697 220.587 738.13ZM240.871 677.815C241.802 677.747 242.761 677.379 243.649 676.686L328.551 806.725L328.502 807.263C328.404 807.378 328.322 807.497 328.243 807.629L225.742 746.725L240.882 677.808L240.871 677.815ZM370.154 712.043C369.522 711.312 368.691 710.882 367.773 710.773L378.367 634.486L448.089 635.224C448.034 636.177 448.18 637.096 448.543 637.901L370.15 712.031L370.154 712.043ZM448.345 633.756L378.582 633.014L391.106 542.848C391.87 542.708 392.64 542.368 393.358 541.816L449.851 630.914C449.137 631.746 448.62 632.744 448.334 633.763L448.345 633.756ZM600.504 467.471C600.32 467.169 600.099 466.917 599.87 466.684L622.556 430.151L691.288 453.545C691.204 453.835 691.149 454.136 691.106 454.43L601.263 469.756C601.183 468.925 600.946 468.144 600.519 467.476L600.504 467.471ZM696.911 448.584L702.39 352.835L782.832 334.662C782.919 335.432 783.163 336.151 783.554 336.784C783.624 336.885 783.694 336.985 783.76 337.073L699.032 449.258C698.41 448.819 697.685 448.609 696.915 448.596L696.911 448.584ZM705.621 274.367L701.2 351.654L669.955 358.708C669.867 357.938 669.623 357.219 669.237 356.598C668.909 356.083 668.498 355.688 668.05 355.386L704.59 274.281C704.928 274.351 705.278 274.371 705.632 274.36L705.621 274.367ZM660.706 358.813C660.226 359.932 660.035 361.135 660.149 362.257L599.412 392.714L568.64 408.139C568.64 408.139 568.582 408.032 568.552 407.978C568.272 407.535 567.925 407.173 567.547 406.887L607.354 326.572L660.706 358.813ZM560.267 409.696C559.365 411.431 559.165 413.475 559.816 415.101L511.988 458.979C511.266 457.905 510.197 457.346 509.018 457.292L516.149 375.291L560.271 409.708L560.267 409.696ZM503.165 465.729L424.26 515.556L395.662 533.619C395.596 533.488 395.526 533.346 395.437 533.228C393.99 530.939 390.965 530.813 388.675 532.943L356.958 495.312C357.765 494.311 358.303 493.117 358.508 491.919L503.006 465.072C503.037 465.308 503.092 465.531 503.157 465.747L503.165 465.729ZM355.901 496.36L387.68 534.067C386.804 535.321 386.32 536.824 386.325 538.236L350.409 551.387L353.64 497.453C354.412 497.295 355.185 496.924 355.912 496.353L355.901 496.36ZM344.54 628.17C344.2 628.271 343.868 628.396 343.539 628.576L327.875 566.382C328.036 566.258 328.205 566.117 328.359 565.969C330.004 564.418 330.817 562.126 330.612 560.095L349.01 553.359L344.525 628.165L344.54 628.17ZM321.543 565.729C321.599 565.824 321.665 565.912 321.731 566L295.561 600.285L258.361 575.715C258.656 575.074 258.85 574.407 258.959 573.719L320.797 563.352C320.862 564.22 321.109 565.037 321.547 565.741L321.543 565.729ZM164.843 523.257L137.784 508.205C138.417 506.628 138.503 504.907 137.955 503.489L194.562 454.417C194.823 454.8 195.13 455.115 195.471 455.367L164.84 523.245L164.843 523.257ZM137.326 502.373C135.796 500.374 132.914 500.376 130.725 502.446C129.162 503.92 128.346 506.072 128.437 508.029L56.406 539.261L191.91 455.047L137.312 502.368L137.326 502.373ZM53.3107 542.093L128.684 509.413C128.811 509.833 128.983 510.227 129.212 510.588C129.642 511.268 130.209 511.741 130.843 512.046L113.181 562.333L53.0952 544.131C53.2713 543.447 53.3431 542.767 53.3107 542.093ZM132.01 512.363C132.516 512.418 133.033 512.381 133.559 512.241L141.858 567.272C141.477 567.497 141.11 567.77 140.772 568.096C140.124 568.705 139.616 569.43 139.231 570.209L114.355 562.674L132.025 512.368L132.01 512.363ZM138.688 571.648C138.278 573.263 138.43 574.943 139.24 576.22C139.391 576.457 139.565 576.68 139.753 576.866L72.8842 681.232C72.8842 681.232 72.7766 681.182 72.7284 681.154L113.828 564.118L138.688 571.648ZM74.3599 682.612C74.2089 682.376 74.0355 682.153 73.847 681.966L140.716 577.601C141.487 578.009 142.395 578.125 143.305 577.942L150.151 648.737L74.844 683.643C74.7312 683.271 74.5587 682.92 74.3562 682.6L74.3599 682.612ZM144.562 577.511C145 577.296 145.426 577.002 145.846 576.641L188.336 626.885C187.262 628.312 186.731 630.098 186.854 631.724L151.402 648.154L144.559 577.499L144.562 577.511ZM187.123 633.094C187.236 633.466 187.409 633.818 187.611 634.137C187.972 634.717 188.445 635.145 188.975 635.456L158.849 708.798C158.344 708.7 157.815 708.7 157.278 708.805L151.545 649.585L187.123 633.094ZM219.055 746.296C219.426 745.95 219.745 745.563 220.02 745.161L224.261 747.684L204.793 836.313L216.282 747.791C217.229 747.6 218.193 747.116 219.044 746.303L219.055 746.296ZM207.298 849.473L326.999 812.907C327.099 813.457 327.282 813.972 327.543 814.441L268.195 878.82L206.901 851.435C207.125 850.779 207.245 850.128 207.284 849.468L207.298 849.473ZM334.495 805.356L364.899 722.236C366.234 722.411 367.734 721.908 368.997 720.71C370.95 718.864 371.73 715.983 371.035 713.732L390.539 724.309L334.702 805.474C334.636 805.428 334.561 805.401 334.495 805.356ZM371.685 712.343L449.205 639.039L391.412 723.043L371.685 712.343ZM450.915 629.932L394.423 540.834C394.783 540.409 395.092 539.944 395.356 539.463L474.037 567.292L454.225 628.857C453.146 628.786 451.985 629.145 450.919 629.944L450.915 629.932ZM395.924 538.023C396.23 536.979 396.286 535.898 396.081 534.915L455.143 497.617L472.488 486.661L503.685 466.965C503.685 466.965 503.692 466.989 503.695 467.001C504.222 467.823 504.955 468.367 505.776 468.633L474.494 565.833L395.917 538.041L395.924 538.023ZM507 468.789C507.462 468.785 507.939 468.702 508.405 468.54L512.398 489.274L530.235 581.955C529.888 582.16 529.547 582.432 529.217 582.74C528.621 583.304 528.144 583.954 527.777 584.665L475.645 566.229L507.004 468.801L507 468.789ZM535.268 582.072L593.866 476.895C595.403 477.559 597.368 477.15 598.972 475.637C599.474 475.157 599.892 474.614 600.231 474.031L645.49 494.13L535.663 582.461C535.542 582.321 535.409 582.187 535.268 582.072ZM600.877 472.63C601.03 472.173 601.141 471.71 601.2 471.251L691.021 455.939C691.059 456.412 691.145 456.871 691.287 457.297L646.83 493.056L600.866 472.637L600.877 472.63ZM691.875 458.451C693.209 460.368 695.679 460.623 697.796 459.19L737.828 531.739C737.46 532.14 737.141 532.569 736.869 533.026L648.151 493.621L691.886 458.444L691.875 458.451ZM738.94 530.785L698.909 458.236C700.965 456.032 701.518 452.619 700.122 450.413C700.052 450.313 699.982 450.213 699.916 450.124L784.644 337.939C784.996 338.184 785.381 338.367 785.798 338.476L741.493 529.873C740.648 529.919 739.775 530.222 738.94 530.785ZM792.66 332.02L857.423 311.447C857.541 312.057 857.753 312.625 858.077 313.128C859.019 314.625 860.631 315.188 862.264 314.819L864.165 330.743C863.687 330.997 863.231 331.323 862.788 331.739C861.833 332.643 861.162 333.789 860.799 334.994L792.629 332.308C792.64 332.216 792.648 332.112 792.645 332.014L792.66 332.02ZM865.427 330.281L863.526 314.358C864.005 314.104 864.461 313.778 864.903 313.361C866.024 312.304 866.76 310.893 867.053 309.46L881.985 308.082L868.072 330.547C867.282 330.164 866.367 330.067 865.45 330.268L865.427 330.281ZM867.179 307.998C867.167 307 866.917 306.043 866.409 305.239C866.358 305.156 866.295 305.079 866.243 304.997L954.944 190.213L882.919 306.54L867.168 308.005L867.179 307.998ZM961.107 186.293C962.184 186.182 963.3 185.678 964.286 184.743C965.302 183.775 966.007 182.524 966.344 181.235L980.083 181.071L939.413 294.243L961.107 186.293ZM966.574 179.769C966.627 178.633 966.381 177.518 965.818 176.619C965.619 176.311 965.39 176.036 965.139 175.816L1008.46 102.134L980.629 179.602L966.574 179.769ZM953.763 43.0526C953.865 43.3036 953.979 43.5479 954.13 43.7845C955.017 45.1863 956.502 45.7683 958.03 45.532L959.169 97.4821L867.701 100.897C867.663 100.509 867.587 100.129 867.467 99.7751L887.744 86.4518L953.755 43.0712L953.763 43.0526ZM865.451 106.826C865.882 106.416 866.258 105.953 866.574 105.469L957.556 178.28C957.16 179.023 956.901 179.827 956.776 180.637L863.408 195.805L863.82 107.944C864.388 107.68 864.938 107.313 865.462 106.819L865.451 106.826ZM861.629 303.727C861.472 303.777 861.322 303.851 861.169 303.913L849.739 270.451L828.152 207.25C828.29 207.14 828.425 207.018 828.549 206.902C829.793 205.729 830.553 204.134 830.776 202.559L862.127 197.467L861.632 303.739L861.629 303.727ZM821.723 206.669C822.201 207.42 822.845 207.932 823.577 208.208L799.096 291.853L711.141 268.802C711.276 268.071 711.289 267.328 711.182 266.626L821.337 205.877C821.447 206.152 821.568 206.42 821.734 206.662L821.723 206.669ZM702.13 272.618C702.483 273.174 702.935 273.616 703.446 273.909L666.929 354.958C666.014 354.733 665.016 354.841 664.041 355.288L637.323 273.836C637.473 273.72 637.619 273.591 637.754 273.469C638.773 272.514 639.467 271.269 639.804 269.98L701.371 269.456C701.322 270.604 701.552 271.714 702.13 272.618ZM630.924 273.224C631.203 273.667 631.551 274.028 631.929 274.315L607 324.615L528.547 277.2C528.725 276.783 528.862 276.363 528.958 275.938L630.155 270.293C630.148 271.36 630.39 272.378 630.924 273.224ZM606.32 325.993L566.464 406.408C565.546 406.128 564.507 406.189 563.499 406.614L526.278 280.139C526.472 279.995 526.663 279.84 526.847 279.661C527.207 279.321 527.518 278.953 527.793 278.551L606.308 326L606.32 325.993ZM515.122 372.598L508.787 367.658C509.848 365.616 509.932 363.188 508.857 361.472C508.279 360.567 507.46 360.003 506.535 359.784L522.735 285.117L515.122 372.598ZM504.224 371.143L507.06 457.682C506.425 457.943 505.805 458.338 505.231 458.889C503.886 460.164 503.099 461.931 502.96 463.655L358.612 490.471C358.583 489.766 358.432 489.091 358.153 488.476L500.676 369.598C501.535 370.776 502.845 371.305 504.239 371.148L504.224 371.143ZM352.359 497.586L349.102 551.917L330.323 558.793C330.203 558.482 330.056 558.172 329.879 557.894C329.474 557.256 328.952 556.799 328.359 556.498L351.846 497.507C352.017 497.548 352.184 497.576 352.359 497.586ZM321.73 559.362C321.274 560.169 320.974 561.054 320.841 561.925L259.003 572.292C258.938 571.424 258.691 570.607 258.253 569.903C258.028 569.554 257.766 569.256 257.481 569.014L282.289 524.773L321.73 559.362ZM256.458 568.385C255.285 567.917 253.884 568.05 252.583 568.817L201.202 454.647C201.202 454.647 201.247 454.62 201.277 454.589C201.43 454.441 201.58 454.282 201.719 454.129L281.371 523.97L256.473 568.391L256.458 568.385ZM49.8168 548.628C50.2318 548.383 50.6471 548.096 51.0257 547.731C51.6741 547.122 52.1818 546.397 52.5671 545.618L112.679 563.819L71.5613 680.88C71.0554 680.825 70.5376 680.861 70.0117 681.002L49.828 548.621L49.8168 548.628ZM74.8961 687.308C75.0913 686.555 75.1674 685.803 75.1168 685.068L150.297 650.222L156.012 709.297C155.497 709.558 154.992 709.899 154.52 710.347C153.894 710.943 153.39 711.637 153.012 712.398L74.8885 687.326L74.8961 687.308ZM204.988 854.503C204.988 854.503 205.01 854.49 205.022 854.484C205.524 854.003 205.945 853.472 206.284 852.889L267.118 880.065L235.943 913.89C234.649 912.672 232.71 912.556 230.964 913.558L204.992 854.515L204.988 854.503ZM237.343 916.986C237.274 916.234 237.067 915.506 236.703 914.872L268.294 880.588L315.096 901.504C314.94 901.949 314.84 902.405 314.778 902.852L237.329 916.98L237.343 916.986ZM322.793 897.627C322.223 897.228 321.558 896.997 320.869 896.95L328.899 815.906C330.5 816.915 332.721 816.61 334.509 814.918C336.255 813.264 337.062 810.778 336.724 808.656L435.306 751.252L322.789 897.615L322.793 897.627ZM336.334 807.371C336.247 807.168 336.147 806.971 336.029 806.8C335.908 806.617 335.779 806.452 335.653 806.3L391.629 724.939L436.315 749.17L336.338 807.382L336.334 807.371ZM392.498 723.662L450.152 639.853C450.604 640.125 451.102 640.284 451.623 640.345L437.281 747.949L392.498 723.662ZM457.462 631.165C457.385 630.999 457.294 630.826 457.194 630.673C456.738 629.951 456.12 629.438 455.411 629.148L475.184 567.719L527.216 586.129C526.926 587.135 526.855 588.168 527.038 589.122L457.462 631.165ZM538.752 581.658L646.8 494.744L736.234 534.463C736.062 534.989 735.932 535.519 735.884 536.057L538.752 581.658ZM870.106 333.028C869.997 332.668 869.828 332.328 869.626 332.009C869.453 331.743 869.261 331.502 869.05 331.287L883.486 307.975L932.252 303.466C932.251 303.594 932.261 303.716 932.26 303.844L870.091 333.022L870.106 333.028ZM940.078 297.05C939.982 296.994 939.874 296.944 939.778 296.888L981.397 181.088L1017.12 180.652C1017.07 181.788 1017.31 182.903 1017.87 183.802C1017.98 183.98 1018.11 184.132 1018.23 184.285L940.078 297.05ZM1020.71 174.709C1020.26 174.95 1019.81 175.269 1019.39 175.673C1018.38 176.64 1017.67 177.891 1017.33 179.18L981.929 179.614L1009.67 102.424C1010.22 102.557 1010.79 102.573 1011.37 102.472L1020.72 174.721L1020.71 174.709ZM1015.71 92.8337C1015.37 92.2952 1014.94 91.8829 1014.46 91.589L1036.69 40.7153L1076.5 40.7693C1076.46 41.3556 1076.51 41.9383 1076.63 42.4866L1015.42 92.2501L1015.72 92.8392L1015.71 92.8337ZM1076.74 39.2962L1037.32 39.2358L1049.33 11.7499C1050.75 12.073 1052.4 11.5934 1053.79 10.2916L1077.48 37.5438C1077.16 38.101 1076.9 38.6917 1076.73 39.3028L1076.74 39.2962ZM1046.36 8.5761C1046.48 9.11241 1046.68 9.60247 1046.97 10.0581C1047.3 10.5966 1047.73 11.0089 1048.22 11.3028L1036 39.2489L963.232 39.1358C963.237 39.0199 963.245 38.916 963.238 38.8067L1046.35 8.58274L1046.36 8.5761ZM861.415 108.386C861.784 108.423 862.152 108.418 862.532 108.364L862.129 196.036L830.816 201.119C830.748 200.282 830.504 199.477 830.073 198.797C829.646 198.129 829.091 197.649 828.446 197.351L861.415 108.386ZM793.783 167.234L822.249 199.719C821.252 201.185 820.796 202.954 820.993 204.565L710.782 265.347C710.694 265.144 710.591 264.936 710.469 264.753L793.783 167.234ZM352.515 486.622C351.996 486.871 351.494 487.224 351.011 487.679C348.709 489.858 348.028 493.502 349.494 495.808C349.828 496.347 350.254 496.747 350.728 497.048L327.204 556.132C327.204 556.132 327.122 556.124 327.096 556.125L345.754 415.804C345.754 415.804 345.754 415.804 345.766 415.798L352.507 486.64L352.515 486.622ZM341.019 412.171C341.133 412.854 341.355 413.502 341.712 414.07C341.937 414.418 342.199 414.717 342.484 414.959L282.126 522.619L202.599 452.888C203.176 451.868 203.516 450.719 203.564 449.614L341.022 412.183L341.019 412.171ZM196.653 445.651C196.425 445.814 196.189 445.996 195.964 446.214C195.173 446.963 194.578 447.881 194.188 448.861L132.951 439.648L177.682 384.191C178.829 385.099 180.381 385.246 181.867 384.609L196.653 445.651ZM176.052 380.863C176.125 381.712 176.368 382.517 176.803 383.209C176.814 383.245 176.843 383.256 176.854 383.292L131.556 439.452L10.6066 421.259C10.63 421.118 10.6533 420.977 10.6618 420.83L176.056 380.875L176.052 380.863Z" fill="white" fill-opacity="0.18"/>
</svg>
