<svg width="878" height="762" viewBox="0 0 878 762" fill="none" xmlns="http://www.w3.org/2000/svg">
<path d="M831.827 5.95258C831.904 8.55984 830.791 10.8262 829.165 11.7604L853.75 144.161C853.863 144.142 853.986 144.119 854.102 144.115C856.452 143.974 858.442 146.537 858.542 149.836C858.606 152.046 857.82 154.008 856.584 155.119L901.403 287.957C901.763 287.803 902.142 287.686 902.531 287.669C904.881 287.528 906.872 290.092 906.971 293.39C907.07 296.689 905.243 299.485 902.893 299.625C902.252 299.661 901.644 299.503 901.084 299.176L864.085 389.993C865.066 391.035 865.714 392.652 865.766 394.509C865.865 397.807 864.038 400.603 861.688 400.744C861.195 400.776 860.728 400.677 860.284 400.494L839.412 466.003C840.576 467.011 841.386 468.782 841.44 470.847C841.483 472.365 841.119 473.774 840.484 474.866L889.954 547.812C890.616 547.14 891.415 546.709 892.287 546.664C894.637 546.523 896.628 549.087 896.727 552.385C896.814 555.137 895.551 557.543 893.757 558.34L903.357 632.583C903.357 632.583 903.377 632.575 903.387 632.571C905.737 632.43 907.728 634.994 907.827 638.292C907.926 641.591 906.098 644.387 903.748 644.528C902.48 644.608 901.326 643.894 900.509 642.722L846.992 698.889C847.312 699.677 847.51 700.591 847.54 701.563C847.639 704.862 845.812 707.657 843.462 707.798C841.112 707.939 839.121 705.375 839.022 702.076C839.015 701.945 839.02 701.823 839.026 701.702L704.989 673.572L704.831 674.117L704.364 673.436L702.183 672.983L703.622 672.367L648.382 591.584C647.723 592.269 646.911 592.691 646.032 592.754C644.229 592.869 642.63 591.376 641.951 589.176L581.197 614.134C581.222 614.347 581.24 614.578 581.246 614.799C581.345 618.098 579.518 620.893 577.168 621.034C575.027 621.16 573.188 619.053 572.798 616.177L430.728 752.381C430.994 753.117 431.162 753.94 431.184 754.826C431.283 758.125 429.456 760.92 427.106 761.061C424.756 761.202 422.765 758.638 422.666 755.339C422.625 754.074 422.869 752.896 423.312 751.901L313.523 624.779C312.804 625.728 311.86 626.325 310.801 626.391C309.826 626.45 308.92 626.047 308.178 625.321L267.603 687.896C268.199 688.879 268.575 690.12 268.61 691.507C268.709 694.806 266.882 697.602 264.532 697.742C262.886 697.85 261.43 696.624 260.652 694.749L209.989 724.338C210.078 724.747 210.121 725.191 210.135 725.648C210.234 728.946 208.407 731.742 206.057 731.883C203.707 732.023 201.716 729.46 201.617 726.161C201.605 725.912 201.616 725.669 201.627 725.426L105.077 696.525C104.511 698.766 103.027 700.401 101.243 700.508C98.8933 700.648 96.9025 698.085 96.8034 694.786C96.7406 692.635 97.4907 690.703 98.6724 689.586L73.2127 618.61C72.7674 618.861 72.2917 619.019 71.7895 619.055C69.6195 619.194 67.7661 617.019 67.4091 614.099L8.56575 624.934C8.57293 625.066 8.5869 625.179 8.59413 625.31C8.69326 628.609 6.86595 631.404 4.51586 631.545C2.16583 631.686 0.175025 629.122 0.0759034 625.823C-0.0232187 622.525 1.80408 619.729 4.15411 619.588C4.28941 619.575 4.43063 619.589 4.56895 619.59L7.28742 575.141C5.44255 574.573 4.02133 572.333 3.94125 569.563C3.84213 566.264 5.66943 563.468 8.01952 563.328C9.52939 563.233 10.877 564.253 11.683 565.862L75.6178 518.675C75.4613 518.101 75.3729 517.497 75.3593 516.847C75.2602 513.548 77.0875 510.752 79.4375 510.612C81.1695 510.512 82.7069 511.867 83.4275 513.916L95.2643 509.789L160.945 486.869C160.903 483.636 162.706 480.925 165.024 480.783C167.374 480.642 169.365 483.206 169.464 486.505C169.491 487.463 169.358 488.37 169.092 489.199L227.701 537.351C228.439 536.051 229.561 535.198 230.839 535.113C230.839 535.113 230.839 535.113 230.849 535.109L234.338 480.202L328.553 491.428C328.959 488.838 330.556 486.842 332.536 486.711C333.572 486.64 334.535 487.108 335.298 487.93L373.215 433.98C372.69 433.026 372.352 431.858 372.315 430.562C372.216 427.263 374.043 424.467 376.393 424.327C377.484 424.262 378.5 424.782 379.284 425.699L443.675 341.177C443.21 340.258 442.919 339.16 442.88 337.953C442.781 334.654 444.608 331.859 446.958 331.718C449.308 331.577 451.299 334.141 451.398 337.44C451.435 338.736 451.178 339.95 450.706 340.958L495.081 394.142C495.789 393.243 496.726 392.663 497.753 392.596C499.81 392.476 501.591 394.414 502.071 397.117L640.669 374.446L640.728 375.211C640.661 373.137 641.362 371.271 642.473 370.124L616.003 302.624C615.577 302.866 615.118 303.002 614.625 303.034C612.275 303.175 610.285 300.611 610.185 297.313C610.086 294.014 611.914 291.218 614.264 291.078C615.648 290.992 616.908 291.855 617.728 293.234L718.084 204.253C717.89 203.605 717.771 202.91 717.747 202.16C717.673 199.715 718.649 197.553 720.119 196.536L702.788 130.404C702.616 130.448 702.442 130.477 702.252 130.484C699.902 130.625 697.911 128.061 697.812 124.762C697.713 121.464 699.541 118.668 701.891 118.527C703.149 118.451 704.3 119.152 705.118 120.323L823.683 8.82675C823.429 8.09989 823.265 7.29045 823.236 6.42275C823.137 3.12406 824.964 0.328379 827.314 0.187682C829.664 0.0469855 831.655 2.61063 831.754 5.90933L831.827 5.95258ZM828.1 12.1417C827.987 12.1602 827.865 12.1828 827.749 12.1877C826.909 12.234 826.123 11.9438 825.452 11.3959L759.65 133.363L850.156 148.608C850.489 146.764 851.437 145.255 852.695 144.538L828.11 12.1375L828.1 12.1417ZM724.996 197.611C725.382 198.116 725.695 198.728 725.927 199.405L850.067 150.942C850.045 150.743 850.036 150.553 850.023 150.35C850.018 150.277 850.026 150.214 850.024 150.156L758.88 134.812L724.999 197.624L724.996 197.611ZM617.827 300.844L689.856 406.256C690.515 405.571 691.327 405.149 692.206 405.086C692.363 405.078 692.524 405.084 692.675 405.094L701.912 339.986L618.321 299.737C618.182 300.125 618.017 300.494 617.824 300.83L617.827 300.844ZM32.8647 585.464L68.1328 609.792C68.8625 608.256 70.0814 607.213 71.4949 607.115L71.5144 607.106L78.1946 522.226C77.7997 522.022 77.4415 521.743 77.1134 521.406L32.8618 585.45L32.8647 585.464ZM240.022 682.935L142.325 644.189C142.221 644.547 142.08 644.876 141.936 645.191L203.139 721.422C203.847 720.568 204.748 720.018 205.755 719.96C206.898 719.888 207.958 720.464 208.757 721.45L240.032 682.931L240.022 682.935ZM843.128 695.874C843.643 695.847 844.131 695.937 844.59 696.143L864.018 637.205L801.115 633.787L840.919 696.909C841.554 696.309 842.301 695.93 843.119 695.878L843.128 695.874ZM723.39 207.65L741.248 352.251C741.657 352.226 742.052 352.28 742.422 352.42L773.841 236.905L725.733 204.977C725.218 206.226 724.383 207.18 723.387 207.636L723.39 207.65ZM498.179 404.6C497.947 404.61 497.732 404.598 497.51 404.558L495.582 415.511L533.458 477.339L499.829 404.028C499.328 404.362 498.777 404.568 498.188 404.596L498.179 404.6ZM448.983 343.157L480.821 485.921C481.002 485.874 481.186 485.84 481.376 485.833C481.608 485.823 481.823 485.836 482.044 485.875L494.385 415.919L449.537 342.726C449.361 342.891 449.181 343.042 448.983 343.157ZM378.297 435.847L397.119 530.217C397.261 530.186 397.406 530.169 397.545 530.169C397.912 530.147 398.261 530.191 398.603 530.298L417.362 455.044L380.315 433.343C379.853 434.45 379.152 435.332 378.297 435.847ZM286.88 595.775L307.538 616.392C308.272 615.272 309.315 614.542 310.48 614.476C310.699 614.457 310.905 614.474 311.116 614.517L330.996 498.183C330.923 498.14 330.847 498.083 330.771 498.026L286.88 595.775ZM232.714 546.646L246.883 621.082L254.253 659.811C254.375 659.788 254.498 659.766 254.624 659.757C255.325 659.71 255.997 659.915 256.591 660.302L285.393 596.173L234.241 545.113C233.82 545.77 233.296 546.293 232.704 546.65L232.714 546.646ZM162.146 490.889L104.641 568.795L136.539 636.478C137.047 636.126 137.627 635.908 138.226 635.876C138.435 635.861 138.641 635.877 138.849 635.907L163.142 492C162.768 491.697 162.434 491.333 162.146 490.889ZM79.853 522.62C79.6535 522.631 79.4703 522.62 79.2745 522.599L72.6074 607.295C73.119 607.449 73.5989 607.75 74.0226 608.136L103.224 568.581L81.3443 522.146C80.8826 522.418 80.3807 522.603 79.856 522.633L79.853 522.62ZM135.629 637.33L103.846 569.881L74.8688 609.146C75.4997 610.144 75.8968 611.436 75.9408 612.864C75.9433 613.071 75.9489 613.293 75.9388 613.491L134.553 639.327C134.812 638.56 135.172 637.868 135.626 637.316L135.629 637.33ZM142.675 641.593C142.68 641.71 142.674 641.832 142.678 641.95L180.241 649.664L250.728 664.139C250.941 663.063 251.37 662.104 251.944 661.366L205.776 569.541L142.11 638.837C142.448 639.662 142.662 640.599 142.688 641.602L142.675 641.593ZM257.53 661.153C257.772 661.437 258.004 661.77 258.197 662.12L306.733 622.777C306.543 622.143 306.427 621.462 306.408 620.739C306.371 619.636 306.558 618.586 306.912 617.674L286.305 597.095L257.543 661.162L257.53 661.153ZM573.519 611.707L511.409 533.015L490.796 567.626C491.482 568.63 491.923 569.978 491.962 571.482C491.979 571.953 491.948 572.398 491.885 572.843L573.209 612.437C573.304 612.187 573.408 611.934 573.519 611.707ZM546.057 514.651L539.241 492.092C538.975 492.191 538.688 492.239 538.395 492.26C537.577 492.312 536.804 492.031 536.136 491.497L512.117 531.817L574.257 610.556C574.451 610.324 574.651 610.119 574.867 609.937L546.054 514.637L546.057 514.651ZM888.231 552.949C888.194 551.652 888.454 550.452 888.914 549.435L834.388 484.486L798.077 627.422C798.632 627.825 799.114 628.38 799.496 629.066L888.571 555.056C888.377 554.408 888.246 553.704 888.221 552.953L888.231 552.949ZM857.257 395.063C857.227 394.24 857.329 393.436 857.523 392.712L807.402 355.619C807.008 356.399 806.478 357.044 805.865 357.5L822.08 415.25L857.37 396.223C857.31 395.846 857.269 395.461 857.26 395.077L857.257 395.063ZM786.504 199.208C786.095 199.234 785.701 199.179 785.321 199.043L775.228 236.147L804.948 255.869C805.297 255.123 805.762 254.477 806.308 254.004L787.632 198.919C787.272 199.073 786.894 199.19 786.495 199.212L786.504 199.208ZM694.113 416.575L711.41 484.556C711.471 484.545 711.523 484.538 711.584 484.526C711.899 484.511 712.214 484.54 712.518 484.619L727.157 419.377L696.497 412.766C696.143 414.468 695.268 415.872 694.113 416.575ZM332.974 498.724C332.658 498.74 332.353 498.706 332.062 498.637L312.203 614.873C312.84 615.212 313.405 615.76 313.855 616.462L370.882 561.24L334.81 498.028C334.262 498.441 333.646 498.69 332.986 498.734L332.974 498.724ZM417.12 639.819C417.3 639.668 417.486 639.543 417.674 639.433L406.242 581.829L398.351 542.07C398.209 542.101 398.074 542.114 397.929 542.131C396.606 542.205 395.398 541.44 394.577 540.15L372.471 561.559L417.13 639.815L417.12 639.819ZM510.599 531.974L483.239 497.311C482.777 497.584 482.275 497.769 481.75 497.799C481.448 497.824 481.153 497.787 480.874 497.727L487.67 565.757C488.497 565.746 489.279 566.068 489.946 566.647L510.599 531.974ZM486.589 565.966L479.72 497.207C479.323 496.944 478.969 496.588 478.652 496.157L454.395 557.67L483.842 569.275C484.355 567.668 485.362 566.432 486.599 565.962L486.589 565.966ZM477.905 494.866C477.769 494.536 477.651 494.184 477.561 493.82L401.894 534.737C401.954 535.114 401.995 535.499 402.007 535.896C402.016 536.28 402.002 536.659 401.964 537.019L453.296 557.26L477.898 494.884L477.905 494.866ZM401.666 538.488C401.238 539.895 400.425 541.048 399.407 541.648L407.454 582.175L418.74 639.006C418.882 638.975 419.018 638.962 419.163 638.945C419.781 638.904 420.366 639.056 420.91 639.36L452.753 558.626L401.666 538.488ZM485.832 492.07C485.783 493.851 485.171 495.44 484.229 496.485L511.31 530.79L535.269 490.585C534.739 489.857 534.341 488.954 534.125 487.912L485.832 492.07ZM835.14 465.907L821.464 417.213L795.746 431.084C795.807 431.461 795.848 431.846 795.857 432.23C795.881 433.174 795.748 434.081 795.498 434.889L833.861 467.409C834.207 466.798 834.638 466.286 835.137 465.893L835.14 465.907ZM804.114 358.145C803.872 358.159 803.634 358.141 803.401 358.092L793.021 426.851C794.022 427.348 794.855 428.348 795.362 429.653L821.079 415.782L804.856 357.991C804.617 358.064 804.374 358.123 804.13 358.123L804.114 358.145ZM802.34 357.711C801.201 357.065 800.297 355.737 799.894 354.075L794.259 411.242L802.343 357.725L802.34 357.711ZM713.707 495.834L733.479 575.568C733.699 575.504 733.931 575.449 734.163 575.44C734.762 575.407 735.344 575.545 735.873 575.826L746.003 549.475L714.05 495.553C713.933 495.648 713.825 495.739 713.707 495.834ZM716.034 490.244C716.086 491.907 715.643 493.439 714.901 494.577L746.57 548.024L789.114 437.353C788.72 436.955 788.381 436.474 788.099 435.908L715.774 488.461C715.918 489.026 716.004 489.615 716.024 490.248L716.034 490.244ZM790.081 438.088L747.324 549.297L793.81 627.741C794.278 627.302 794.808 627.001 795.383 626.859L791.19 438.448C790.806 438.389 790.431 438.281 790.081 438.088ZM792.768 629.112C792.838 628.992 792.908 628.873 792.978 628.754L746.76 550.762L736.84 576.561C737.862 577.6 738.549 579.245 738.613 581.157C738.643 582.083 738.508 582.977 738.268 583.781L753.504 596.456L792.768 629.112ZM732.453 576.082L712.652 496.36C712.432 496.424 712.2 496.479 711.968 496.489C710.867 496.557 709.848 496.024 709.067 495.12L692.346 519.698L731.809 576.641C732.009 576.436 732.222 576.241 732.453 576.082ZM708.314 493.996C707.851 493.09 707.557 491.978 707.521 490.785C707.505 490.121 707.565 489.468 707.689 488.863L645.301 450.726C645.2 450.949 645.097 451.157 644.984 451.369L691.576 518.596L708.314 493.996ZM645.917 447.39C645.933 448.055 645.879 448.689 645.756 449.294L708.258 487.173C708.388 486.894 708.544 486.633 708.713 486.382L673.521 425.12L645.661 445.576C645.805 446.141 645.906 446.754 645.917 447.39ZM713.577 485.091C714.269 485.54 714.858 486.243 715.279 487.107L787.604 434.554C787.46 433.989 787.375 433.399 787.354 432.767C787.347 432.636 787.35 432.5 787.352 432.365L728.258 419.607L713.574 485.077L713.577 485.091ZM787.522 430.845C787.681 430.061 787.952 429.349 788.307 428.734L743.956 363.07C743.304 363.737 742.502 364.155 741.632 364.213C741.317 364.229 741.002 364.2 740.698 364.121L728.585 418.124L787.509 430.836L787.522 430.845ZM743.966 353.415L805.322 263.032C804.714 262.04 804.323 260.776 804.284 259.375C804.263 258.638 804.341 257.919 804.495 257.256L774.86 237.588L743.469 352.986C743.647 353.119 743.805 353.26 743.969 353.429L743.966 353.415ZM806.149 264.051L744.76 354.477C745.318 355.432 745.665 356.641 745.711 357.978C745.753 359.497 745.392 360.919 744.757 362.011L789.109 427.675C789.761 427.008 790.563 426.59 791.432 426.532C791.506 426.53 791.58 426.528 791.645 426.53L807.573 264.933C807.059 264.765 806.579 264.464 806.149 264.051ZM800.42 348.808C801.109 347.379 802.224 346.395 803.526 346.225L806.86 283.495L800.42 348.808ZM857.784 397.641L822.503 416.664L836.173 465.33C836.449 465.227 836.736 465.179 837.029 465.158C837.521 465.126 837.989 465.225 838.433 465.408L859.305 399.899C858.666 399.352 858.146 398.575 857.784 397.641ZM832.944 471.411C832.92 470.467 833.052 469.56 833.302 468.752L797.168 438.128L833.896 481.877L835.267 476.487C833.944 475.532 833.015 473.648 832.944 471.411ZM794.476 436.938C793.877 437.702 793.13 438.23 792.288 438.411L796.475 626.407L796.737 626.831C796.846 626.844 796.949 626.875 797.054 626.92L833.5 483.433L794.466 436.942L794.476 436.938ZM730.112 580.917C730.182 579.724 730.505 578.616 731.02 577.709L691.586 520.799L649.22 583.052C649.666 583.831 649.973 584.758 650.099 585.778L730.109 580.904L730.112 580.917ZM648.43 582.003L690.819 519.71L644.208 452.447C643.68 453.001 643.061 453.385 642.383 453.541L646.28 580.864C647.076 580.956 647.824 581.367 648.439 581.999L648.43 582.003ZM483.457 572.005C483.439 571.58 483.466 571.166 483.506 570.761L453.838 559.072L421.864 640.13C422.041 640.308 422.204 640.522 422.357 640.74L483.98 574.66C483.67 573.868 483.477 572.981 483.45 572.023L483.457 572.005ZM416.279 640.791L371.57 562.452L314.474 617.749C314.753 618.495 314.914 619.336 314.949 620.231C314.949 620.379 314.95 620.528 314.947 620.664L415.271 643.25C415.463 642.318 415.816 641.496 416.282 640.804L416.279 640.791ZM335.701 497.139L371.789 560.374L393.963 538.892C393.685 538.146 393.524 537.305 393.492 536.423C393.47 535.687 393.551 534.981 393.695 534.323L336.295 496.154C336.118 496.513 335.912 496.84 335.691 497.143L335.701 497.139ZM399.671 530.81C400.449 531.358 401.085 532.234 401.499 533.31L451.838 506.097L477.338 492.304C477.338 492.304 477.328 492.16 477.323 492.087C477.303 491.454 477.359 490.834 477.467 490.251L418.408 455.656L399.671 530.81ZM483.137 486.258C484.439 486.968 485.444 488.567 485.748 490.555L533.98 486.409C533.958 484.837 534.37 483.407 535.069 482.318L495.287 417.383L483.14 486.271L483.137 486.258ZM542.296 484.475L612.124 458.035L637.433 448.456C637.417 448.284 637.398 448.098 637.401 447.917C637.298 444.65 639.096 441.867 641.418 441.694L644.582 380.975C643.656 380.82 642.811 380.257 642.168 379.398L542.11 483.764C542.193 483.997 542.256 484.239 542.309 484.484L542.296 484.475ZM645.682 380.952L642.513 441.792C643.591 442.106 644.536 442.985 645.143 444.216L672.811 423.903L647.538 379.904C646.997 380.449 646.364 380.809 645.673 380.956L645.682 380.952ZM709.567 485.42C709.819 485.207 710.076 485.023 710.355 484.888L693.082 417.016C692.931 417.051 692.766 417.077 692.608 417.085C690.931 417.191 689.444 415.919 688.692 413.973L674.519 424.38L709.574 485.402L709.567 485.42ZM696.677 410.854C696.684 410.985 696.682 411.121 696.679 411.256L727.509 417.914L739.671 363.696C739.213 363.399 738.806 362.992 738.442 362.491L696.107 408.13C696.443 408.941 696.644 409.869 696.68 410.868L696.677 410.854ZM774.266 235.485L784.331 198.497C783.262 197.687 782.466 196.268 782.189 194.551L726.34 201.943C726.345 202.507 726.293 203.051 726.193 203.571L774.263 235.472L774.266 235.485ZM782.092 193.027C782.166 189.937 783.931 187.392 786.165 187.256C787.759 187.156 789.187 188.305 789.977 190.084L847.564 153.565L728.235 200.147L782.099 193.009L782.092 193.027ZM850.682 153.289L790.423 191.504C790.527 191.982 790.592 192.476 790.608 192.992C790.638 193.963 790.496 194.874 790.239 195.7L822.771 223.779L851.695 154.87C851.291 154.431 850.954 153.904 850.682 153.289ZM789.661 197.006C789.376 197.501 789.043 197.927 788.66 198.27L807.348 253.41C807.679 253.269 808.021 253.182 808.369 253.167C809.029 253.123 809.652 253.304 810.225 253.64L822.199 225.113L789.655 197.024L789.661 197.006ZM811.178 254.411C812.127 255.452 812.76 257.045 812.815 258.871C812.825 259.21 812.815 259.557 812.78 259.885L898.794 291.46C898.794 291.46 898.839 291.322 898.856 291.255L823.146 225.901L811.178 254.411ZM898.487 293.964C898.477 293.625 898.487 293.277 898.522 292.949L812.508 261.374C812.212 262.411 811.707 263.313 811.071 263.958L837.456 331.51L898.636 295.287C898.544 294.864 898.498 294.406 898.484 293.95L898.487 293.964ZM810.115 264.695C809.754 264.894 809.366 265.016 808.953 265.073L804.641 346.27C805.915 346.56 807.011 347.642 807.639 349.164L836.438 332.109L810.112 264.682L810.115 264.695ZM808.065 350.592C808.157 351.015 808.203 351.473 808.217 351.929C808.247 352.752 808.142 353.542 807.951 354.28L858.072 391.373C858.339 390.841 858.663 390.374 859.037 389.991L836.969 333.478L808.065 350.592ZM837.409 477.152C837.032 477.179 836.67 477.125 836.328 477.018L834.821 482.958L885.019 542.749L839.752 476C839.09 476.671 838.291 477.102 837.419 477.148L837.409 477.152ZM889.17 556.396L800.095 630.406C800.271 630.972 800.382 631.581 800.425 632.219L864.563 635.703L890.26 557.749C889.839 557.377 889.485 556.917 889.176 556.378L889.17 556.396ZM792.244 630.47L737.731 585.129C736.989 586.461 735.853 587.349 734.563 587.425C732.57 587.547 730.848 585.733 730.301 583.163L722.929 609.587L792.168 630.756C792.189 630.657 792.223 630.568 792.244 630.47ZM729.303 582.531L650.185 587.352L721.848 609.259L729.303 582.531ZM645.205 580.952L641.308 453.629C640.903 453.578 640.514 453.447 640.144 453.262L603.994 546.966L642.714 582.943C643.344 581.927 644.209 581.214 645.208 580.966L645.205 580.952ZM639.174 452.514C638.536 451.877 638.035 450.987 637.736 449.952L585.469 469.741L570.118 475.551L542.512 486.008C542.512 486.008 542.518 486.036 542.521 486.049C542.554 487.229 542.34 488.349 541.952 489.306L603.084 546.103L639.187 452.523L639.174 452.514ZM541.27 490.522C540.986 490.927 540.658 491.277 540.302 491.548L546.813 513.089L575.923 609.366C576.224 609.237 576.55 609.172 576.885 609.148C577.493 609.111 578.066 609.254 578.598 609.549L602.551 547.465L541.273 490.536L541.27 490.522ZM572.892 613.915L491.591 574.326C490.937 576.262 489.558 577.643 487.922 577.746C487.407 577.772 486.917 577.669 486.458 577.463L467.431 634.918L572.818 614.603C572.832 614.373 572.856 614.139 572.892 613.915ZM485.457 576.817C485.166 576.554 484.898 576.251 484.664 575.904L423.061 641.975C423.243 642.419 423.388 642.894 423.485 643.389L466.146 635.169L485.467 576.813L485.457 576.817ZM423.624 644.911C423.635 647.755 422.233 650.16 420.317 650.786L427.144 749.186C427.543 749.21 427.924 749.3 428.287 749.458L465.582 636.828L423.614 644.915L423.624 644.911ZM426.051 749.341L419.224 650.941C417.014 650.843 415.202 648.367 415.103 645.217C415.102 645.068 415.102 644.919 415.105 644.784L314.78 622.197C314.671 622.721 314.513 623.221 314.305 623.683L424.095 750.805C424.632 750.098 425.297 749.589 426.051 749.341ZM307.316 624.139L258.782 663.496C258.973 664.13 259.089 664.811 259.108 665.534C259.177 667.667 258.434 669.581 257.274 670.704L262.988 686.217C263.391 686.015 263.811 685.895 264.262 685.866C265.237 685.806 266.143 686.209 266.885 686.936L307.459 624.361C307.412 624.291 307.363 624.208 307.322 624.121L307.316 624.139ZM262.017 686.931L256.303 671.418C255.9 671.62 255.48 671.74 255.029 671.769C253.886 671.841 252.826 671.265 252.028 670.279L242.292 682.277L260.512 689.499C260.83 688.468 261.348 687.575 261.997 686.939L262.017 686.931ZM251.32 669.121C250.896 668.243 250.636 667.191 250.599 666.043C250.595 665.926 250.6 665.804 250.596 665.687L146.717 644.353L241.054 681.763L251.329 669.116L251.32 669.121ZM141.251 646.394C140.544 647.248 139.643 647.798 138.635 647.857C137.596 647.914 136.623 647.45 135.861 646.628L127.378 658.626L201.157 721.003L141.251 646.394ZM135.086 645.557C134.564 644.617 134.232 643.432 134.188 642.153C134.178 641.71 134.199 641.268 134.258 640.855L75.9114 615.129L126.409 657.832L135.086 645.557ZM83.8809 515.467C83.9266 515.775 83.9625 516.088 83.9723 516.427C84.0346 518.429 83.3767 520.247 82.3391 521.392L104.08 567.529L161.552 489.667C161.408 489.296 161.29 488.899 161.211 488.486L143.043 494.829L83.8936 515.476L83.8809 515.467ZM165.49 492.829C165.049 492.854 164.619 492.784 164.217 492.643L139.964 636.295C140.528 636.591 141.033 637.06 141.46 637.654L205.172 568.323L166.971 492.359C166.51 492.631 166.015 492.799 165.48 492.833L165.49 492.829ZM252.873 660.506C252.991 660.411 253.114 660.343 253.235 660.262L245.78 621.092L231.699 547.111C231.566 547.137 231.431 547.15 231.305 547.159C230.037 547.24 228.883 546.526 228.066 545.354L206.674 568.635L252.876 660.519L252.873 660.506ZM235.384 540.924C235.415 542 235.242 543.014 234.913 543.9L286.027 594.932L329.918 497.183C329.52 496.667 329.191 496.033 328.953 495.329L235.277 539.896C235.329 540.232 235.371 540.572 235.374 540.929L235.384 540.924ZM337.083 492.535C337.107 493.331 337.021 494.113 336.835 494.819L394.196 532.96C394.659 531.956 395.317 531.168 396.107 530.695L377.284 436.325C377.142 436.356 376.997 436.373 376.862 436.386C375.825 436.457 374.863 435.989 374.1 435.167L336.182 489.117C336.708 490.071 337.046 491.239 337.083 492.535ZM380.937 430.138C380.958 430.77 380.901 431.391 380.794 431.974L417.78 453.642L445.33 343.124C445.042 342.92 444.776 342.675 444.534 342.391L380.142 426.913C380.607 427.833 380.899 428.931 380.937 430.138ZM418.792 454.239L477.923 488.877C478.364 487.823 479.027 486.958 479.828 486.436L447.989 343.672C447.808 343.719 447.624 343.753 447.434 343.76C447.067 343.783 446.718 343.739 446.376 343.631L418.801 454.234L418.792 454.239ZM494.752 414.136L496.497 404.246C494.966 403.41 493.866 401.375 493.783 398.934C493.746 397.638 494.003 396.424 494.475 395.416L452.308 344.866L494.752 414.136ZM500.796 403.241L536.436 480.927C536.938 480.593 537.488 480.388 538.077 480.359C539.452 480.278 540.697 481.117 541.526 482.493L641.479 378.231C641.192 377.593 640.993 376.873 640.898 376.093L502.301 398.764C502.284 400.546 501.71 402.164 500.789 403.259L500.796 403.241ZM648.38 378.887L673.84 423.209L688.306 412.587C688.246 412.21 688.202 411.811 688.19 411.414C688.162 410.501 688.284 409.643 688.518 408.857L648.66 378.365C648.573 378.551 648.483 378.724 648.38 378.887ZM693.812 405.487C694.44 405.785 695.007 406.289 695.464 406.928L737.799 361.29C737.464 360.479 737.263 359.551 737.227 358.552C737.213 358.05 737.245 357.559 737.315 357.097L703.02 340.586L693.812 405.487ZM737.67 355.647C738.186 354.203 739.101 353.081 740.229 352.598L722.374 208.01C722.374 208.01 722.335 208.027 722.303 208.026C722.145 208.034 721.984 208.028 721.833 208.018L703.235 339.077L737.663 355.665L737.67 355.647ZM855.644 155.879C855.284 156.033 854.906 156.15 854.516 156.168C853.856 156.212 853.232 156.031 852.66 155.695L823.72 224.626L899.452 289.986C899.738 289.49 900.071 289.065 900.453 288.722L855.634 155.883L855.644 155.879ZM900.187 298.516C899.742 298.035 899.371 297.449 899.084 296.766L838.009 332.929L860.024 389.3C860.453 389.071 860.909 388.921 861.392 388.893C862.032 388.858 862.64 389.015 863.2 389.342L900.199 298.526L900.187 298.516ZM892.757 558.724C892.757 558.724 892.737 558.732 892.727 558.736C892.212 558.763 891.725 558.673 891.266 558.466L865.76 635.832L899.455 637.669C899.721 635.467 900.858 633.653 902.36 632.981L892.76 558.737L892.757 558.724ZM899.935 641.596C899.652 640.881 899.465 640.066 899.414 639.193L865.266 637.326L845.647 696.854C845.935 697.104 846.193 697.411 846.425 697.744L899.942 641.578L899.935 641.596ZM839.261 700.288C839.438 699.437 839.745 698.649 840.146 698L800.227 634.69C799.683 636.981 798.191 638.679 796.366 638.789C794.582 638.896 793.014 637.449 792.305 635.306L707.159 672.553L839.258 700.275L839.261 700.288ZM791.988 633.846C791.955 633.592 791.93 633.333 791.929 633.081C791.924 632.814 791.932 632.557 791.943 632.314L722.534 611.098L705.642 671.636L791.991 633.859L791.988 633.846ZM721.45 610.756L649.957 588.897C649.797 589.532 649.561 590.11 649.268 590.623L704.524 671.429L721.45 610.756ZM641.729 587.809C641.704 587.596 641.686 587.365 641.68 587.144C641.648 586.113 641.805 585.122 642.114 584.244L603.477 548.351L579.574 610.324C580.186 610.942 580.675 611.777 580.975 612.767L641.729 587.809ZM570.581 616.634L466.894 636.609L429.297 750.144C429.629 750.45 429.938 750.795 430.2 751.22L570.581 616.634ZM260.338 693.452C260.249 693.042 260.206 692.598 260.192 692.142C260.183 691.758 260.197 691.379 260.233 691.006L241.327 683.511L209.525 722.687C209.58 722.797 209.626 722.912 209.682 723.022L260.345 693.434L260.338 693.452ZM201.962 724.029C201.997 723.895 202.041 723.757 202.076 723.623L126.582 659.802L104.524 690.989C105.047 691.929 105.379 693.115 105.422 694.394C105.434 694.642 105.423 694.886 105.412 695.129L201.962 724.029ZM99.7573 689.002C100.14 688.809 100.551 688.693 100.982 688.672C102.022 688.615 102.994 689.079 103.757 689.901L125.619 658.991L75.295 616.451C75.0202 617.046 74.676 617.566 74.279 617.99L99.7603 689.016L99.7573 689.002ZM67.4598 613.451C67.4323 612.687 67.5168 611.95 67.6872 611.265L32.105 586.714L7.75676 621.939C8.03078 622.419 8.25532 622.964 8.41476 623.552L67.3807 612.694L67.453 613.468L67.4598 613.451ZM6.97279 620.873L31.0766 585.991L11.8538 572.724C11.1241 574.26 9.90512 575.303 8.49166 575.401L5.76381 620.003C6.20063 620.204 6.61337 620.49 6.9825 620.869L6.97279 620.873ZM12.3017 567.342C12.4582 567.916 12.5466 568.52 12.5699 569.166C12.5974 569.93 12.5128 570.667 12.3425 571.352L31.8893 584.837L76.392 520.432C76.3392 520.335 76.2893 520.252 76.2462 520.151L12.3114 567.338L12.3017 567.342ZM168.634 490.618C168.425 490.976 168.197 491.298 167.941 491.586L206.054 567.394L227.419 544.139C227.1 543.351 226.901 542.437 226.871 541.465C226.844 540.507 226.977 539.6 227.243 538.77L168.634 490.618ZM235.456 481.976L232.06 535.351C233.303 535.744 234.347 536.879 234.922 538.452L328.646 493.864C328.612 493.61 328.585 493.338 328.58 493.072L235.456 481.976ZM643.549 369.5C643.975 369.258 644.434 369.121 644.927 369.089C647.277 368.948 649.268 371.512 649.367 374.811C649.394 375.574 649.307 376.298 649.146 376.978L689.067 407.518C689.067 407.518 689.113 407.439 689.13 407.417L617.101 302.004C617.101 302.004 617.101 302.004 617.092 302.009L643.562 369.509L643.549 369.5ZM618.432 294.663C618.657 295.358 618.8 296.117 618.827 296.926C618.84 297.427 618.808 297.918 618.738 298.38L702.189 338.57L720.759 207.717C719.965 207.341 719.261 206.643 718.754 205.726L618.435 294.677L618.432 294.663ZM721.273 196.176C721.484 196.116 721.706 196.065 721.938 196.056C722.746 196.008 723.506 196.279 724.169 196.786L757.68 134.669L706.343 126.019C706.032 127.822 705.146 129.32 703.961 130.081L721.273 196.176ZM705.903 121.688C706.225 122.489 706.424 123.404 706.457 124.389C706.465 124.43 706.452 124.466 706.461 124.506L758.449 133.266L824.637 10.581C824.562 10.479 824.487 10.377 824.418 10.2572L705.906 121.701L705.903 121.688Z" fill="white" fill-opacity="0.18"/>
</svg>
