<svg width="223" height="44" viewBox="0 0 223 44" fill="none" xmlns="http://www.w3.org/2000/svg">
<path d="M24.1733 17.648C24.1733 17.648 27.6471 12.2216 25.1855 6.64848C22.7238 1.07533 17.3693 -0.299237 11.5087 0.712973C5.64802 1.72518 3.76434 8.81964 3.91108 11.4969H11.9429C11.9429 11.4969 12.0148 8.52915 15.4167 8.52915C18.8187 8.52915 18.8187 13.8118 14.9106 14.3898V22.7839C14.9106 22.7839 21.3522 22.0592 21.0618 30.094C21.0618 30.094 21.0618 32.1484 18.9325 33.6787C16.5008 35.4276 13.1348 35.3228 10.8468 33.3912C9.71782 32.4389 8.7685 30.9864 8.68464 28.7913H0C0 28.7913 1.37457 42.6149 14.1859 43.2647C26.9943 43.9146 30.2525 31.6123 29.5278 25.8954C28.8031 20.1786 24.1733 17.645 24.1733 17.645V17.648Z" fill="#5E97F8"/>
<path d="M50.4456 20.2456C49.3226 19.1885 45.5792 16.3705 39.3742 18.5177C31.8485 21.1231 28.3746 36.3212 39.3742 42.11C39.3742 42.11 46.9328 44.5866 50.4456 40.6725V42.8317H58.1899V9.03345H50.4456V20.2426V20.2456ZM45.3786 36.4649C42.3419 36.4649 39.8773 33.6769 39.8773 30.242C39.8773 26.807 42.339 24.0189 45.3786 24.0189C48.4182 24.0189 50.8799 26.804 50.8799 30.242C50.8799 33.6799 48.4182 36.4649 45.3786 36.4649Z" fill="#5E97F8"/>
<path d="M89.886 20.2456C88.763 19.1885 85.0196 16.3705 78.8146 18.5177C71.2889 21.1231 67.8151 36.3212 78.8146 42.11C78.8146 42.11 86.3733 44.5866 89.886 40.6725V42.8317H97.6303V9.03345H89.886V20.2426V20.2456ZM84.819 36.4649C81.7824 36.4649 79.3177 33.6769 79.3177 30.242C79.3177 26.807 81.7794 24.0189 84.819 24.0189C87.8586 24.0189 90.3203 26.804 90.3203 30.242C90.3203 33.6799 87.8586 36.4649 84.819 36.4649Z" fill="#5E97F8"/>
<path d="M69.1148 18.2297H61.083V42.8851H69.1148V18.2297Z" fill="#5E97F8"/>
<path d="M65.0994 8.36743C62.7725 8.36743 60.8828 10.2541 60.8828 12.584C60.8828 14.9139 62.7695 16.8005 65.0994 16.8005C67.4292 16.8005 69.3159 14.9139 69.3159 12.584C69.3159 10.2541 67.4292 8.36743 65.0994 8.36743Z" fill="#5E97F8"/>
<path d="M112.975 27.5626C109.864 26.9097 107.549 26.0443 108.417 24.3792C109.286 22.7142 112.688 23.8731 113.99 25.61L118.911 21.7738C118.911 21.7738 116.377 17.0691 108.708 17.8657C101.035 18.6623 100.676 24.8135 101.035 26.9846C101.398 29.1558 102.772 31.5426 107.692 33.2076C112.613 34.8727 114.05 36.2472 111.268 37.0438C108.489 37.8404 104.581 35.235 104.581 35.235L100.311 39.2869C100.311 39.2869 103.856 43.9197 110.66 43.195C117.464 42.4702 120.141 37.6937 119.635 34.0042C119.129 30.3147 116.09 28.2154 112.978 27.5626H112.975Z" fill="#5E97F8"/>
<path d="M127.086 39.5005C126.044 39.5005 125.199 40.345 125.199 41.3871C125.199 42.4293 126.044 43.2738 127.086 43.2738C128.128 43.2738 128.973 42.4293 128.973 41.3871C128.973 40.345 128.128 39.5005 127.086 39.5005Z" fill="#5E97F8"/>
<path d="M140.185 21.414C140.185 21.414 145.974 16.5176 153.79 23.2707L154.997 21.5337C154.997 21.5337 149.376 14.9005 139.895 19.0242C130.413 23.1479 131.282 40.8346 143.512 42.883C143.512 42.883 149.4 44.7068 154.994 39.499L153.934 37.5494C153.934 37.5494 149.882 42.6165 142.716 40.6609C135.552 38.7084 133.234 26.9841 140.182 21.411L140.185 21.414Z" fill="#5E97F8"/>
<path d="M170.944 17.7749C163.885 17.7749 158.162 23.4978 158.162 30.5563C158.162 37.6148 163.885 43.3377 170.944 43.3377C178.002 43.3377 183.725 37.6148 183.725 30.5563C183.725 23.4978 178.002 17.7749 170.944 17.7749ZM170.944 41.0527C165.149 41.0527 160.45 36.3541 160.45 30.5593C160.45 24.7645 165.149 20.0659 170.944 20.0659C176.738 20.0659 181.437 24.7645 181.437 30.5593C181.437 36.3541 176.738 41.0527 170.944 41.0527Z" fill="#5E97F8"/>
<path d="M222.399 27.0825C222.351 25.3935 221.387 17.6731 214.583 17.5294C207.779 17.3826 205.85 22.6443 205.85 22.6443C205.85 22.6443 203.631 17.4335 198.178 17.5294C194.455 17.5953 192.063 19.8413 190.916 21.2608V18.2301H188.454V42.619H190.916V26.1811C190.916 25.0042 191.251 23.8422 191.922 22.8749C192.961 21.3716 194.881 19.5328 198.034 19.6047C200.355 19.6586 201.825 20.6828 202.748 21.8148C203.724 23.0157 204.209 24.54 204.209 26.0883V42.619H206.671C206.671 42.619 206.428 27.2292 206.671 25.4414C206.913 23.6565 208.552 19.7964 213.909 19.7485C217.257 19.7185 218.737 22.0993 219.377 23.8901C219.698 24.7915 219.842 25.7439 219.842 26.7022V42.8586H222.399C222.399 42.8586 222.447 28.7715 222.399 27.0825Z" fill="#5E97F8"/>
</svg>
