<svg width="27" height="27" viewBox="0 0 27 27" fill="none" xmlns="http://www.w3.org/2000/svg">
<path d="M24.1506 0H2.24297C1.0459 0 0 0.861328 0 2.04434V24.0006C0 25.19 1.0459 26.25 2.24297 26.25H24.1441C25.3477 26.25 26.25 25.183 26.25 24.0006V2.04434C26.257 0.861328 25.3477 0 24.1506 0ZM8.13691 21.8807H4.37637V10.1883H8.13691V21.8807ZM6.38672 8.41055H6.35977C5.15625 8.41055 4.37695 7.51465 4.37695 6.39316C4.37695 5.25117 5.17676 4.37637 6.40723 4.37637C7.6377 4.37637 8.39062 5.24473 8.41758 6.39316C8.41699 7.51465 7.6377 8.41055 6.38672 8.41055ZM21.8807 21.8807H18.1201V15.4875C18.1201 13.9559 17.5729 12.9094 16.2123 12.9094C15.1729 12.9094 14.5576 13.6125 14.284 14.2975C14.1814 14.5436 14.1539 14.8787 14.1539 15.2209V21.8807H10.3934V10.1883H14.1539V11.8154C14.7012 11.0361 15.5561 9.91465 17.5453 9.91465C20.0139 9.91465 21.8813 11.5418 21.8813 15.0498L21.8807 21.8807Z" fill="#ECE6F0"/>
</svg>
