<svg width="172" height="97" viewBox="0 0 172 97" fill="none" xmlns="http://www.w3.org/2000/svg">
<path d="M0 75.5892L9.56917 71.1122V54.2536L16.3304 51.7956L24.0566 43.5412V22.0295H0V75.587V75.5892ZM9.56917 28.091H14.3114L14.6189 45.168L11.9403 47.8467H9.56917V28.091Z" fill="#9747FF"/>
<path d="M26.9541 64.001L36.5233 60.9279V47.3185L41.9675 46.0014V59.1719L51.7127 56.9768V22.0317H26.9541V64.001ZM36.2625 28.091H41.7937V41.8765L36.2625 43.2805V28.091Z" fill="#9747FF"/>
<path d="M78.2297 22.0318H54.084V57.1507L63.3033 55.0425V38.799H65.8504L68.5714 40.0291V54.4275L78.2297 53.8124V38.8859L72.7855 36.8669L78.2297 34.4958V22.0273V22.0318ZM68.6606 34.1481L65.3245 36.2563H63.3924V27.2131H68.6606V34.1481Z" fill="#9747FF"/>
<path d="M98.511 22.0318H80.6875V53.4647C80.6875 53.4647 96.931 53.9037 98.511 54.0798V46.8795H90.3458V38.0547H97.633V35.113H90.5219V28.0888H98.511V22.0295V22.0318Z" fill="#9747FF"/>
<path d="M101.145 22.0317V54.0798L109.134 54.8709V36.2562C109.134 36.2562 114.402 41.5244 116.773 56.0119L126.255 58.2938V22.0317H117.651V40.1628C117.651 40.1628 110.627 28.091 110.277 22.0317H101.147H101.145Z" fill="#9747FF"/>
<path d="M142.413 36.8713L151.982 38.0569V22.0317H128.451V40.9962L142.413 43.7195V56.3617L138.199 55.2207V45.3864L128.451 43.3674V58.2938L151.982 66.6351V40.8224L138.023 38.0569V28.091H142.587L142.413 36.8713Z" fill="#9747FF"/>
<path d="M172 29.7579V22.0317H154.177V67.424L172 76.0282V67.6L164.098 63.825V49.03L170.859 51.5326V44.3345L164.098 42.9284V29.671L172 29.7579Z" fill="#9747FF"/>
<path d="M56.586 18.9821H54.2817L52.1758 16.2165V0.347412H84.1124V18.6523H82.2694V1.86056H54.0856V15.6238L56.586 18.9821Z" fill="#9747FF"/>
<path d="M115.537 18.9821H117.843L119.949 16.2165V0.347412H88.0127V18.6523H89.8557V1.86056H118.039V15.6238L115.537 18.9821Z" fill="#9747FF"/>
<path d="M116.435 79.1909L118.039 81.3459V95.1091H89.8557V79.1909H88.0127V96.6222H119.949V80.7531L118.759 79.1909H116.435Z" fill="#9747FF"/>
<path d="M82.2694 95.1091H54.0856V81.3459L55.6901 79.1909H53.3658L52.1758 80.7531V96.6222H84.1124V79.1909H82.2694V95.1091Z" fill="#9747FF"/>
<path d="M83.6842 56.5823H82.3672V63.9252H83.6842V56.5823Z" fill="#9747FF"/>
<path d="M89.5993 56.5823H88.2822V63.9252H89.5993V56.5823Z" fill="#9747FF"/>
<path d="M108.476 58.2952H107.159V63.6502H108.476V58.2952Z" fill="#9747FF"/>
<path d="M64.8405 58.2952H63.5234V63.6502H64.8405V58.2952Z" fill="#9747FF"/>
<path d="M52.1756 66.986C49.7822 66.6785 45.6572 66.986 45.6572 66.986V75.8109H52.3293C52.3293 75.8109 55.7969 75.0643 55.5339 71.8598C55.271 68.6552 54.569 67.2936 52.1756 66.986ZM53.2074 72.6063C53.2074 73.1879 52.7349 73.6604 52.1533 73.6604H48.1153V69.0519H52.3071C52.804 69.0519 53.2074 69.4552 53.2074 69.9522V72.6085V72.6063Z" fill="#9747FF"/>
<path d="M56.4121 66.8494V68.7859V70.386V72.3226V73.9226V75.8102V75.8592H64.8403V73.9226H58.3866V72.3226H64.4458V70.386H58.3866V68.7859H65.1032V66.8494H58.3866H56.4121Z" fill="#9747FF"/>
<path d="M77.3287 73.4392L75.2451 67.03H71.3809V75.8593H73.5314V69.4012L75.8579 76.0733H78.6257L80.8208 69.2697V75.8593H83.2788V67.03H79.2831L77.3287 73.4392Z" fill="#9747FF"/>
<path d="M102.946 73.0715L99.5205 67.03H98.072H95.79V75.7657H98.072V69.6819L101.408 76.0733H102.946H103.429H105.58V67.03H102.946V73.0715Z" fill="#9747FF"/>
<path d="M113.496 66.7158H109.814C107.911 66.7158 106.371 68.2579 106.371 70.1589V72.267C106.371 74.1701 107.913 75.71 109.814 75.71H113.496C115.399 75.71 116.939 74.1679 116.939 72.267V70.1589C116.939 68.2557 115.397 66.7158 113.496 66.7158ZM114.405 72.2715C114.405 73.0269 113.792 73.6375 113.039 73.6375H109.845C109.09 73.6375 108.479 73.0247 108.479 72.2715V70.3282C108.479 69.5728 109.092 68.9621 109.845 68.9621H113.039C113.794 68.9621 114.405 69.575 114.405 70.3282V72.2715Z" fill="#9747FF"/>
<path d="M87.7338 67.03L83.6846 75.9084H86.5816L87.2078 73.9339H91.6537L92.4448 75.9084H95.2438L90.8314 67.03H87.736H87.7338ZM87.7338 72.1222L89.0285 69.1805H89.862L91.0921 72.1222H87.7338Z" fill="#9747FF"/>
<path d="M124.39 70.5871C121.689 70.5871 120.029 70.6964 119.949 69.8852C119.869 69.074 120.372 68.7888 122.568 68.8311C124.763 68.8757 125.355 68.8534 125.531 70.0167H127.858C127.858 70.0167 127.506 66.8567 124.653 66.8344C121.801 66.8121 120.154 66.8344 120.154 66.8344C120.154 66.8344 117.651 67.4717 117.607 69.5554C117.562 71.6412 118.572 72.3655 121.513 72.3432C124.455 72.3209 125.551 72.1894 125.551 72.7822C125.551 73.375 125.442 73.9455 124.148 73.9678C122.853 73.9901 120.027 74.2753 119.947 72.7822H117.738C117.738 72.7822 117.431 75.7016 120.571 75.9422C123.711 76.1829 125.794 75.9422 125.794 75.9422C125.794 75.9422 127.528 75.394 127.726 73.638C127.925 71.8819 127.089 70.5871 124.39 70.5871Z" fill="#9747FF"/>
</svg>
