<svg width="126" height="102" viewBox="0 0 126 102" fill="none" xmlns="http://www.w3.org/2000/svg">
<path d="M29.6558 41.9614C29.7032 42.0495 29.7507 42.1286 29.7959 42.2122V39.8347C29.5089 41.4099 29.6558 41.8823 29.6558 41.9591V41.9614Z" fill="#8E8E8E"/>
<path d="M11.6367 33.1956C11.5056 33.1572 11.3203 33.4035 11.2231 33.747C11.1237 34.0883 11.1508 34.3957 11.2819 34.4341C11.413 34.4725 11.5983 34.2262 11.6955 33.8826C11.7949 33.5414 11.7678 33.234 11.6367 33.1956Z" fill="#8E8E8E"/>
<path d="M28.8109 8.64078C29.0776 8.40574 29.22 8.13228 29.1296 8.03058C29.0392 7.92888 28.7499 8.03736 28.4855 8.27466C28.2188 8.5097 28.0764 8.78316 28.1668 8.88486C28.2572 8.98656 28.5465 8.87808 28.8109 8.64078Z" fill="#8E8E8E"/>
<path d="M13.4182 28.3356C13.2442 28.2565 12.8283 28.7966 12.4871 29.5447C12.1458 30.2905 12.0102 30.9617 12.1842 31.0408C12.3583 31.1199 12.7741 30.5797 13.1154 29.8317C13.4566 29.0836 13.5922 28.4147 13.4182 28.3356Z" fill="#8E8E8E"/>
<path d="M14.3198 26.4171C14.2023 26.3493 13.9628 26.5436 13.7842 26.851C13.6057 27.1583 13.5582 27.4634 13.6757 27.5312C13.7933 27.599 14.0328 27.4047 14.2114 27.0973C14.3899 26.79 14.4374 26.4849 14.3198 26.4171Z" fill="#8E8E8E"/>
<path d="M16.9144 15.6228C15.9494 16.7822 15.251 17.7924 15.355 17.8805C15.4589 17.9664 16.3268 17.0986 17.2918 15.9369C18.2568 14.7776 18.9551 13.7673 18.8512 13.6792C18.7472 13.5933 17.8794 14.4612 16.9144 15.6228Z" fill="#8E8E8E"/>
<path d="M19.429 12.4552C19.1668 12.697 19.0312 12.9728 19.1239 13.0722C19.2165 13.1716 19.5035 13.0564 19.7634 12.8146C20.0256 12.5727 20.1612 12.297 20.0685 12.1976C19.9759 12.0981 19.6889 12.2134 19.429 12.4552Z" fill="#8E8E8E"/>
<path d="M103.451 14.7894C103.713 15.0312 103.998 15.1465 104.091 15.0448C104.183 14.9454 104.046 14.6674 103.786 14.4278C103.526 14.1883 103.239 14.0707 103.146 14.1724C103.053 14.2719 103.191 14.5499 103.451 14.7894Z" fill="#8E8E8E"/>
<path d="M24.3714 7.72758C24.2742 7.6304 23.3318 8.41914 22.2651 9.48585C21.1983 10.5526 20.4119 11.495 20.5068 11.5922C20.6017 11.6893 21.5464 10.9006 22.6131 9.83389C23.6798 8.76718 24.4663 7.82476 24.3714 7.72758Z" fill="#8E8E8E"/>
<path d="M108.039 19.9584C108.143 19.8725 107.444 18.86 106.479 17.7007C105.514 16.5413 104.646 15.6712 104.542 15.7571C104.439 15.8429 105.137 16.8554 106.102 18.0148C107.067 19.1742 107.935 20.0443 108.039 19.9584Z" fill="#8E8E8E"/>
<path d="M112.365 27.5364C112.483 27.4686 112.435 27.1635 112.257 26.8561C112.078 26.5487 111.839 26.3544 111.721 26.4222C111.604 26.49 111.653 26.7951 111.83 27.1024C112.008 27.4098 112.248 27.6042 112.365 27.5364Z" fill="#8E8E8E"/>
<path d="M113.861 31.0357C114.035 30.9566 113.899 30.2876 113.558 29.5395C113.216 28.7915 112.801 28.2513 112.627 28.3304C112.453 28.4095 112.588 29.0785 112.929 29.8266C113.271 30.5746 113.687 31.1148 113.861 31.0357Z" fill="#8E8E8E"/>
<path d="M19.5628 17.7024C18.5978 18.8618 17.8995 19.872 18.0034 19.9601C18.1074 20.046 18.9752 19.1782 19.9402 18.0165C20.9052 16.8571 21.6036 15.8469 21.4996 15.7588C21.3957 15.6729 20.5278 16.5407 19.5628 17.7024Z" fill="#8E8E8E"/>
<path d="M40.6189 18.6804L29.7416 11.1433L25.6261 15.0689L30.7043 19.2567L25.2284 15.5503L24.3447 16.8227L34.0808 23.1054C35.6921 20.9901 40.6189 18.6826 40.6189 18.6826V18.6804Z" fill="#8E8E8E"/>
<path d="M22.261 14.4206C21.9988 14.6624 21.8632 14.9381 21.9559 15.0375C22.0485 15.137 22.3356 15.0217 22.5955 14.7799C22.8554 14.5381 22.9932 14.2624 22.9006 14.1629C22.8079 14.0635 22.5209 14.1787 22.261 14.4206Z" fill="#8E8E8E"/>
<path d="M10.7034 26.4369C10.5293 26.3578 10.1135 26.8979 9.77224 27.646C9.43098 28.394 9.29538 29.063 9.4694 29.1421C9.64342 29.2212 10.0593 28.6811 10.4005 27.933C10.7418 27.1872 10.8774 26.516 10.7034 26.4369Z" fill="#8E8E8E"/>
<path d="M27.3727 9.5103C27.2755 9.41312 26.3331 10.2019 25.2664 11.2686C24.1997 12.3353 23.4109 13.2777 23.5081 13.3749C23.6053 13.4721 24.5477 12.6833 25.6144 11.6166C26.6811 10.5499 27.4699 9.60748 27.3727 9.5103Z" fill="#8E8E8E"/>
<path d="M102.529 13.3831C102.626 13.2859 101.837 12.3435 100.771 11.2768C99.7039 10.2101 98.7615 9.42359 98.6643 9.51851C98.5672 9.61568 99.3559 10.5581 100.423 11.6248C101.489 12.6915 102.432 13.4803 102.529 13.3831Z" fill="#8E8E8E"/>
<path d="M99.2316 45.1109L112.507 35.9918L112.01 35.0291L98.6553 44.4216L99.2316 45.1109Z" fill="#8E8E8E"/>
<path d="M100.389 40.301L110.12 33.1436L111.623 33.0283L110.276 29.9502L100.158 36.798L100.389 40.301Z" fill="#8E8E8E"/>
<path d="M96.3097 21.2549L92.6914 23.7567L95.4237 26.9862C95.4237 26.9862 94.4248 25.1014 96.3074 21.2549H96.3097Z" fill="#8E8E8E"/>
<path d="M23.92 4.2546L21.6103 2.75171L20.5752 3.40711L22.9979 5.21284L23.92 4.2546Z" fill="#8E8E8E"/>
<path d="M99.7725 34.3767L99.8493 36.1078L100.541 36.031L109.854 29.6081L109.739 28.4126L108.968 28.2205V29.3776L100.195 34.8784L99.7725 34.3767Z" fill="#8E8E8E"/>
<path d="M100.811 15.5499L95.3468 19.245L100.425 15.0572L96.3095 11.1316L85.4209 18.68C85.4209 18.68 90.3477 20.9874 91.9591 23.1028L101.695 16.82L100.811 15.5476V15.5499Z" fill="#8E8E8E"/>
<path d="M104.095 21.1414L105.094 21.0261L101.953 17.3311L98.8115 19.5255C103.544 18.7549 104.093 21.1437 104.093 21.1437L104.095 21.1414Z" fill="#8E8E8E"/>
<path d="M94.542 9.521L81.1719 18.6514L81.3708 19.1101L83.8048 18.3372L95.4618 10.4476L94.542 9.521Z" fill="#8E8E8E"/>
<path d="M8.76659 31.522C8.63551 31.4836 8.45019 31.7299 8.35301 32.0735C8.25357 32.4147 8.2807 32.7221 8.41178 32.7605C8.54286 32.7989 8.72817 32.5526 8.82535 32.209C8.92253 31.8655 8.89767 31.5604 8.76659 31.522Z" fill="#8E8E8E"/>
<path d="M19.5743 4.32788L16.0352 8.09754L18.4172 9.67954L21.9202 5.94604L19.5743 4.32788Z" fill="#8E8E8E"/>
<path d="M97.5551 8.27091C97.2884 8.03587 96.9991 7.92514 96.911 8.02684C96.8206 8.12854 96.963 8.40199 97.2296 8.63703C97.4963 8.87207 97.7856 8.98281 97.8737 8.88111C97.9641 8.77941 97.8218 8.50595 97.5551 8.27091Z" fill="#8E8E8E"/>
<path d="M26.0968 6.67887C26.3635 6.44383 26.5059 6.17037 26.4155 6.06867C26.3251 5.96697 26.0358 6.07544 25.7714 6.31274C25.507 6.55004 25.3623 6.82124 25.4527 6.92294C25.5431 7.02464 25.8324 6.91617 26.0968 6.67887Z" fill="#8E8E8E"/>
<path d="M11.1104 14.2934L13.5331 15.8483L16.1298 12.273L13.8788 10.7136L11.1104 14.2934Z" fill="#8E8E8E"/>
<path d="M14.4961 9.8302L16.842 11.4054L17.4589 10.6777L15.1085 9.1748L14.4961 9.8302Z" fill="#8E8E8E"/>
<path d="M6.08872 22.6589L4.41406 26.1235L5.39942 26.0082L6.89553 27.1608L8.28317 24.6794L6.20397 23.4115L6.08872 22.6589Z" fill="#8E8E8E"/>
<path d="M3.68164 29.2617L5.76083 30.7578L6.18345 29.7589L4.0681 28.1453L3.68164 29.2617Z" fill="#8E8E8E"/>
<path d="M100.656 20.0266C97.9804 20.0289 95.8109 22.1985 95.8086 24.8743C95.8086 27.5524 97.9782 29.722 100.656 29.722C103.334 29.722 105.504 27.5524 105.504 24.8743C105.504 22.1962 103.334 20.0266 100.656 20.0266ZM100.541 28.4903C100.523 28.4903 100.503 28.4903 100.485 28.4903C98.4076 28.5038 96.7126 26.8337 96.6945 24.7568C96.6629 22.664 98.333 20.9419 100.426 20.9103C102.519 20.8786 104.241 22.5488 104.272 24.6415C104.304 26.7343 102.634 28.4564 100.541 28.488V28.4903Z" fill="#8E8E8E"/>
<path d="M91.8781 76.4577C90.443 75.2531 85.5072 69.976 86.1987 55.0465C86.1987 55.0465 86.3705 47.8914 90.9877 43.0437V37.6355C90.9877 37.6355 73.0953 35.7304 62.8236 28.2136C62.8191 28.2136 52.5475 35.6467 34.9444 37.5519V43.1476C34.9444 43.1476 38.87 45.9161 39.5616 53.2453C40.2373 60.3756 39.6565 70.8822 34.3681 76.1797C34.1195 76.4509 34.1195 76.8667 34.3681 77.1379C36.9174 80.0849 50.2717 94.6009 65.2125 93.3646C65.2125 93.3646 77.4819 92.1194 91.9097 77.1108C92.0815 76.9323 92.077 76.6475 91.8984 76.4735C91.8916 76.4667 91.8849 76.4622 91.8781 76.4554V76.4577ZM88.861 76.9978C86.7569 79.1064 75.0412 90.3769 63.7977 91.3194C52.6537 92.2505 39.8757 79.7708 37.3942 77.2215C37.1592 76.9775 37.1434 76.5955 37.3626 76.3379C41.3876 71.6574 41.9843 61.4242 41.9843 61.4242C43.0736 47.593 36.7908 42.0561 36.7908 42.0561V39.1655C46.1585 38.7949 55.2436 35.8569 63.0542 30.6747C70.9596 37.0863 89.0237 39.0503 89.0237 39.0503V42.3227C83.889 47.7467 84.0608 57.3246 84.0608 57.3246C83.9613 70.4529 87.7039 75.2011 88.861 76.3582C89.035 76.5345 89.035 76.8193 88.861 76.9978Z" fill="#DA6800"/>
<path d="M110.005 8.09754L106.466 4.32788L104.12 5.94604L107.623 9.67954L110.005 8.09754Z" fill="#8E8E8E"/>
<path d="M6.01182 74.7939L2.43652 77.1805L3.76087 79.1806L7.3407 76.5839L6.01182 74.7939Z" fill="#8E8E8E"/>
<path d="M113.967 75.583C113.967 75.583 113.084 74.6564 113.276 73.9648C113.276 73.9648 112.469 73.9649 112.008 75.6983C112.659 75.8248 113.332 75.7841 113.965 75.583H113.967Z" fill="#8E8E8E"/>
<path d="M81.9765 47.3055C81.9765 47.3055 83.5946 38.8192 70.6064 37.1445V87.7593C70.6064 87.7593 77.531 84.645 79.3797 81.698C81.2284 78.751 82.3787 74.1971 82.2635 66.7527C82.1482 59.3083 81.9765 47.3055 81.9765 47.3055ZM77.8158 73.8513C77.7005 75.8717 76.6067 77.1441 75.7999 77.1441C74.9931 77.1441 74.8733 75.9305 74.8733 75.9305L74.9298 46.6726C75.7976 46.2636 76.1434 46.4941 76.1434 46.4941C77.8136 47.0591 77.8135 50.7655 77.8135 50.7655C77.8135 50.7655 77.9333 71.8309 77.8135 73.8513H77.8158Z" fill="#DA6800"/>
<path d="M103.567 90.5075C103.567 90.5075 102.624 89.6441 102.776 88.9368C102.776 88.9368 101.969 88.9842 101.614 90.7425C102.274 90.8306 102.945 90.7493 103.567 90.5075Z" fill="#8E8E8E"/>
<path d="M117.63 32.7601C117.761 32.7216 117.786 32.4143 117.689 32.073C117.591 31.7318 117.404 31.4854 117.275 31.5216C117.144 31.56 117.119 31.8674 117.216 32.2086C117.316 32.5499 117.501 32.7962 117.63 32.7601Z" fill="#8E8E8E"/>
<path d="M48.852 48.5336C49.1391 44.0882 52.8929 44.3617 51.9098 53.7112H56.2964V45.0532C56.2964 45.0532 55.9507 37.7241 51.6228 37.7828C47.2926 37.8393 45.5095 42.113 44.9287 48.6873C44.3479 55.2616 45.6835 59.7115 49.3153 65.5423C52.9471 71.3731 52.6081 77.4886 50.6442 77.7756C48.6803 78.0626 48.6238 70.677 48.9696 68.6566L44.4676 67.6102L44.4111 73.7551C44.4111 73.7551 44.3547 85.3556 51.7968 86.2777C59.2412 87.1998 56.701 67.8724 54.9743 63.8315C53.2477 59.7906 48.5673 52.979 48.8543 48.5359L48.852 48.5336Z" fill="#DA6800"/>
<path d="M64.7831 35.9553L63.4542 53.4974L62.1863 36.1293C61.375 35.8423 57.6279 36.5904 57.6279 36.5904L60.9727 64.8584L61.1671 89.2934C62.7355 89.5646 64.3446 89.4855 65.8792 89.0628V65.1092L69.3437 37.004C68.998 36.4186 64.7853 35.9576 64.7853 35.9576L64.7831 35.9553Z" fill="#DA6800"/>
<path d="M120.281 30.7578L122.358 29.2617L121.972 28.1453L119.856 29.7589L120.281 30.7578Z" fill="#8E8E8E"/>
<path d="M116.577 29.1267C116.751 29.0476 116.616 28.3786 116.275 27.6306C115.933 26.8848 115.517 26.3424 115.343 26.4215C115.169 26.5006 115.305 27.1695 115.646 27.9176C115.988 28.6657 116.403 29.2058 116.577 29.1267Z" fill="#8E8E8E"/>
<path d="M122.223 79.1806L123.552 77.1805L119.972 74.7939L118.647 76.5839L122.223 79.1806Z" fill="#8E8E8E"/>
<path d="M104.739 96.8226L108.315 99.2091L109.643 97.4192L106.064 94.8225L104.739 96.8226Z" fill="#8E8E8E"/>
<path d="M124.442 75.3528C124.442 75.3528 118.322 71.0814 116.066 69.6938C113.811 68.3061 112.837 70.3898 112.837 70.3898L110.988 73.1583C101.415 72.5414 92.7388 65.8292 90.0065 63.4991C89.8867 62.2946 89.8031 60.9454 89.7602 59.4221C89.7602 59.4221 90.1692 48.4295 92.1264 46.8588C92.4925 46.5808 92.94 46.4385 93.3988 46.4498C94.0903 46.5063 94.8429 45.7582 94.8429 44.6644C94.8429 43.5705 94.7276 35.9476 94.7276 35.9476C94.7321 35.8753 94.7321 35.8007 94.7276 35.7284C95.0689 35.4549 95.5028 35.3284 95.9367 35.3713C96.3141 36.0244 96.5876 36.7295 96.7481 37.4663C97.1503 38.9624 97.7944 41.6179 97.2724 42.601C96.7503 43.5841 96.1153 44.1717 96.226 44.7954C96.3367 45.4192 97.4984 47.1029 98.3617 47.5074C99.225 47.9097 100.326 46.9831 100.326 46.9831C100.326 46.9831 122.548 31.6875 123.698 30.7564C124.851 29.8253 125.086 26.2545 117.94 15.2868C110.794 4.31901 107.011 1.82398 104.931 1.01716C103.842 0.499627 102.545 0.73015 101.702 1.59347C101.702 1.59347 81.9609 14.9839 80.2908 16.1975C78.6207 17.4111 77.6737 17.9242 77.9834 18.679C78.293 19.4338 80.6954 22.3108 81.1564 21.4475C81.6174 20.5842 84.0989 21.7345 84.0989 21.7345C88.5443 24.1007 88.811 25.3098 88.811 25.3098C87.507 27.3144 82.2615 30.44 80.284 31.5926C77.1607 30.7948 74.0962 29.7823 71.113 28.5619C71.113 28.5619 66.9252 26.4262 65.7432 25.5042C64.5613 24.5821 63.7793 23.7143 63.0313 23.6555C62.2832 23.599 60.204 26.0782 57.7971 27.1743C53.8941 29.0569 49.8284 30.5756 45.6474 31.7124C43.8575 30.6976 38.255 27.4048 36.9058 25.3256C36.9058 25.3256 37.1928 24.1165 41.6178 21.7503C41.6178 21.7503 44.0993 20.5932 44.5603 21.4633C45.0214 22.3334 47.4441 19.4429 47.7379 18.6948C48.0317 17.9468 47.0983 17.4224 45.4304 16.2133C43.7603 15.0043 24.0148 1.60929 24.0148 1.60929C23.1718 0.745972 21.8746 0.515449 20.7852 1.03299C18.6902 1.8398 14.959 4.32127 7.80386 15.2868C0.648727 26.2545 0.879243 29.8298 2.0454 30.7564C3.21381 31.683 25.4182 46.9831 25.4182 46.9831C25.4182 46.9831 26.5121 47.9052 27.3822 47.5074C28.2523 47.1097 29.4026 45.4124 29.5178 44.7954C29.6331 44.1785 28.9935 43.5818 28.4715 42.601C27.9494 41.6202 28.5867 38.9376 28.9958 37.4663C29.154 36.7318 29.4275 36.0244 29.8026 35.3713C30.3631 35.3148 30.9168 35.5385 31.2784 35.9725C31.1676 37.3239 31.127 38.6935 31.127 38.6935V44.8135C31.127 44.8135 30.9755 46.3526 32.0897 46.4317C33.2039 46.5108 34.361 46.7413 35.3983 50.5087C36.282 53.7134 36.1374 61.2233 36.0741 63.4065C33.4887 65.6258 24.6928 72.5414 14.9725 73.1696L13.1239 70.4012C13.1239 70.4012 12.1408 68.3061 9.88983 69.7051C7.63888 71.104 1.5143 75.3641 1.5143 75.3641C1.5143 75.3641 0.126668 76.2862 0.126668 77.0342C0.126668 77.7823 -0.0450932 78.4219 0.0114066 79.6942C0.0679064 80.9666 1.45554 81.8887 2.7799 81.8299C2.7799 81.8299 0.684882 86.9081 5.03084 92.9061C5.03084 92.9061 7.2818 96.199 12.9973 97.0058C12.6764 98.1064 12.8685 99.2929 13.5216 100.235C14.6155 101.679 15.1398 100.235 16.4054 101.218C17.671 102.201 19.4632 100.172 19.4632 100.172L27.572 94.565C27.572 94.565 28.8376 93.4079 28.1483 92.2575C27.4567 91.1049 25.2645 88.5624 25.6103 88.1579C25.8883 87.8392 30.128 82.4831 31.8343 80.3067C36.499 84.9871 45.0937 92.0383 53.6591 95.2317C66.3534 99.9438 76.3991 95.0012 88.1149 85.4798L94.1355 80.2457C95.8102 82.3656 100.12 87.794 100.416 88.0969C100.714 88.3997 98.5674 91.0394 97.8781 92.1965C97.1865 93.3536 98.4544 94.504 98.4544 94.504L106.532 100.1C106.532 100.1 108.321 102.12 109.594 101.146C110.866 100.172 111.379 101.607 112.478 100.163C113.126 99.2183 113.318 98.0341 113.002 96.9334C118.717 96.1266 120.964 92.8338 120.964 92.8338C125.294 86.8358 123.215 81.7576 123.215 81.7576C124.544 81.8141 125.931 80.8875 125.99 79.6219C126.047 78.3541 125.843 77.7732 125.843 77.0207C125.843 76.2681 124.456 75.3505 124.456 75.3505L124.442 75.3528ZM93.401 33.9159C93.2993 33.9046 93.2044 33.8526 93.1411 33.7712C93.0055 33.6017 93.0326 33.3554 93.2021 33.2198L94.9559 31.8796C94.9762 31.866 94.9966 31.8547 95.0169 31.8457C95.2135 31.7598 95.4418 31.8502 95.5277 32.0468C95.5887 32.205 95.5412 32.3858 95.4079 32.4921L93.6745 33.8368C93.5976 33.8978 93.5005 33.9272 93.4033 33.9159H93.401ZM94.0428 34.3859C94.0293 34.2232 94.1152 34.0695 94.2621 33.9995C94.7864 33.7328 96.3141 32.9531 96.4814 33.1678C96.6486 33.3825 94.1265 35.1408 94.0428 34.3882V34.3859ZM103.905 2.12004C104.642 2.15846 105.341 2.46582 105.869 2.98336C106.739 3.84668 121.683 18.0439 122.898 29.6445L119.836 31.7395C119.836 31.7395 116.114 17.0925 100.906 4.02069L103.905 2.12004ZM99.6973 4.9925C99.6973 4.9925 115.741 16.9953 118.338 32.8107L117.181 33.6175C117.181 33.6175 112.794 17.558 98.0792 6.04113L99.6973 4.99475V4.9925ZM96.9289 6.95642C96.9289 6.95642 112.968 18.9592 115.565 34.7679L114.412 35.5792C114.412 35.5792 110.026 19.5129 95.3107 8.0028L96.9289 6.95642ZM84.1147 19.2056C83.0209 19.0903 81.1157 19.8384 81.1157 19.8384L80.1326 18.2157L94.3615 8.84578C110.893 21.5921 113.144 36.4493 113.144 36.4493C113.144 36.4493 102.14 44.0135 100.581 44.9921C99.0216 45.9706 99.0781 45.9141 99.0781 45.9141L98.5018 45.2226C97.9255 44.531 98.7323 43.835 98.7323 43.835C99.7742 43.0281 100.005 41.914 99.7154 38.411C99.4284 34.908 97.4803 29.9202 93.5389 25.4861C89.5975 21.052 85.2108 19.3186 84.117 19.2033L84.1147 19.2056ZM90.463 25.3143L91.0393 25.6172C90.5218 26.8263 86.7679 30.2343 86.7679 30.2343L91.9026 26.424L92.4835 26.9483L84.7475 32.7068C83.3079 33.0006 82.9056 31.9519 82.9056 31.9519C85.9566 30.431 88.5624 28.1438 90.4653 25.3143H90.463ZM88.2482 33.3757C87.6923 33.491 85.9657 33.1045 86.1532 32.7203C86.3408 32.3384 87.4211 32.6051 87.4211 32.6051C87.4211 32.6051 88.8042 33.2605 88.2482 33.3735V33.3757ZM43.1411 31.9519C43.1411 31.9519 42.732 32.9983 41.2924 32.7068L33.5565 26.9483L34.1373 26.424L39.272 30.2343C39.272 30.2343 35.5181 26.8263 35.0006 25.6172L35.5769 25.3143C37.4821 28.1438 40.0878 30.431 43.1411 31.9519ZM37.7962 33.3757C37.2402 33.2605 38.6188 32.6073 38.6188 32.6073C38.6188 32.6073 39.6968 32.3406 39.8912 32.7226C40.0856 33.1045 38.3522 33.491 37.7962 33.378V33.3757ZM3.14828 29.6445C4.35737 18.0439 19.3027 3.84668 20.1728 2.98336C20.6994 2.46582 21.3977 2.15846 22.1367 2.12004L25.1357 4.02069C9.92825 17.0925 6.20604 31.7395 6.20604 31.7395L3.14828 29.6445ZM7.70216 32.822C10.2876 17.0089 26.3426 4.99475 26.3426 4.99475L27.9607 6.04113C13.2459 17.558 8.85927 33.6288 8.85927 33.6288L7.70216 32.822ZM10.4752 34.7792C13.0719 18.9705 29.1156 6.95642 29.1156 6.95642L30.7269 8.0028C16.0121 19.5129 11.6255 35.5905 11.6255 35.5905L10.4729 34.7792H10.4752ZM26.3267 38.4132C26.0329 41.9162 26.2702 43.0304 27.3098 43.8372C27.3098 43.8372 28.1167 44.5333 27.5404 45.2249L26.9641 45.9164C26.9641 45.9164 27.0206 45.9729 25.4612 44.9943C23.9018 44.0158 12.8979 36.4516 12.8979 36.4516C12.8979 36.4516 15.1488 21.5899 31.6807 8.86385L45.9096 18.218L44.9265 19.8406C44.9265 19.8406 43.0258 19.0926 41.9275 19.2078C40.8291 19.3231 36.447 21.0565 32.5056 25.4906C28.5641 29.9247 26.6228 34.9125 26.329 38.4155L26.3267 38.4132ZM29.5789 33.1678C29.7461 32.9531 31.2739 33.7328 31.7982 33.9995C31.9451 34.0695 32.0332 34.2255 32.0174 34.3859C31.9134 35.1408 29.4094 33.3802 29.5789 33.1655V33.1678ZM32.9011 33.7712C32.8378 33.8526 32.7429 33.9023 32.6412 33.9159C32.544 33.9272 32.4468 33.8978 32.37 33.8368L30.6365 32.4921C30.5032 32.3858 30.4535 32.205 30.5168 32.0468C30.6026 31.8502 30.8309 31.7598 31.0275 31.8457C31.0479 31.8547 31.0682 31.866 31.0885 31.8796L32.8423 33.2198C33.0118 33.3554 33.0389 33.6017 32.9033 33.7712H32.9011ZM17.5738 99.7065L14.4324 95.3763C14.4324 95.3763 10.8255 96.0317 7.41739 92.9061C4.50427 90.1828 3.32456 86.0765 4.34381 82.2209C4.42743 81.9068 4.51557 81.5813 4.62179 81.2378L1.67928 76.9664L6.09756 74.1979L8.63553 77.6625C8.63553 77.6625 4.65117 81.1226 4.59467 85.3374C4.53817 89.5523 8.19031 94.4565 14.5657 94.3977C16.2223 94.3548 17.8427 93.9186 19.2982 93.1254L21.6056 96.8204L17.5693 99.7042L17.5738 99.7065ZM14.281 79.1066C17.7388 79.1066 20.5412 81.909 20.5412 85.3668C20.5412 88.8246 17.7388 91.627 14.281 91.627C10.8232 91.627 8.02082 88.8246 8.02082 85.3668C8.02082 81.909 10.8232 79.1066 14.281 79.1066ZM9.69547 77.8343C12.3803 76.3743 13.0154 77.0546 13.0154 77.0546C12.0052 77.3371 11.056 77.8094 10.2198 78.4422L9.69547 77.8343ZM21.9039 88.7026C21.9401 90.1264 19.5174 92.0903 19.5174 92.0903L19.1309 91.4733L21.9062 88.7048L21.9039 88.7026ZM7.78126 89.5862C7.78126 89.5862 11.169 95.2023 18.6699 91.8575L18.9795 92.4338C18.9795 92.4338 11.9012 96.7413 6.86144 89.5862C6.86144 89.5862 3.28161 83.3147 9.12821 78.2365L9.55309 78.8919C9.55309 78.8919 4.24437 82.7769 7.78352 89.5862H7.78126ZM26.112 84.5871C26.112 84.5871 23.6306 87.5861 24.0916 88.5647C24.5526 89.5433 27.4409 92.6056 26.3426 93.7627C25.2442 94.9198 22.191 96.5312 22.191 96.5312L19.9219 92.5581C20.6225 92.027 21.244 91.401 21.7683 90.7026C22.3559 89.941 22.9345 88.9263 23.2645 87.6449C23.2758 87.602 23.2871 87.559 23.2984 87.5161C23.3074 87.4799 23.3164 87.4438 23.3232 87.4076C23.4882 86.7273 23.5786 86.0177 23.5786 85.2877C23.5786 84.2413 23.3955 83.2356 23.0656 82.3C22.1593 79.4976 19.9897 77.5405 17.3885 76.641C16.3579 76.2704 15.246 76.0647 14.0821 76.0647C13.4086 76.0647 12.7532 76.1325 12.1204 76.2636C11.1848 76.4421 10.2582 76.7495 9.37455 77.2015L6.72132 73.6216C6.72132 73.6216 11.0515 70.2181 11.4334 70.6791C11.8153 71.1402 14.1454 74.4262 14.1454 74.4262C14.1454 74.4262 14.6064 74.9505 15.9941 74.8918C17.3817 74.833 26.9821 73.3889 35.1158 66.2337C33.3824 69.9243 22.417 74.1121 20.627 74.3991C18.8371 74.6861 17.5648 75.7234 19.1242 76.8218C20.6835 77.9201 23.1085 80.6321 23.5108 81.726C23.8159 82.8401 24.008 83.9814 24.0871 85.134C24.8713 85.1182 25.6013 84.7295 26.051 84.0877C26.8624 82.9938 29.8049 80.162 29.8614 79.414C29.8704 79.3078 29.8049 79.179 29.6919 79.0366C29.78 79.0479 29.8591 79.0863 29.9247 79.1586C30.4422 79.7349 26.1143 84.5871 26.1143 84.5871H26.112ZM30.2004 74.051C28.7043 73.9787 28.0647 75.0251 28.1799 76.0715C28.2839 76.6184 28.5596 77.1156 28.9642 77.4953C29.2331 77.7823 29.267 78.2162 29.0478 78.5416C28.8941 78.7812 28.6975 78.9914 28.467 79.1586C28.2568 79.2829 28.0285 79.3756 27.7912 79.4298C27.3731 79.5451 26.9234 79.4908 26.546 79.2784C24.6815 78.2252 23.0656 75.8025 25.4679 75.1788C28.1325 74.4827 33.9791 69.8859 33.9791 69.8859C34.2887 71.9854 31.6965 74.1211 30.2004 74.0465V74.051ZM94.9333 76.5483C91.645 80.4807 76.8059 94.1627 63.6234 95.0893C51.2115 95.9639 34.4808 80.1123 31.0275 76.6884C30.9823 76.6387 30.9462 76.5777 30.9236 76.5144C30.8264 76.241 30.9688 75.9426 31.2422 75.8455C36.3882 74.3268 37.9996 67.3276 37.9996 57.5757C37.9996 50.8545 36.3724 47.4577 35.2402 45.9187C34.7339 45.2181 33.9226 44.8045 33.057 44.8045V36.5397C33.057 36.0561 33.4231 35.6515 33.9045 35.6018C53.241 33.5859 60.3238 28.3518 62.2968 26.4669C62.6742 26.1053 63.264 26.0782 63.6731 26.4036C72.9345 33.8368 87.9522 35.4594 91.8303 35.7577C92.3592 35.7984 92.7682 36.2414 92.7682 36.7725V44.7073C88.2663 45.2248 86.5329 57.978 88.7274 67.1535C90.4088 74.1776 93.401 75.624 94.7163 75.9155C94.7728 75.9291 94.8271 75.9562 94.8723 75.9924C95.0418 76.128 95.0666 76.3766 94.931 76.5438L94.9333 76.5483ZM92.0021 69.8881C92.0021 69.8881 97.8487 74.485 100.504 75.181C102.907 75.8048 101.295 78.2275 99.4261 79.2807C99.0465 79.4931 98.599 79.5496 98.1809 79.4321C97.9436 79.3756 97.7153 79.2829 97.5052 79.1609C97.2746 78.9936 97.078 78.7835 96.9243 78.5439C96.7051 78.2185 96.739 77.7845 97.008 77.4975C97.417 77.1201 97.6927 76.6207 97.7922 76.0737C97.9074 75.0274 97.2679 73.9787 95.7717 74.0533C94.2756 74.1279 91.6947 71.9899 92.0021 69.8927V69.8881ZM99.6341 93.7649C98.5357 92.6078 101.424 89.5455 101.885 88.567C102.346 87.5884 99.8646 84.5894 99.8646 84.5894C99.8646 84.5894 95.5344 79.7372 96.0542 79.1609C96.5718 78.5846 98.0182 80.144 98.477 80.605C98.938 81.066 100.665 84.4221 101.304 84.1283C101.944 83.8345 101.483 83.1452 102.231 80.9508C102.979 78.7563 105.519 76.6207 106.272 76.2771C107.027 75.9314 106.796 75.4703 106.796 75.4703C98.886 73.7957 91.2699 67.9694 91.2699 67.9694L90.8676 66.236C99.0013 73.3911 108.597 74.8375 109.985 74.894C111.372 74.9505 111.834 74.4285 111.834 74.4285C111.834 74.4285 114.164 71.1402 114.545 70.6814C114.927 70.2204 119.258 73.6239 119.258 73.6239L116.604 77.2037C111.065 74.372 103.853 77.0839 102.638 83.3758C101.424 89.6676 106.098 92.4948 106.098 92.4948L103.79 96.5357C103.79 96.5357 100.739 94.9243 99.6386 93.7672L99.6341 93.7649ZM105.44 85.3668C105.44 81.909 108.242 79.1066 111.7 79.1066C115.158 79.1066 117.96 81.909 117.96 85.3668C117.96 88.8246 115.158 91.627 111.7 91.627C108.242 91.627 105.44 88.8246 105.44 85.3668ZM106.852 91.471L106.466 92.088C106.466 92.088 104.043 90.1241 104.084 88.7003L106.852 91.4688V91.471ZM112.964 77.0546C112.964 77.0546 113.608 76.3743 116.288 77.8343L115.764 78.4422C114.925 77.8094 113.974 77.3393 112.964 77.0546ZM107.314 91.8598C114.814 95.2046 118.202 89.5885 118.202 89.5885C121.741 82.7791 116.433 78.8942 116.433 78.8942L116.857 78.2388C122.704 83.317 119.124 89.5885 119.124 89.5885C114.089 96.7436 107.006 92.4361 107.006 92.4361L107.316 91.8598H107.314ZM121.359 81.2378C121.463 81.5836 121.554 81.9068 121.637 82.2209C122.659 86.0765 121.477 90.1806 118.564 92.9061C115.156 96.0317 111.549 95.3763 111.549 95.3763L108.407 99.7065L104.371 96.8227L106.678 93.1276C108.138 93.9231 109.768 94.3593 111.431 94.4C117.834 94.4565 121.472 89.5523 121.414 85.3397C121.355 81.1271 117.373 77.6648 117.373 77.6648L119.911 74.2002L124.297 76.9687L121.355 81.2401L121.359 81.2378Z" fill="white"/>
<path d="M99.7246 93.2396L103.56 95.7798L104.776 93.8475L100.997 91.1084L99.7246 93.2396Z" fill="#8E8E8E"/>
<path d="M109.198 11.4054L111.544 9.8302L110.932 9.1748L108.586 10.6777L109.198 11.4054Z" fill="#8E8E8E"/>
<path d="M104.43 2.75171L102.122 4.2546L103.042 5.21284L105.467 3.40711L104.43 2.75171Z" fill="#8E8E8E"/>
<path d="M112.507 15.8483L114.93 14.2934L112.161 10.7136L109.91 12.273L112.507 15.8483Z" fill="#8E8E8E"/>
<path d="M120.647 26.0082L121.626 26.1235L119.951 22.6589L119.836 23.4115L117.757 24.6794L119.144 27.1608L120.647 26.0082Z" fill="#8E8E8E"/>
<path d="M118.397 73.6991L114.815 71.3103L113.49 73.1002L117.068 75.697L118.397 73.6991Z" fill="#8E8E8E"/>
<path d="M105.535 11.5884C105.632 11.4912 104.843 10.5488 103.777 9.4821C102.71 8.41538 101.767 7.62891 101.67 7.72383C101.573 7.82101 102.362 8.76342 103.428 9.83013C104.495 10.8968 105.438 11.6833 105.535 11.5884Z" fill="#8E8E8E"/>
<path d="M100.265 6.30559C99.9983 6.07055 99.7091 5.9598 99.6209 6.0615C99.5305 6.1632 99.6729 6.43667 99.9396 6.6717C100.206 6.90674 100.496 7.01748 100.584 6.91578C100.672 6.81408 100.532 6.54063 100.265 6.30559Z" fill="#8E8E8E"/>
<path d="M106.285 12.8252C106.547 13.0671 106.832 13.1823 106.925 13.0829C107.017 12.9835 106.88 12.7055 106.62 12.4659C106.36 12.2264 106.073 12.1088 105.98 12.2105C105.887 12.31 106.025 12.588 106.285 12.8275V12.8252Z" fill="#8E8E8E"/>
<path d="M23.208 88.9368C23.3594 89.6441 22.417 90.5075 22.417 90.5075C23.0385 90.7493 23.7097 90.8306 24.3696 90.7425C24.0125 88.9842 23.208 88.9368 23.208 88.9368Z" fill="#8E8E8E"/>
<path d="M114.761 34.4337C114.892 34.3952 114.917 34.0879 114.82 33.7466C114.72 33.4054 114.535 33.159 114.406 33.1952C114.275 33.2336 114.25 33.541 114.347 33.8822C114.444 34.2235 114.632 34.4698 114.761 34.4337Z" fill="#8E8E8E"/>
<path d="M110.69 17.8788C110.794 17.7929 110.096 16.7804 109.131 15.6211C108.166 14.4617 107.298 13.5916 107.194 13.6775C107.09 13.7634 107.788 14.7758 108.753 15.9352C109.718 17.0946 110.586 17.9647 110.69 17.8788Z" fill="#8E8E8E"/>
<path d="M17.6687 99.2091L21.2485 96.8226L19.9197 94.8225L16.3398 97.4192L17.6687 99.2091Z" fill="#8E8E8E"/>
<path d="M22.4216 95.7798L26.2591 93.2396L24.9867 91.1084L21.208 93.8475L22.4216 95.7798Z" fill="#8E8E8E"/>
<path d="M12.7062 73.9666C12.9006 74.6581 12.0146 75.5847 12.0146 75.5847C12.6474 75.7859 13.3209 75.8265 13.9718 75.7C13.5108 73.9665 12.7062 73.9666 12.7062 73.9666Z" fill="#8E8E8E"/>
<path d="M11.1667 71.3103L7.58691 73.6991L8.91579 75.697L12.4979 73.1002L11.1667 71.3103Z" fill="#8E8E8E"/>
<path d="M13.5332 35.9918L26.8084 45.1109L27.3847 44.4216L14.0372 35.0291L13.5332 35.9918Z" fill="#8E8E8E"/>
<path d="M25.3961 20.0266H25.3848C22.7067 20.0266 20.5371 22.1962 20.5371 24.8743C20.5371 27.5524 22.7067 29.722 25.3848 29.722C28.0629 29.722 30.2325 27.5524 30.2325 24.8743C30.2347 22.2007 28.0697 20.0289 25.3961 20.0266ZM25.5633 28.4903H25.5588C23.4977 28.4586 21.8524 26.7614 21.8841 24.7003C21.9157 22.6392 23.613 20.9939 25.6741 21.0255C27.7126 21.0572 29.3488 22.7183 29.3488 24.7568C29.3353 26.8314 27.6403 28.5038 25.5633 28.4903Z" fill="#8E8E8E"/>
<path d="M27.2291 19.5221L24.0877 17.3276L20.9463 21.0227L21.9452 21.138C21.9452 21.138 22.4944 18.7514 27.2268 19.5198L27.2291 19.5221Z" fill="#8E8E8E"/>
<path d="M25.6511 40.301L25.8816 36.798L15.7636 29.9502L14.4189 33.0283L15.9196 33.1436L25.6511 40.301Z" fill="#8E8E8E"/>
<path d="M17.0721 29.3776V28.2205L16.3037 28.4126L16.1885 29.6081L25.4996 36.031L26.1912 36.1078L26.2703 34.3767L25.8454 34.8784L17.0721 29.3776Z" fill="#8E8E8E"/>
<path d="M44.6692 19.1101L44.8681 18.6514L31.5002 9.521L30.5781 10.4476L42.2352 18.3372L44.6692 19.1101Z" fill="#8E8E8E"/>
<path d="M33.3468 23.7567L29.7285 21.2549C31.6133 25.1014 30.6122 26.9862 30.6122 26.9862L33.3445 23.7567H33.3468Z" fill="#8E8E8E"/>
</svg>
