<svg width="505" height="1045" viewBox="0 0 505 1045" fill="none" xmlns="http://www.w3.org/2000/svg">
<path d="M-573.876 469.028C-572.836 470.92 -571.099 471.594 -569.559 470.912L-531.353 584.022C-531.441 584.102 -531.537 584.187 -531.621 584.279C-533.339 586.114 -533.669 589.551 -532.354 591.946C-531.473 593.55 -530.094 594.28 -528.755 594.042L-504.651 724.108C-504.969 724.296 -505.286 724.525 -505.568 724.834C-507.286 726.668 -507.616 730.105 -506.301 732.501C-504.987 734.896 -502.524 735.354 -500.806 733.519C-500.338 733.017 -499.975 732.406 -499.717 731.716L-435.484 764.983C-435.739 766.521 -435.518 768.189 -434.775 769.535C-433.461 771.93 -430.998 772.388 -429.28 770.553C-428.919 770.17 -428.63 769.717 -428.393 769.223L-386.166 798.005C-386.565 799.671 -386.393 801.58 -385.565 803.073C-384.958 804.173 -384.11 804.862 -383.204 805.106L-387.517 896.982C-388.266 897.056 -389.011 897.411 -389.646 898.097C-391.364 899.932 -391.694 903.368 -390.38 905.764C-389.286 907.766 -387.384 908.414 -385.784 907.497L-361.404 967.48C-361.404 967.48 -361.422 967.49 -361.43 967.495C-363.148 969.33 -363.478 972.767 -362.164 975.162C-360.849 977.558 -358.386 978.016 -356.668 976.181C-355.739 975.194 -355.224 973.743 -355.138 972.249L-293.785 967.618C-293.68 968.434 -293.436 969.238 -293.049 969.945C-291.735 972.34 -289.272 972.798 -287.554 970.963C-285.835 969.128 -285.506 965.692 -286.82 963.296C-286.87 963.198 -286.925 963.117 -286.98 963.036L-204.155 833.018L-203.815 833.27L-203.771 832.409L-202.421 830.296L-203.696 831.048L-198.598 728.926C-197.845 728.864 -197.095 728.492 -196.448 727.813C-195.127 726.411 -194.624 724.047 -195.068 721.945L-141.702 689.466C-141.63 689.636 -141.546 689.813 -141.457 689.972C-140.143 692.368 -137.68 692.826 -135.961 690.991C-134.397 689.318 -133.983 686.327 -134.915 683.989L22.5458 662.644C22.6671 663.38 22.8939 664.095 23.25 664.735C24.5643 667.13 27.0276 667.588 28.7458 665.753C30.464 663.918 30.7937 660.482 29.4793 658.086C28.977 657.165 28.3103 656.539 27.5799 656.206L51.743 476.692C52.6487 476.767 53.5658 476.41 54.3411 475.584C55.0547 474.823 55.525 473.795 55.7441 472.675L110.65 483.189C110.642 484.368 110.897 485.548 111.455 486.55C112.769 488.946 115.232 489.404 116.951 487.569C118.157 486.291 118.671 484.232 118.434 482.277L166.619 461.349C166.728 461.709 166.884 462.056 167.065 462.388C168.38 464.783 170.843 465.241 172.561 463.406C174.279 461.571 174.609 458.135 173.295 455.739C173.198 455.555 173.089 455.394 172.979 455.232L229.015 355.517C230.355 356.623 232.088 356.549 233.393 355.156C235.111 353.321 235.44 349.885 234.126 347.489C233.268 345.929 231.927 345.19 230.624 345.379L218.813 274.64C219.232 274.449 219.635 274.169 220.005 273.781C221.595 272.092 221.99 269.042 221.017 266.699L267.108 225.885C267.158 225.983 267.195 226.074 267.245 226.172C268.56 228.568 271.023 229.025 272.741 227.19C274.459 225.355 274.789 221.919 273.475 219.523C272.16 217.128 269.697 216.67 267.979 218.505C267.878 218.607 267.784 218.733 267.687 218.847L247.114 189.902C248.178 187.986 248.241 185.244 247.135 183.235C245.821 180.84 243.358 180.382 241.639 182.217C240.534 183.393 240.01 185.217 240.116 187.009L175.176 206.511C175.046 205.98 174.855 205.483 174.591 205.016C173.277 202.62 170.814 202.163 169.095 203.997C167.831 205.352 167.314 207.568 167.665 209.598L157.577 216.443L101.588 254.405C100.261 252.102 97.85 251.684 96.154 253.492C94.4358 255.327 94.1061 258.763 95.4205 261.159C95.8033 261.853 96.2777 262.38 96.814 262.743L75.6436 344.746C74.5767 344.441 73.4265 344.766 72.4885 345.758C72.4885 345.758 72.4885 345.758 72.4799 345.763L46.9742 310.116L-14.8305 395.511C-16.2036 394.027 -18.1686 393.941 -19.6218 395.478C-20.3834 396.281 -20.8664 397.401 -21.06 398.606L-70.4708 391.957C-70.4998 390.856 -70.751 389.758 -71.2692 388.818C-72.5835 386.422 -75.0468 385.964 -76.765 387.799C-77.5625 388.652 -78.0617 389.853 -78.2298 391.141L-159.161 384.828C-159.218 383.8 -159.473 382.79 -159.953 381.911C-161.267 379.516 -163.73 379.058 -165.448 380.893C-167.167 382.728 -167.496 386.164 -166.182 388.56C-165.664 389.5 -164.973 390.14 -164.216 390.458L-173.226 464.28C-174.103 464.232 -175.008 464.596 -175.761 465.394C-177.264 467.003 -177.708 469.827 -176.912 472.119L-284.276 570.252L-283.997 570.837C-284.82 569.327 -286.098 568.594 -287.364 568.704L-297.003 499.571C-296.601 499.391 -296.22 499.109 -295.858 498.726C-294.14 496.891 -293.811 493.455 -295.125 491.059C-296.439 488.663 -298.903 488.206 -300.621 490.04C-301.634 491.12 -302.162 492.762 -302.162 494.404L-410.354 514.553C-410.49 513.939 -410.697 513.354 -410.995 512.808C-411.969 511.032 -413.566 510.318 -415.03 510.814L-430.547 450.161C-430.408 450.05 -430.272 449.928 -430.135 449.777C-428.417 447.942 -428.088 444.505 -429.402 442.109C-430.716 439.714 -433.18 439.256 -434.898 441.091C-435.819 442.073 -436.337 443.512 -436.423 445.006L-566.92 464.343C-567.046 463.625 -567.269 462.921 -567.613 462.289C-568.928 459.893 -571.391 459.435 -573.109 461.27C-574.827 463.105 -575.157 466.542 -573.843 468.937L-573.876 469.028ZM-568.648 470.303C-568.56 470.223 -568.464 470.138 -568.38 470.046C-567.768 469.388 -567.335 468.538 -567.091 467.601L-469.449 499.023L-526.949 584.184C-527.958 583.166 -529.261 582.887 -530.45 583.419L-568.656 470.308L-568.648 470.303ZM-418.022 515.581C-418.082 516.253 -418.047 516.94 -417.927 517.606L-525.907 585.75C-525.975 585.592 -526.048 585.451 -526.125 585.298C-526.152 585.243 -526.183 585.205 -526.207 585.162L-468.298 499.405L-418.019 515.593L-418.022 515.581ZM-299.038 499.824L-305.653 633.038C-306.406 633.1 -307.156 633.471 -307.803 634.151C-307.918 634.275 -308.029 634.411 -308.131 634.542L-341.975 596.468L-299.851 499.454C-299.59 499.611 -299.319 499.735 -299.042 499.812L-299.038 499.824ZM233.388 218.188L218.699 264.273C217.539 263.797 216.24 264.067 215.202 265.162L215.184 265.172L174.847 211.123C175.04 210.655 175.176 210.164 175.266 209.658L233.385 218.176L233.388 218.188ZM128.04 457.015L180.755 349.449C180.977 349.615 181.215 349.729 181.449 349.832L170.231 453.668C169.373 453.65 168.506 454.006 167.77 454.794C166.933 455.684 166.427 456.96 166.277 458.309L128.032 457.02L128.04 457.015ZM-292.322 962.324C-292.697 962.729 -293.003 963.193 -293.241 963.715L-331.691 938.353L-288.716 884.201L-290.328 961.232C-291.028 961.334 -291.715 961.682 -292.314 962.319L-292.322 962.324ZM-412.675 521.303L-364.6 637.437C-364.899 637.756 -365.155 638.119 -365.357 638.522L-436.016 583.336L-415.451 521.355C-414.563 521.807 -413.573 521.79 -412.679 521.291L-412.675 521.303ZM-171.024 474.165C-170.856 473.981 -170.71 473.796 -170.57 473.586L-164.612 479.683L-165.406 554.222L-172.429 475.122C-171.935 474.944 -171.46 474.635 -171.033 474.17L-171.024 474.165ZM-162.077 390.583L-124.643 516.933C-124.79 517.048 -124.934 517.176 -125.071 517.327C-125.239 517.511 -125.386 517.697 -125.525 517.907L-163.595 478.984L-162.65 390.737C-162.456 390.708 -162.265 390.666 -162.077 390.583ZM-73.2744 397.448L-46.9598 479.138C-47.0731 479.233 -47.1828 479.34 -47.2801 479.454C-47.5489 479.74 -47.7771 480.059 -47.9737 480.416L-92.798 443.058L-75.7501 397.351C-74.9598 397.748 -74.0945 397.79 -73.2744 397.448ZM58.3812 434.424L52.449 465.884C51.4602 465.703 50.4178 466.049 49.5674 466.962C49.4047 467.129 49.2665 467.309 49.1356 467.514L-13.7204 402.26C-13.6869 402.169 -13.6571 402.067 -13.6272 401.964L58.3812 434.424ZM76.005 355.391L97.2392 419.268L108.289 452.501C108.193 452.587 108.097 452.671 108.005 452.769C107.489 453.313 107.101 454.009 106.844 454.77L59.5976 433.48L74.2832 355.572C74.856 355.687 75.4456 355.622 76.0136 355.386L76.005 355.391ZM102.426 258.214L175.719 265.552L181.603 339.279C181.097 339.45 180.596 339.774 180.159 340.244C180.005 340.406 179.867 340.586 179.733 340.779L102.19 259.812C102.327 259.292 102.41 258.762 102.426 258.214ZM173.842 212.763C173.987 212.607 174.112 212.448 174.241 212.273L214.492 266.203C214.195 266.732 213.983 267.339 213.846 267.958L176.63 264.236L172.59 213.658C173.03 213.469 173.462 213.186 173.845 212.775L173.842 212.763ZM182.603 339.128L176.736 265.659L213.672 269.363C213.645 270.582 213.907 271.815 214.475 272.853C214.561 273.001 214.65 273.16 214.74 273.291L184.2 339.643C183.696 339.318 183.152 339.13 182.599 339.116L182.603 339.128ZM179.417 347.916C179.464 348.002 179.519 348.083 179.565 348.169L156.283 384.487L112.594 452.637C111.992 452.058 111.286 451.738 110.572 451.693L104.631 349.288L178.66 345.517C178.768 346.374 179.01 347.208 179.412 347.933L179.417 347.916ZM106.538 456.139C106.487 456.538 106.463 456.963 106.474 457.367L55.6964 469.702C55.5648 469.1 55.3608 468.527 55.0706 468.004C54.6341 467.2 54.0617 466.618 53.4284 466.269L59.3407 434.877L106.533 456.156L106.538 456.139ZM-137.299 681.446L-126.475 575.138L-97.3967 582.458C-97.4592 583.727 -97.2051 585.035 -96.6015 586.123C-96.4162 586.467 -96.2074 586.754 -95.9763 587.014L-136.775 681.702C-136.946 681.605 -137.126 681.513 -137.299 681.446ZM-158.643 590.763L-163.297 569.329C-163.068 569.18 -162.845 568.977 -162.629 568.751C-162.03 568.114 -161.602 567.281 -161.355 566.357L-127.477 574.879L-138.304 681.246C-138.538 681.242 -138.766 681.263 -138.994 681.313L-158.646 590.751L-158.643 590.763ZM-384.144 899.168C-384.662 898.228 -385.35 897.601 -386.101 897.265L-374.862 806.838L-289.243 877.234C-289.465 877.975 -289.572 878.76 -289.555 879.556L-383.5 900.926C-383.635 900.312 -383.838 899.71 -384.136 899.163L-384.144 899.168ZM-428.535 762.922C-428.86 762.321 -429.269 761.84 -429.71 761.491L-409.891 694.231C-409.285 694.454 -408.641 694.47 -408.017 694.286L-395.229 748.14L-428.129 763.829C-428.244 763.515 -428.377 763.211 -428.532 762.934L-428.535 762.922ZM-460.777 567.31C-460.477 566.992 -460.222 566.629 -460.01 566.221L-437.313 583.946L-450.02 622.235C-450.578 621.998 -451.178 621.928 -451.762 622.045L-461.694 568.035C-461.375 567.847 -461.059 567.618 -460.768 567.305L-460.777 567.31ZM-304.328 643.78L-288.011 705.702C-288.059 705.744 -288.098 705.782 -288.146 705.824C-288.375 706.073 -288.585 706.352 -288.767 706.658L-326.481 672.933L-307.609 643.069C-306.646 643.972 -305.439 644.237 -304.328 643.78ZM-14.8893 404.266C-14.66 404.017 -14.4589 403.743 -14.2822 403.455L48.5176 468.657C48.2102 469.419 48.0413 470.269 48.0184 471.132L-15.417 479.313L-16.4779 405.288C-15.9176 405.128 -15.3786 404.795 -14.8943 404.283L-14.8893 404.266ZM-15.085 572.483C-15.2754 572.525 -15.4585 572.59 -15.6381 572.668L-31.741 522.851L-42.8553 488.467C-42.742 488.371 -42.641 488.269 -42.5314 488.162C-41.5663 487.125 -41.0351 485.595 -40.996 484.014L-16.4049 480.844L-15.0936 572.488L-15.085 572.483ZM-126.339 573.741L-121.569 526.912C-121.129 526.723 -120.697 526.44 -120.314 526.03C-120.09 525.798 -119.897 525.529 -119.725 525.258L-95.9741 578.575C-96.5622 579.248 -96.9791 580.116 -97.2074 581.072L-126.339 573.741ZM-95.123 577.832L-119.129 523.943C-118.959 523.432 -118.858 522.892 -118.816 522.329L-75.8753 545.523L-91.7952 577.893C-92.831 577.188 -94.061 577.149 -95.1316 577.837L-95.123 577.832ZM-118.83 520.808C-118.873 520.465 -118.936 520.121 -119.026 519.791L-48.4338 486.237C-48.3184 486.551 -48.1857 486.855 -48.0272 487.144C-47.8724 487.42 -47.7039 487.675 -47.5255 487.895L-75.2717 544.331L-118.817 520.815L-118.83 520.808ZM-46.6986 488.681C-45.8061 489.316 -44.7484 489.456 -43.7782 489.039L-32.4516 524.091L-16.5695 573.246C-16.6829 573.341 -16.7838 573.443 -16.8935 573.55C-17.3471 574.03 -17.6967 574.619 -17.9534 575.28L-74.3149 544.843L-46.6986 488.681ZM-125.6 525.369C-124.818 526.578 -123.719 527.189 -122.615 527.147L-127.338 573.495L-161.125 565.003C-161.056 564.057 -161.155 563.096 -161.44 562.188L-125.6 525.369ZM-383.191 794.423L-393.97 749.011L-369.992 737.581C-369.877 737.896 -369.744 738.2 -369.589 738.476C-369.21 739.159 -368.736 739.686 -368.22 740.047L-381.657 794.425C-382.158 794.281 -382.677 794.276 -383.194 794.411L-383.191 794.423ZM-406.509 693.297C-406.333 693.108 -406.172 692.901 -406.028 692.674L-369.845 732.37C-370.343 733.541 -370.511 734.929 -370.321 736.261L-394.299 747.69L-407.098 693.8C-406.898 693.654 -406.703 693.496 -406.53 693.295L-406.509 693.297ZM-405.439 691.534C-404.906 690.143 -404.825 688.467 -405.238 686.969L-377.269 722.437L-405.436 691.546L-405.439 691.534ZM-284.9 715.504L-265.397 787.707C-265.579 787.843 -265.767 787.996 -265.934 788.18C-266.37 788.65 -266.724 789.226 -266.979 789.858L-285.189 779.707L-285.26 715.589C-285.137 715.559 -285.023 715.534 -284.9 715.504ZM-288.888 713.496C-288.227 714.706 -287.271 715.416 -286.27 715.604L-286.199 779.156L-362.679 736.523C-362.568 735.919 -362.531 735.303 -362.569 734.674L-289.454 712.032C-289.318 712.547 -289.131 713.031 -288.88 713.491L-288.888 713.496ZM-363.054 737.834L-286.197 780.67L-286.096 873.948C-286.611 874.025 -287.111 874.25 -287.577 874.623L-363.685 738.999C-363.438 738.641 -363.22 738.257 -363.054 737.834ZM-284.785 874.052C-284.885 874.026 -284.984 874 -285.083 873.973L-285.184 781.233L-267.353 791.169C-267.639 792.739 -267.433 794.458 -266.676 795.852C-266.309 796.527 -265.839 797.042 -265.332 797.409L-270.77 818.837L-284.785 874.052ZM-264.457 787.224L-283.934 715.005C-283.752 714.869 -283.565 714.716 -283.397 714.532C-282.591 713.674 -282.096 712.462 -281.924 711.185L-259.804 714.669L-263.768 787.086C-263.995 787.107 -264.228 787.145 -264.457 787.224ZM-281.863 709.776C-281.917 708.76 -282.176 707.738 -282.652 706.872C-282.919 706.392 -283.235 705.985 -283.576 705.662L-255.535 627.576C-255.371 627.649 -255.21 627.71 -255.041 627.765L-259.723 713.262L-281.863 709.776ZM-257.369 625.742C-257.102 626.221 -256.798 626.622 -256.457 626.945L-284.687 704.944C-284.897 704.856 -285.116 704.801 -285.341 704.764L-286.204 632.831L-257.951 624.258C-257.815 624.773 -257.629 625.286 -257.369 625.742ZM-289.316 707.86C-289.617 708.745 -289.737 709.722 -289.672 710.674L-362.787 733.316C-362.923 732.802 -363.11 732.317 -363.361 731.857C-363.411 731.759 -363.47 731.666 -363.528 731.573L-327.163 674.001L-289.32 707.848L-289.316 707.86ZM-364.286 730.647C-364.728 730.228 -365.218 729.951 -365.727 729.812L-361.971 647.255C-361.231 647.186 -360.489 646.819 -359.851 646.145C-359.622 645.897 -359.412 645.617 -359.23 645.312L-328.015 673.23L-364.281 730.63L-364.286 730.647ZM-366.03 640.49L-447.277 627.568C-447.264 626.371 -447.519 625.162 -448.08 624.148C-448.374 623.614 -448.73 623.173 -449.117 622.835L-436.449 584.654L-365.859 639.781C-365.929 640.02 -365.981 640.249 -366.027 640.502L-366.03 640.49ZM-447.434 628.963L-366.145 641.888C-366.138 643.017 -365.876 644.151 -365.347 645.127C-364.739 646.227 -363.888 646.927 -362.981 647.171L-366.737 729.729C-367.477 729.797 -368.219 730.164 -368.857 730.838C-368.91 730.898 -368.963 730.957 -369.008 731.012L-448.069 630.753C-447.776 630.212 -447.564 629.606 -447.434 628.963ZM-407.82 683.708C-408.906 683.273 -410.106 683.499 -411.097 684.452L-439.775 643.188L-407.82 683.708ZM-427.826 765.165L-394.934 749.481L-384.162 794.869C-384.4 795.023 -384.622 795.226 -384.838 795.452C-385.199 795.835 -385.488 796.289 -385.725 796.782L-427.952 768C-427.73 767.09 -427.689 766.118 -427.826 765.165ZM-379.33 796.478C-379.709 795.795 -380.184 795.268 -380.699 794.907L-368.04 743.692L-375.61 804.603L-378.84 801.95C-378.307 800.192 -378.441 798.105 -379.33 796.478ZM-366.639 740.643C-365.895 740.685 -365.147 740.442 -364.475 739.876L-288.538 875.205L-288.545 875.718C-288.616 875.817 -288.675 875.923 -288.731 876.041L-374.678 805.37L-366.63 740.638L-366.639 740.643ZM-260.775 788.689C-261.326 787.91 -262.019 787.399 -262.763 787.187L-258.806 714.816L-202.77 723.63C-202.758 724.543 -202.586 725.446 -202.246 726.265L-260.779 788.677L-260.775 788.689ZM-202.652 722.243L-258.721 713.421L-254.041 627.883C-253.435 627.837 -252.838 627.598 -252.294 627.15L-201.613 719.676C-202.136 720.396 -202.491 721.299 -202.661 722.248L-202.652 722.243ZM-90.3772 579.491C-90.5429 579.179 -90.7359 578.91 -90.9338 578.659L-74.894 546.048L-18.3033 576.605C-18.3534 576.875 -18.379 577.159 -18.396 577.438L-89.632 581.784C-89.7456 580.973 -89.982 580.193 -90.3649 579.498L-90.3772 579.491ZM-14.0832 572.472L-15.3941 480.729L48.1211 472.544C48.2374 473.296 48.4765 474.019 48.8276 474.675C48.8898 474.78 48.952 474.885 49.0106 474.978L-12.3397 573.369C-12.8657 572.872 -13.46 572.586 -14.0796 572.484L-14.0832 572.472ZM-17.4801 405.398L-16.4205 479.452L-41.0914 482.626C-41.2077 481.874 -41.4468 481.151 -41.7942 480.507C-42.0881 479.973 -42.4412 479.544 -42.8193 479.201L-18.3129 405.196C-18.0371 405.302 -17.7549 405.362 -17.4715 405.393L-17.4801 405.398ZM-48.5124 481.654C-48.8317 482.677 -48.9133 483.816 -48.7542 484.911L-95.7131 507.239L-119.505 518.545C-119.505 518.545 -119.559 518.435 -119.585 518.38C-119.836 517.919 -120.137 517.53 -120.457 517.21L-93.2803 444.348L-48.5124 481.654ZM-126.136 519.074C-126.757 520.644 -126.796 522.592 -126.176 524.237L-161.968 561.013C-162.612 559.892 -163.503 559.229 -164.454 559.04L-163.618 480.753L-126.132 519.086L-126.136 519.074ZM-168.651 566.499L-229.045 605.404L-250.933 619.509C-250.994 619.375 -251.058 619.229 -251.137 619.105C-252.435 616.728 -254.872 616.255 -256.584 618.044L-284.299 578.052C-283.711 577.181 -283.35 576.09 -283.257 574.959L-168.818 565.848C-168.778 566.079 -168.721 566.3 -168.656 566.516L-168.651 566.499ZM-285.086 578.941L-257.316 619.014C-257.945 620.121 -258.244 621.515 -258.155 622.878L-286.214 631.393L-286.836 579.732C-286.225 579.67 -285.627 579.401 -285.077 578.935L-285.086 578.941ZM-286.347 704.791C-286.614 704.85 -286.873 704.932 -287.127 705.067L-303.415 643.241C-303.293 643.141 -303.167 643.024 -303.052 642.899C-301.823 641.594 -301.307 639.477 -301.593 637.494L-287.22 633.133L-286.36 704.784L-286.347 704.791ZM-308.539 641.876C-308.489 641.974 -308.431 642.067 -308.372 642.16L-327.344 672.197L-358.683 644.168C-358.485 643.584 -358.368 642.963 -358.322 642.312L-309.28 639.496C-309.177 640.341 -308.929 641.158 -308.536 641.888L-308.539 641.876ZM-436.912 582.69L-459.541 565.023C-459.126 563.575 -459.159 561.924 -459.684 560.493L-417.153 519.725C-416.92 520.126 -416.655 520.465 -416.366 520.748L-436.916 582.678L-436.912 582.69ZM-460.256 559.343C-461.604 557.237 -463.918 556.904 -465.553 558.647C-466.72 559.887 -467.247 561.869 -467.057 563.767L-523.04 585.53L-419.244 520.025L-460.268 559.337L-460.256 559.343ZM-525.356 587.902L-466.776 565.131C-466.649 565.551 -466.487 565.951 -466.283 566.326C-465.896 567.032 -465.413 567.554 -464.885 567.922L-476.069 614.388L-525.408 589.844C-525.307 589.204 -525.29 588.557 -525.356 587.902ZM-463.929 568.363C-463.52 568.475 -463.106 568.5 -462.692 568.426L-452.746 622.484C-453.039 622.657 -453.317 622.878 -453.568 623.154C-454.053 623.666 -454.417 624.306 -454.68 625.013L-475.106 614.853L-463.917 568.37L-463.929 568.363ZM-455.03 626.338C-455.263 627.848 -455.041 629.487 -454.314 630.814C-454.179 631.06 -454.026 631.295 -453.864 631.497L-501.339 724.419C-501.339 724.419 -501.428 724.359 -501.468 724.326L-475.444 616.185L-455.03 626.338ZM-500.071 725.922C-500.207 725.677 -500.359 725.441 -500.522 725.24L-453.047 632.317C-452.403 632.801 -451.667 633.018 -450.947 632.947L-441.227 702.046L-499.621 726.973C-499.734 726.601 -499.893 726.242 -500.075 725.91L-500.071 725.922ZM-449.963 632.678C-449.625 632.521 -449.3 632.286 -448.985 631.987L-411.865 685.401C-412.643 686.653 -412.962 688.313 -412.767 689.897L-440.257 701.629L-449.967 632.666L-449.963 632.678ZM-412.469 691.25C-412.356 691.622 -412.197 691.981 -412.015 692.313C-411.691 692.914 -411.285 693.383 -410.841 693.744L-430.659 761.004C-431.071 760.851 -431.496 760.79 -431.92 760.828L-440.057 703.026L-412.469 691.25ZM-380.073 804.179C-379.796 803.888 -379.563 803.552 -379.366 803.195L-375.81 806.123L-386.158 889.37L-382.211 805.299C-381.462 805.225 -380.717 804.87 -380.082 804.184L-380.073 804.179ZM-383.361 902.359L-289.415 880.989C-289.302 881.531 -289.124 882.049 -288.887 882.532L-332.707 937.749L-383.563 904.205C-383.422 903.598 -383.364 902.984 -383.373 902.352L-383.361 902.359ZM-283.846 874.574L-264.387 797.913C-263.304 798.237 -262.13 797.926 -261.187 796.917C-259.729 795.363 -259.274 792.674 -259.967 790.421L-243.673 802.892L-283.672 874.712C-283.728 874.66 -283.79 874.626 -283.846 874.574ZM-259.527 789.156L-201.647 727.44L-243.047 801.772L-259.527 789.156ZM-200.816 718.853L-251.498 626.326C-251.233 625.958 -251.013 625.545 -250.83 625.111L-185.985 661.103L-198.222 718.2C-199.093 718.006 -200.004 718.217 -200.813 718.865L-200.816 718.853ZM-250.459 623.788C-250.276 622.816 -250.296 621.78 -250.519 620.808L-205.314 591.685L-192.038 583.13L-168.16 567.753C-168.16 567.753 -168.152 567.777 -168.149 567.789C-167.677 568.643 -167.056 569.253 -166.38 569.605L-185.704 659.749L-250.464 623.805L-250.459 623.788ZM-165.388 569.897C-165.018 569.948 -164.64 569.923 -164.275 569.821L-159.832 590.289L-139.979 681.781C-140.246 681.939 -140.504 682.161 -140.75 682.42C-141.195 682.895 -141.54 683.466 -141.791 684.11L-184.756 660.265L-165.385 569.909L-165.388 569.897ZM-135.931 682.478L-95.1458 587.812C-93.8722 588.632 -92.3186 588.466 -91.1206 587.193C-90.7459 586.787 -90.4433 586.312 -90.2056 585.789L-52.6611 610.44L-135.59 682.9C-135.696 682.751 -135.811 682.606 -135.931 682.478ZM-89.77 584.513C-89.6751 584.089 -89.6133 583.656 -89.5932 583.219L-18.3745 578.884C-18.3161 579.345 -18.2196 579.797 -18.08 580.225L-51.6488 609.559L-89.7786 584.518L-89.77 584.513ZM-17.5394 581.406C-16.3537 583.411 -14.3547 583.944 -12.7398 582.807L23.7353 657.455C23.4639 657.799 23.2329 658.176 23.0423 658.586L-50.5539 610.258L-17.5307 581.401L-17.5394 581.406ZM24.5718 656.664L-11.9033 582.016C-10.3837 580.129 -10.1433 576.901 -11.3954 574.61C-11.4576 574.505 -11.5198 574.4 -11.5784 574.307L49.7719 475.916C50.0692 476.193 50.39 476.415 50.7307 476.568L26.5676 656.081C25.8914 656.027 25.2081 656.218 24.5718 656.664ZM55.8567 471.136L106.638 458.813C106.769 459.415 106.973 459.988 107.263 460.511C108.11 462.064 109.438 462.796 110.727 462.629L113.204 478.213C112.835 478.403 112.487 478.664 112.157 479.015C111.443 479.776 110.973 480.804 110.754 481.924L55.8483 471.41C55.8523 471.323 55.8527 471.224 55.8444 471.129L55.8567 471.136ZM114.189 477.915L111.713 462.331C112.082 462.141 112.429 461.88 112.759 461.529C113.596 460.639 114.103 459.363 114.253 458.015L126.162 458.421L116.329 478.478C115.672 478.017 114.931 477.817 114.206 477.905L114.189 477.915ZM114.267 456.619C114.198 455.655 113.94 454.703 113.484 453.867C113.438 453.782 113.383 453.701 113.337 453.615L177.722 353.178L126.82 457.041L114.258 456.624L114.267 456.619ZM182.438 350.112C183.296 350.13 184.162 349.774 184.898 348.986C185.656 348.17 186.148 347.045 186.341 345.841L197.365 347.279L171.455 451.742L182.438 350.112ZM186.439 344.453C186.413 343.363 186.15 342.259 185.644 341.326C185.466 341.006 185.266 340.714 185.051 340.472L215.447 274.417L197.716 345.925L186.439 344.453ZM167.996 211.059C168.093 211.313 168.199 211.562 168.334 211.808C169.131 213.264 170.358 213.998 171.571 213.947L175.584 264.202L102.333 256.868C102.28 256.489 102.196 256.113 102.078 255.758L117.567 245.26L167.991 211.076L167.996 211.059ZM100.88 262.326C101.202 261.98 101.476 261.578 101.701 261.148L179.108 341.968C178.834 342.64 178.674 343.385 178.622 344.152L104.547 347.937L99.637 263.215C100.077 263.026 100.497 262.736 100.889 262.321L100.88 262.326ZM109.555 451.854C109.432 451.884 109.316 451.938 109.197 451.98L98.0222 418.367L76.9165 354.882C77.0212 354.792 77.1223 354.69 77.2147 354.593C78.144 353.605 78.6589 352.155 78.7443 350.66L103.617 349.392L109.558 451.866L109.555 451.854ZM71.7189 353.574C72.1481 354.354 72.6958 354.923 73.2997 355.275L58.6292 433.131L-13.3793 400.671C-13.3141 399.981 -13.3482 399.265 -13.4757 398.576L71.3622 352.765C71.4667 353.043 71.5799 353.316 71.7275 353.569L71.7189 353.574ZM-20.3878 403.306C-20.0708 403.883 -19.6822 404.362 -19.2538 404.704L-43.7453 478.657C-44.4929 478.334 -45.2884 478.322 -46.0446 478.64L-72.3592 396.95C-72.2459 396.855 -72.1362 396.748 -72.0352 396.646C-71.2736 395.842 -70.7905 394.722 -70.5969 393.518L-21.1862 400.167C-21.1572 401.268 -20.906 402.366 -20.3878 403.306ZM-77.5347 395.615C-77.2835 396.076 -76.983 396.465 -76.6626 396.785L-93.6819 442.418L-159.512 387.555C-159.394 387.174 -159.309 386.784 -159.257 386.385L-78.3266 392.699C-78.2691 393.727 -78.0139 394.737 -77.5347 395.615ZM-94.1457 443.669L-121.356 516.622C-122.11 516.245 -122.941 516.183 -123.725 516.476L-161.16 390.127C-161.012 390.011 -160.868 389.884 -160.731 389.732C-160.462 389.446 -160.234 389.128 -160.037 388.771L-94.1544 443.674L-94.1457 443.669ZM-164.603 478.036L-169.985 472.533C-169.255 470.687 -169.333 468.354 -170.298 466.574C-170.816 465.633 -171.507 464.994 -172.264 464.675L-163.707 394.518L-164.603 478.036ZM-173.442 475.366L-166.002 559.189C-166.497 559.367 -166.972 559.676 -167.399 560.141C-168.404 561.215 -168.93 562.828 -168.939 564.475L-283.26 573.574C-283.325 572.89 -283.487 572.221 -283.747 571.596L-176.384 473.463C-175.623 474.699 -174.539 475.362 -173.43 475.372L-173.442 475.366ZM-287.857 579.712L-287.232 631.753L-301.902 636.204C-302.018 635.89 -302.154 635.574 -302.313 635.285C-302.676 634.622 -303.122 634.121 -303.617 633.762L-288.274 579.576C-288.134 579.635 -287.998 579.682 -287.857 579.712ZM-308.769 635.754C-309.087 636.48 -309.276 637.299 -309.33 638.124L-358.372 640.94C-358.475 640.095 -358.723 639.279 -359.116 638.548C-359.318 638.186 -359.546 637.867 -359.789 637.6L-342.506 597.8L-308.769 635.754ZM-360.648 636.876C-361.618 636.287 -362.735 636.253 -363.734 636.842L-411.807 520.719C-411.807 520.719 -411.772 520.699 -411.75 520.671C-411.635 520.547 -411.524 520.411 -411.422 520.28L-343.291 596.918L-360.636 636.883L-360.648 636.876ZM-527.772 593.801C-527.454 593.613 -527.137 593.384 -526.855 593.076C-526.371 592.564 -526.006 591.924 -525.743 591.217L-476.384 615.762L-502.422 723.926C-502.831 723.814 -503.245 723.789 -503.659 723.863L-527.764 593.796L-527.772 593.801ZM-499.36 730.515C-499.249 729.811 -499.232 729.094 -499.317 728.379L-441.021 703.496L-432.907 761.156C-433.306 761.348 -433.691 761.618 -434.044 761.996C-434.511 762.498 -434.874 763.109 -435.132 763.799L-499.365 730.532L-499.36 730.515ZM-384.916 906.943C-384.916 906.943 -384.899 906.933 -384.89 906.928C-384.516 906.523 -384.209 906.059 -383.972 905.536L-333.497 938.824L-356.515 967.837C-357.627 966.511 -359.191 966.174 -360.533 966.938L-384.913 906.955L-384.916 906.943ZM-355.206 970.986C-355.306 970.253 -355.516 969.527 -355.846 968.872L-332.521 939.466L-293.689 965.084C-293.788 965.496 -293.841 965.924 -293.865 966.348L-355.218 970.979L-355.206 970.986ZM-287.739 962.239C-288.221 961.787 -288.769 961.487 -289.325 961.362L-287.711 884.103C-286.365 885.262 -284.599 885.226 -283.264 883.801C-281.96 882.409 -281.461 880.103 -281.859 878.017L-206.115 834.089L-287.743 962.227L-287.739 962.239ZM-282.248 876.732C-282.331 876.526 -282.422 876.325 -282.527 876.146C-282.636 875.955 -282.749 875.781 -282.859 875.62L-242.76 803.627L-205.429 832.198L-282.245 876.744L-282.248 876.732ZM-242.138 802.496L-200.837 728.336C-200.458 728.65 -200.049 728.862 -199.627 728.981L-204.726 831.132L-242.138 802.496ZM-195.485 720.803C-195.557 720.633 -195.641 720.456 -195.73 720.297C-196.139 719.547 -196.666 718.981 -197.253 718.619L-185.038 661.649L-142.155 685.457C-142.328 686.395 -142.323 687.383 -142.119 688.324L-195.485 720.803ZM-133.158 682.484L-51.5726 611.185L22.6175 659.898C22.5114 660.385 22.4383 660.882 22.4315 661.395L-133.158 682.484ZM118.11 481.108C118.001 480.748 117.846 480.401 117.664 480.069C117.509 479.793 117.341 479.538 117.158 479.306L127.361 458.492L166.254 459.809C166.261 459.932 166.276 460.05 166.283 460.174L118.098 481.101L118.11 481.108ZM172.156 454.528C172.076 454.462 171.986 454.402 171.905 454.336L198.421 347.448L227.082 351.178C227.107 352.268 227.37 353.372 227.876 354.305C227.973 354.489 228.083 354.651 228.192 354.813L172.156 454.528ZM229.613 345.862C229.262 346.041 228.923 346.298 228.61 346.638C227.852 347.454 227.36 348.579 227.167 349.783L198.76 346.087L216.437 274.838C216.881 275.03 217.342 275.111 217.8 275.082L229.617 345.874L229.613 345.862ZM220.709 266.286C220.408 265.728 220.039 265.28 219.632 264.94L234.449 218.44L266.422 223.118C266.43 223.68 266.5 224.247 266.634 224.791L220.448 265.691L220.721 266.293L220.709 266.286ZM266.528 221.725L234.872 217.087L242.876 191.964C244.035 192.44 245.334 192.17 246.373 191.075L267.016 220.12C266.792 220.621 266.621 221.161 266.519 221.73L266.528 221.725ZM240.301 188.556C240.431 189.088 240.622 189.584 240.877 190.057C241.178 190.615 241.547 191.063 241.955 191.403L233.814 216.946L175.367 208.381C175.364 208.27 175.364 208.17 175.352 208.064L240.292 188.561L240.301 188.556ZM97.7323 263.362C98.0304 263.441 98.3261 263.479 98.6281 263.471L103.534 348.011L78.6907 349.276C78.5857 348.461 78.3419 347.656 77.9555 346.95C77.5726 346.255 77.0983 345.728 76.5619 345.365L97.7323 263.362ZM46.9292 312.28L71.7267 346.93C71.0135 348.228 70.7531 349.883 71.0074 351.46L-13.8736 397.296C-13.9563 397.09 -14.0512 396.877 -14.1598 396.686L46.9292 312.28ZM-288.386 569.151C-288.788 569.332 -289.169 569.614 -289.531 569.997C-291.249 571.832 -291.578 575.268 -290.264 577.664C-289.963 578.222 -289.598 578.658 -289.199 579.003L-304.566 633.274C-304.566 633.274 -304.632 633.257 -304.653 633.255L-298.039 500.041C-298.039 500.041 -298.039 500.041 -298.03 500.036L-288.391 569.168L-288.386 569.151ZM-302.059 495.985C-301.926 496.658 -301.709 497.308 -301.388 497.897C-301.187 498.26 -300.959 498.578 -300.715 498.845L-342.766 595.702L-410.789 519.184C-410.387 518.267 -410.183 517.198 -410.209 516.138L-302.055 495.997L-302.059 495.985ZM-415.996 511.511C-416.17 511.642 -416.348 511.79 -416.516 511.974C-417.106 512.605 -417.529 513.421 -417.784 514.322L-467.511 498.318L-434.897 450.009C-433.921 451.019 -432.667 451.341 -431.511 450.9L-415.996 511.511ZM-436.404 446.609C-436.295 447.437 -436.052 448.242 -435.662 448.96C-435.651 448.996 -435.626 449.01 -435.615 449.046L-468.643 497.966L-566.858 466.359C-566.847 466.226 -566.837 466.092 -566.839 465.952L-436.4 446.621L-436.404 446.609Z" fill="white" fill-opacity="0.18"/>
</svg>
