<svg width="58" height="60" viewBox="0 0 58 60" fill="none" xmlns="http://www.w3.org/2000/svg">
<path d="M13.7273 6.30273L14.6488 7.15061L11.8352 16.5024L20.5382 12.6312L21.5148 13.525L11.1229 18.3544L10.1055 17.429L13.7273 6.30273Z" fill="white"/>
<path d="M12.1405 9.36523L11.5813 10.7277L6.69608 11.3265L10.2587 15.0316L9.74946 15.9571L5.06836 11.2719L5.32247 9.96509L12.1405 9.36523Z" fill="white"/>
<path d="M5.00359 29.9199H5.99757L10.9675 42.7266H9.72041L8.22638 38.7221H2.75845L1.2634 42.7266H0L5.00359 29.9199ZM7.85593 37.73L5.49242 31.3993L3.1289 37.73H7.85593Z" fill="white"/>
<path d="M16.3085 42.3478C16.2187 42.3838 16.0779 42.4505 15.887 42.5466C15.6962 42.6428 15.4656 42.7269 15.1962 42.799C14.9267 42.8711 14.6349 42.9072 14.3206 42.9072C14.0062 42.9072 13.6889 42.8405 13.4021 42.7083C13.1153 42.5761 12.8888 42.3729 12.7204 42.1019C12.552 41.8299 12.4673 41.4955 12.4673 41.0967V34.341H11.2539V33.3674H12.4673V30.1934H13.6133V33.3674H15.635V34.341H13.6133V40.7569C13.6358 41.0956 13.7511 41.3491 13.9583 41.5185C14.1665 41.6878 14.4053 41.772 14.6747 41.772C14.989 41.772 15.2758 41.7151 15.5339 41.6004C15.7921 41.4868 15.9493 41.4048 16.0054 41.3568L16.3085 42.3489V42.3478Z" fill="white"/>
<path d="M17.79 29.5596H18.9361V40.664C18.9361 41.136 19.0147 41.4441 19.1718 41.5894C19.329 41.7347 19.5198 41.8068 19.7443 41.8068C19.9464 41.8068 20.1485 41.7828 20.3505 41.7347C20.5526 41.6867 20.7271 41.6386 20.873 41.5905L21.0751 42.5826C20.8618 42.6788 20.6005 42.7563 20.2913 42.8175C19.9821 42.8776 19.7158 42.9082 19.4912 42.9082C18.9749 42.9082 18.5615 42.7443 18.2534 42.4187C17.9441 42.092 17.79 41.6451 17.79 41.077V29.5607V29.5596Z" fill="white"/>
<path d="M21.6128 40.0387C21.6128 39.4531 21.77 38.9483 22.0843 38.5243C22.3986 38.1004 22.8344 37.7715 23.3896 37.5388C23.9457 37.306 24.5887 37.1891 25.3183 37.1891C25.7449 37.1891 26.1888 37.2252 26.6491 37.2973C27.1093 37.3694 27.5196 37.4776 27.8788 37.6218V36.8308C27.8788 36.0419 27.6604 35.4147 27.2216 34.9481C26.7838 34.4816 26.1776 34.2489 25.402 34.2489C24.9305 34.2489 24.4672 34.3417 24.0121 34.5286C23.5569 34.7154 23.0824 34.9886 22.5885 35.3491L22.1506 34.4838C22.7232 34.0631 23.2844 33.7474 23.8355 33.5365C24.3856 33.3256 24.9469 33.2207 25.5204 33.2207C26.5981 33.2207 27.4522 33.5496 28.0809 34.2063C28.7095 34.864 29.0238 35.772 29.0238 36.9313V41.2504C29.0238 41.4176 29.0575 41.54 29.1248 41.6176C29.1922 41.6951 29.2983 41.7399 29.4453 41.752V42.7255C29.3218 42.7375 29.2147 42.7495 29.1248 42.7615C29.035 42.7736 28.9677 42.7736 28.9228 42.7615C28.6421 42.7495 28.4278 42.6534 28.2829 42.4731C28.137 42.2928 28.0584 42.1005 28.0472 41.8962L28.0298 41.2111C27.6369 41.752 27.1257 42.1704 26.497 42.4644C25.8674 42.7594 25.2275 42.9058 24.5764 42.9058C24.0141 42.9058 23.5059 42.7768 23.0518 42.5201C22.5966 42.2633 22.2435 41.9169 21.9904 41.481C21.7373 41.045 21.6118 40.5643 21.6118 40.0376L21.6128 40.0387ZM27.492 40.7533C27.6155 40.5861 27.7114 40.4255 27.7788 40.2703C27.8461 40.1152 27.8798 39.9786 27.8798 39.8595V38.5014C27.4982 38.3462 27.1022 38.2271 26.6919 38.1441C26.2817 38.0611 25.8694 38.0195 25.4541 38.0195C24.6336 38.0195 23.9712 38.1922 23.4661 38.5374C22.9609 38.8827 22.7078 39.3536 22.7078 39.9491C22.7078 40.2944 22.7926 40.62 22.9609 40.9237C23.1293 41.2275 23.3763 41.4777 23.7018 41.6744C24.0274 41.871 24.409 41.9694 24.8479 41.9694C25.3979 41.9694 25.9123 41.8568 26.3888 41.6296C26.8664 41.4034 27.2338 41.1117 27.492 40.7533Z" fill="white"/>
<path d="M38.8823 42.7266H37.7362V37.5115C37.7362 36.4123 37.5852 35.6092 37.2811 35.1011C36.978 34.593 36.5004 34.3396 35.8493 34.3396C35.4003 34.3396 34.9564 34.4565 34.5186 34.6881C34.0808 34.9208 33.696 35.2366 33.3643 35.6365C33.0327 36.0364 32.7939 36.492 32.649 37.0056V42.7266H31.5029V33.3649H32.5479V35.4988C32.7837 35.0443 33.0929 34.6466 33.4746 34.3057C33.8562 33.9648 34.2889 33.6993 34.7716 33.5081C35.2543 33.3169 35.7544 33.2207 36.2708 33.2207C36.7535 33.2207 37.1637 33.3169 37.5005 33.5081C37.8373 33.6993 38.1067 33.9713 38.3087 34.3243C38.5108 34.6772 38.6567 35.1011 38.7465 35.5972C38.8364 36.0932 38.8813 36.6461 38.8813 37.2558V42.7255L38.8823 42.7266Z" fill="white"/>
<path d="M45.4511 42.3478C45.3613 42.3838 45.2205 42.4505 45.0306 42.5466C44.8398 42.6428 44.6092 42.7269 44.3398 42.799C44.0703 42.8711 43.7775 42.9072 43.4642 42.9072C43.1509 42.9072 42.8325 42.8405 42.5457 42.7083C42.2589 42.5761 42.0313 42.3729 41.863 42.1019C41.6946 41.8299 41.6099 41.4955 41.6099 41.0967V34.341H40.3965V33.3674H41.6099V30.1934H42.7559V33.3674H44.7776V34.341H42.7559V40.7569C42.7784 41.0956 42.8937 41.3491 43.1009 41.5185C43.309 41.6878 43.5478 41.772 43.8173 41.772C44.1316 41.772 44.4183 41.7151 44.6765 41.6004C44.9347 41.4868 45.0919 41.4048 45.148 41.3568L45.4511 42.3489V42.3478Z" fill="white"/>
<path d="M46.8833 31.3635V29.5596H48.0293V31.3635H46.8833ZM46.8833 42.7268V33.3291H48.0293V42.7268H46.8833Z" fill="white"/>
<path d="M54.3625 42.9069C53.7226 42.9069 53.1358 42.7779 52.6021 42.5212C52.0683 42.2644 51.602 41.9082 51.204 41.4537C50.8049 40.9991 50.4967 40.479 50.2773 39.8934C50.0589 39.3077 49.9487 38.686 49.9487 38.0283C49.9487 37.1432 50.1345 36.3358 50.5049 35.607C50.8754 34.8771 51.3917 34.298 52.0551 33.8665C52.7174 33.436 53.4818 33.2207 54.3461 33.2207C55.1656 33.2207 55.8902 33.4228 56.5188 33.8249C57.1474 34.2281 57.6138 34.7722 57.9169 35.4573L56.8046 35.8365C56.5576 35.3557 56.2116 34.9798 55.7687 34.7089C55.3248 34.4379 54.8339 34.3035 54.2941 34.3035C53.7103 34.3035 53.1766 34.4652 52.6939 34.7875C52.2112 35.1099 51.8265 35.5513 51.5397 36.1129C51.2529 36.6745 51.1101 37.3126 51.1101 38.0294C51.1101 38.7461 51.256 39.3722 51.5479 39.9458C51.8397 40.5195 52.2275 40.9762 52.7102 41.316C53.193 41.6569 53.7267 41.8263 54.3104 41.8263C54.6921 41.8263 55.0605 41.7541 55.4136 41.6099C55.7677 41.4657 56.0759 41.2701 56.3402 41.0232C56.6035 40.7773 56.7811 40.5096 56.8709 40.2201L57.9996 40.5807C57.8424 41.0254 57.5812 41.4253 57.2158 41.7804C56.8505 42.1355 56.4239 42.4119 55.9351 42.6097C55.4462 42.8085 54.9217 42.9069 54.3594 42.9069H54.3625Z" fill="white"/>
<path d="M1.28027 59.4024V46.5957H3.16721V57.616H9.58523V59.4013H1.28027V59.4024Z" fill="white"/>
<path d="M10.2437 56.6698C10.2437 56.0743 10.4039 55.5531 10.7244 55.1063C11.0448 54.6594 11.4857 54.3141 12.0469 54.0694C12.6082 53.8257 13.2603 53.7033 14.0012 53.7033C14.3941 53.7033 14.7952 53.7339 15.2054 53.7929C15.6157 53.853 15.978 53.9492 16.2923 54.0814V53.4892C16.2923 52.838 16.1066 52.3288 15.7361 51.9617C15.3657 51.5945 14.8319 51.411 14.1359 51.411C13.641 51.411 13.1756 51.5039 12.7378 51.6907C12.3 51.8775 11.8337 52.1387 11.3397 52.4752L10.7162 51.14C11.2999 50.7194 11.8867 50.4069 12.4766 50.2025C13.0664 49.9982 13.6869 49.8955 14.338 49.8955C15.5167 49.8955 16.4464 50.2255 17.1261 50.8854C17.8047 51.5454 18.1445 52.4818 18.1445 53.6946V57.1724C18.1445 57.3986 18.1813 57.5592 18.2537 57.6543C18.3262 57.7493 18.4527 57.8029 18.6323 57.8149V59.4025C18.464 59.4385 18.3119 59.4626 18.1772 59.4746C18.0425 59.4866 17.9302 59.4921 17.8404 59.4921C17.4475 59.4921 17.1495 59.3905 16.9475 59.185C16.7454 58.9807 16.627 58.7403 16.5933 58.4639L16.5433 57.9231C16.1617 58.4519 15.6728 58.8605 15.0779 59.1501C14.4829 59.4385 13.8818 59.5828 13.2756 59.5828C12.6695 59.5828 12.1694 59.4549 11.7092 59.1982C11.2489 58.9425 10.8887 58.5928 10.6305 58.1525C10.3723 57.7122 10.2427 57.2172 10.2427 56.6687L10.2437 56.6698ZM15.8535 57.2347C15.9882 57.0817 16.0953 56.9277 16.1739 56.7736C16.2525 56.6195 16.2913 56.4841 16.2913 56.3661V55.3018C15.977 55.1718 15.6453 55.0746 15.2973 55.009C14.9493 54.9446 14.6064 54.9118 14.2696 54.9118C13.5961 54.9118 13.0481 55.0538 12.6266 55.3379C12.2061 55.622 11.9949 56.012 11.9949 56.5081C11.9949 56.7802 12.0653 57.0402 12.2051 57.2882C12.3449 57.5374 12.548 57.7373 12.8113 57.8914C13.0746 58.0454 13.4032 58.1219 13.7971 58.1219C14.1911 58.1219 14.5891 58.0389 14.9595 57.8739C15.3299 57.7078 15.6279 57.4958 15.8525 57.2347H15.8535Z" fill="white"/>
<path d="M25.1362 59.583C24.4627 59.583 23.8535 59.4115 23.3085 59.0684C22.7635 58.7253 22.3339 58.2653 22.0196 57.6884V59.4016H20.3857V46.2344H22.239V51.8439C22.587 51.243 23.0228 50.7677 23.5442 50.4191C24.0667 50.0706 24.6811 49.8958 25.3893 49.8958C25.9731 49.8958 26.5068 50.0269 26.9895 50.2891C27.4722 50.5514 27.8855 50.9086 28.2274 51.361C28.5703 51.8133 28.8336 52.3323 29.0193 52.9158C29.205 53.4993 29.2969 54.1188 29.2969 54.7744C29.2969 55.4299 29.1928 56.0495 28.9846 56.6329C28.7764 57.2164 28.4815 57.7288 28.1008 58.1703C27.7192 58.6106 27.2783 58.9569 26.7783 59.2072C26.2782 59.4574 25.7312 59.5819 25.1362 59.5819V59.583ZM24.6474 57.8873C25.0515 57.8873 25.422 57.8009 25.7588 57.6294C26.0955 57.4579 26.3874 57.2295 26.6344 56.9443C26.8813 56.6602 27.0691 56.3281 27.1987 55.9489C27.3273 55.5698 27.3926 55.1786 27.3926 54.7755C27.3926 54.2182 27.2834 53.697 27.064 53.2108C26.8446 52.7246 26.5384 52.3334 26.1455 52.0373C25.7526 51.7412 25.2975 51.5926 24.7811 51.5926C24.4107 51.5926 24.0627 51.6844 23.7371 51.868C23.4106 52.0515 23.1217 52.2952 22.8697 52.5968C22.6166 52.8994 22.4064 53.2338 22.238 53.6009V56.0549C22.3053 56.3281 22.4237 56.5739 22.5921 56.7924C22.7605 57.0121 22.9564 57.2011 23.182 57.3617C23.4065 57.5223 23.6483 57.6491 23.9065 57.7441C24.1647 57.8392 24.4117 57.8862 24.6474 57.8862V57.8873Z" fill="white"/>
<path d="M34.0986 59.5829C33.3577 59.5829 32.6555 59.4539 31.9922 59.195C31.3299 58.936 30.7625 58.5492 30.291 58.0313L30.9819 56.6961C31.4871 57.1769 31.9953 57.5254 32.5066 57.7418C33.0178 57.9581 33.5261 58.0663 34.0312 58.0663C34.5364 58.0663 34.9691 57.9636 35.2946 57.7571C35.6201 57.5506 35.7834 57.2479 35.7834 56.8469C35.7834 56.5497 35.6987 56.329 35.5303 56.1859C35.362 56.0428 35.1181 55.9182 34.7976 55.8111C34.4772 55.704 34.0924 55.5849 33.6434 55.4538C33.0137 55.2517 32.4861 55.0397 32.0596 54.819C31.633 54.5983 31.3126 54.3273 31.0993 54.0061C30.886 53.6849 30.7788 53.274 30.7788 52.7725C30.7788 52.165 30.9248 51.6471 31.2166 51.2177C31.5085 50.7883 31.9157 50.4616 32.4382 50.2343C32.9607 50.0082 33.5638 49.8945 34.2496 49.8945C34.8895 49.8945 35.4814 49.9994 36.0263 50.2103C36.5713 50.4212 37.0509 50.749 37.4673 51.1937L36.6754 52.5103C36.2825 52.1257 35.8804 51.8427 35.4712 51.6624C35.0609 51.4821 34.62 51.3914 34.1486 51.3914C33.8791 51.3914 33.621 51.4242 33.374 51.4898C33.127 51.5553 32.9219 51.6744 32.7586 51.846C32.5953 52.0186 32.5137 52.259 32.5137 52.5682C32.5137 52.8184 32.5811 53.0205 32.7158 53.1746C32.8505 53.3298 33.0525 53.4598 33.3219 53.5669C33.5914 53.6739 33.923 53.793 34.3159 53.9241C35.0007 54.1383 35.5844 54.3492 36.0682 54.5579C36.5509 54.7666 36.9244 55.0343 37.1887 55.361C37.452 55.6887 37.5846 56.1367 37.5846 56.7082C37.5846 57.6118 37.2673 58.3165 36.6325 58.8224C35.9977 59.3283 35.1528 59.5807 34.0975 59.5807L34.0986 59.5829Z" fill="white"/>
<path d="M24.5294 0.982422L14.0742 5.82277L15.0264 6.70015L21.9893 3.68122L17.1654 8.7095L18.1614 9.8054L23.3303 4.41874L20.8576 12.1862L21.875 13.0953L25.3438 1.90788L24.5294 0.982422Z" fill="white"/>
<path d="M13.7273 6.30273L14.6488 7.15061L11.8352 16.5024L20.5382 12.6312L21.5148 13.525L11.1229 18.3544L10.1055 17.429L13.7273 6.30273Z" fill="white"/>
<path d="M12.1405 9.36523L11.5813 10.7277L6.69608 11.3265L10.2587 15.0316L9.74946 15.9571L5.06836 11.2719L5.32247 9.96509L12.1405 9.36523Z" fill="white"/>
<path d="M18.6692 15.6172L17.4191 16.2673L17.0466 21.5163L13.4534 17.8472L12.6084 18.4263L17.1589 23.2558L18.3692 22.9345L18.6692 15.6172Z" fill="white"/>
<path d="M9.57082 18.0115L10.5515 19.0396L10.3291 19.2822C10.2352 19.3849 10.1944 19.4985 10.2066 19.6231C10.2199 19.7466 10.2872 19.8733 10.4107 20.0033L11.866 21.5297C12.3323 22.0192 12.5813 22.5098 12.612 23.0048C12.6436 23.4986 12.4497 23.9739 12.0333 24.4307L11.6425 24.8579L10.6618 23.8297L10.7832 23.6975C10.9444 23.5205 11.0159 23.3337 10.9975 23.1359C10.9791 22.9381 10.873 22.7382 10.6801 22.536L9.39325 21.1866C9.11975 20.9004 8.95137 20.6469 8.89014 20.4284C8.82789 20.2098 8.84626 19.9837 8.94423 19.7498C8.72788 19.8602 8.51765 19.8842 8.31151 19.822C8.10536 19.7597 7.86656 19.5859 7.59306 19.2986L6.30619 17.9492C6.11331 17.7471 5.92452 17.6378 5.73879 17.6214C5.55407 17.6061 5.38058 17.6859 5.21934 17.8618L5.0979 17.994L4.11719 16.9647L4.50804 16.5375C4.92543 16.0808 5.36528 15.8644 5.82757 15.8874C6.28987 15.9103 6.75318 16.166 7.22058 16.6555L8.67583 18.1819C8.79931 18.3108 8.91871 18.3819 9.03505 18.3928C9.15139 18.4037 9.2565 18.3578 9.35039 18.2551L9.57286 18.0126L9.57082 18.0115Z" fill="white"/>
<path d="M7.46142 20.6692L8.13598 21.3772L7.9829 21.5444C7.91759 21.6154 7.89004 21.693 7.89922 21.7782C7.90739 21.8634 7.95433 21.9509 8.03903 22.0394L9.04016 23.0894C9.3606 23.4259 9.53205 23.7635 9.55348 24.1033C9.57491 24.4431 9.44224 24.7698 9.15548 25.0845L8.88708 25.3784L8.21252 24.6704L8.2962 24.5797C8.40744 24.4584 8.45642 24.3295 8.44316 24.194C8.42989 24.0585 8.35743 23.9209 8.22477 23.781L7.33896 22.8523C7.15118 22.6556 7.03586 22.4808 6.993 22.33C6.95014 22.1792 6.96239 22.0241 7.02974 21.8624C6.88075 21.9378 6.73583 21.9541 6.59398 21.9115C6.45213 21.8689 6.28783 21.7487 6.09903 21.5521L5.21425 20.6244C5.08158 20.4856 4.95197 20.4103 4.82441 20.3993C4.69684 20.3884 4.57846 20.4441 4.46723 20.5654L4.38354 20.6561L3.70898 19.9481L3.97738 19.6542C4.26415 19.3406 4.56724 19.1909 4.88462 19.2073C5.20302 19.2237 5.52142 19.3996 5.84288 19.7361L6.84401 20.7861C6.92871 20.8746 7.01137 20.9238 7.09097 20.9314C7.17057 20.9391 7.24303 20.9074 7.30834 20.8364L7.46142 20.6692Z" fill="white"/>
</svg>
