<svg width="38" height="40" viewBox="0 0 38 40" fill="none" xmlns="http://www.w3.org/2000/svg">
<path d="M17.5647 8.71191L19.1803 10.1003L14.2475 25.414L29.5058 19.0749L31.218 20.5385L12.9987 28.4467L11.2148 26.9312L17.5647 8.71191Z" fill="white"/>
<path d="M14.7824 13.7278L13.8019 15.9589L5.23706 16.9394L11.4831 23.0065L10.5903 24.522L2.3833 16.8499L2.82881 14.71L14.7824 13.7278Z" fill="white"/>
<path d="M36.5031 0L18.1729 7.92612L19.8422 9.36284L32.0498 4.4193L23.5923 12.6532L25.3386 14.4477L34.4008 5.62701L30.0656 18.3464L31.8494 19.835L37.9309 1.51545L36.5031 0Z" fill="white"/>
<path d="M17.5647 8.71191L19.1803 10.1003L14.2475 25.414L29.5058 19.0749L31.218 20.5385L12.9987 28.4467L11.2148 26.9312L17.5647 8.71191Z" fill="white"/>
<path d="M14.7824 13.7278L13.8019 15.9589L5.23706 16.9394L11.4831 23.0065L10.5903 24.522L2.3833 16.8499L2.82881 14.71L14.7824 13.7278Z" fill="white"/>
<path d="M26.2295 23.9653L24.0378 25.0299L23.3847 33.6252L17.085 27.6171L15.6035 28.5653L23.5815 36.4736L25.7035 35.9475L26.2295 23.9653Z" fill="white"/>
<path d="M10.2773 27.8857L11.9967 29.5693L11.6066 29.9665C11.442 30.1347 11.3705 30.3208 11.3919 30.5247C11.4152 30.7269 11.5333 30.9345 11.7498 31.1474L14.3012 33.6469C15.1188 34.4484 15.5554 35.2518 15.609 36.0623C15.6645 36.871 15.3246 37.6493 14.5946 38.3972L13.9093 39.0967L12.1899 37.4131L12.4028 37.1966C12.6855 36.9068 12.8108 36.6008 12.7785 36.277C12.7463 35.9531 12.5603 35.6257 12.2221 35.2947L9.96594 33.0851C9.48643 32.6163 9.19122 32.2012 9.08387 31.8434C8.97473 31.4855 9.00693 31.1152 9.17869 30.7323C8.79939 30.913 8.43082 30.9524 8.0694 30.8504C7.70798 30.7484 7.28931 30.4639 6.80981 29.9933L4.55363 27.7837C4.21548 27.4527 3.88448 27.2738 3.55884 27.2469C3.235 27.2219 2.93084 27.3525 2.64814 27.6406L2.43523 27.8571L0.71582 26.1716L1.40108 25.4721C2.13286 24.7242 2.904 24.3699 3.71451 24.4075C4.52501 24.4451 5.3373 24.8637 6.15675 25.6653L8.70814 28.1648C8.92463 28.3759 9.13397 28.4922 9.33793 28.5101C9.5419 28.528 9.72619 28.4529 9.89079 28.2847L10.2808 27.8875L10.2773 27.8857Z" fill="white"/>
<path d="M6.57886 32.2377L7.76151 33.3971L7.49313 33.6709C7.37863 33.7872 7.33032 33.9142 7.34642 34.0538C7.36073 34.1933 7.44304 34.3364 7.59154 34.4814L9.34674 36.2008C9.90854 36.7519 10.2091 37.3047 10.2467 37.8612C10.2843 38.4176 10.0517 38.9526 9.54891 39.4678L9.07836 39.9491L7.8957 38.7897L8.04241 38.6412C8.23743 38.4426 8.32332 38.2315 8.30006 38.0097C8.2768 37.7878 8.14977 37.5624 7.91717 37.3333L6.36416 35.8125C6.03494 35.4905 5.83276 35.2042 5.75762 34.9573C5.68247 34.7104 5.70394 34.4563 5.82203 34.1915C5.56081 34.315 5.30674 34.3418 5.05804 34.272C4.80934 34.2023 4.52128 34.0054 4.19028 33.6834L2.63906 32.1644C2.40646 31.9371 2.17923 31.8137 1.95559 31.7958C1.73194 31.7779 1.52439 31.8692 1.32937 32.0678L1.18265 32.2163L0 31.0569L0.470558 30.5756C0.973321 30.0621 1.50471 29.8169 2.06115 29.8438C2.61937 29.8706 3.1776 30.1587 3.7412 30.7098L5.4964 32.4292C5.6449 32.5741 5.78982 32.6546 5.92938 32.6671C6.06893 32.6797 6.19597 32.6278 6.31048 32.5115L6.57886 32.2377Z" fill="white"/>
</svg>
