<svg width="692" height="697" viewBox="0 0 692 697" fill="none" xmlns="http://www.w3.org/2000/svg">
<path d="M689.34 661.53L428.92 17.4303C424.77 7.18034 414.03 0.360352 402.02 0.360352H291C279 0.360352 268.26 7.16035 264.11 17.4003L2.67044 661.49C-4.23956 678.51 9.61044 696.57 29.5604 696.57H46.9404C51.9304 696.57 56.7804 694.8 60.5304 691.5C78.6704 675.6 134.19 633.81 227.14 622.98C298.89 614.62 305.08 580.17 315.33 555.81L323.58 514L315.45 513.84C310.59 504.7 303.69 488.58 298.81 476.84C296.74 472.18 294.86 467.53 293.13 462.9C293.03 462.66 292.98 462.53 292.98 462.52C269.62 489.15 262.1 537.52 260.29 552.49C259.95 555.27 258.04 557.59 255.37 558.45C251.1 559.82 246.63 556.98 246.06 552.53L234.49 461.74C233.33 452.64 235.96 443.47 241.77 436.37L276.76 393.61C273.76 367.63 274.95 349.97 274.95 349.97C282.34 236.64 325.07 185.28 341.74 169.37C345.44 165.83 351.29 165.89 354.92 169.51C371.24 185.77 412.89 238.02 417.89 351.48C417.89 351.48 418.68 368.46 415.37 393.54L450.67 438.57C456.33 445.79 458.77 455.01 457.42 464.08L443.94 554.61C443.28 559.05 438.75 561.8 434.51 560.33C431.86 559.42 429.99 557.06 429.72 554.27C428.2 539.05 421.55 489.32 397.94 462.45C397.94 462.45 397.94 462.46 397.94 462.47C397.94 462.48 397.94 462.5 397.94 462.51C397.81 462.86 397.62 463.33 397.4 463.85C394.82 470.34 391.94 476.87 388.68 483.37H388.3C381.18 498.15 372.83 514.97 372.83 514.97L364.3 514.8L371.9 553.67C380.37 578.14 387.72 614 464.87 622.98C557.83 633.81 613.34 675.59 631.48 691.5C635.23 694.79 640.08 696.57 645.07 696.57H662.45C682.38 696.57 696.23 678.53 689.35 661.52L689.34 661.53Z" fill="white"/>
<path d="M347.79 281.34C327.22 281.12 310.37 297.62 310.16 318.19C309.94 338.76 326.44 355.61 347.01 355.82C367.58 356.04 384.43 339.54 384.64 318.97C384.86 298.4 368.36 281.55 347.79 281.34ZM347.48 342.74C334.14 342.6 323.44 331.67 323.58 318.33C323.72 304.99 334.65 294.29 347.99 294.43C361.33 294.57 372.03 305.5 371.89 318.84C371.75 332.18 360.82 342.88 347.48 342.74Z" fill="white"/>
</svg>
