<svg width="449" height="657" viewBox="0 0 449 657" fill="none" xmlns="http://www.w3.org/2000/svg">
<path d="M1.41106 288.426C2.45109 290.318 4.18808 290.992 5.72761 290.311L43.9338 403.421C43.8463 403.501 43.7502 403.586 43.6664 403.678C41.9482 405.513 41.6186 408.949 42.9329 411.345C43.8144 412.948 45.1928 413.678 46.5317 413.44L70.6364 543.507C70.3178 543.695 70.0014 543.924 69.7191 544.232C68.0009 546.067 67.6713 549.503 68.9856 551.899C70.3 554.295 72.7633 554.752 74.4815 552.918C74.9486 552.415 75.3119 551.805 75.5698 551.115L139.803 584.382C139.548 585.92 139.769 587.587 140.512 588.933C141.826 591.329 144.289 591.787 146.007 589.952C146.369 589.569 146.658 589.115 146.894 588.622L189.121 617.404C188.722 619.069 188.894 620.978 189.722 622.472C190.329 623.571 191.177 624.26 192.083 624.504L187.77 716.38C187.021 716.454 186.276 716.809 185.641 717.495C183.923 719.33 183.593 722.767 184.908 725.162C186.001 727.164 187.903 727.812 189.503 726.896L213.883 786.878C213.883 786.878 213.865 786.889 213.857 786.894C212.139 788.729 211.809 792.165 213.123 794.561C214.438 796.956 216.901 797.414 218.619 795.579C219.549 794.592 220.063 793.141 220.149 791.647L281.502 787.016C281.607 787.832 281.851 788.637 282.238 789.343C283.552 791.739 286.015 792.197 287.733 790.362C289.452 788.527 289.781 785.09 288.467 782.695C288.417 782.597 288.362 782.516 288.307 782.435L371.132 652.416L371.472 652.668L371.516 651.807L372.866 649.694L371.591 650.446L376.689 548.324C377.442 548.262 378.192 547.891 378.839 547.211C380.16 545.809 380.663 543.446 380.219 541.343L433.585 508.864C433.657 509.034 433.741 509.211 433.83 509.371C435.144 511.767 437.607 512.224 439.326 510.389C440.89 508.716 441.304 505.725 440.372 503.387L597.833 482.043C597.954 482.778 598.181 483.494 598.537 484.133C599.851 486.529 602.315 486.987 604.033 485.152C605.751 483.317 606.081 479.88 604.766 477.485C604.264 476.563 603.597 475.938 602.867 475.604L627.03 296.091C627.936 296.165 628.853 295.808 629.628 294.983C630.342 294.222 630.812 293.194 631.031 292.074L685.937 302.587C685.929 303.767 686.185 304.947 686.742 305.949C688.056 308.344 690.52 308.802 692.238 306.967C693.444 305.689 693.958 303.631 693.721 301.675L741.906 280.747C742.015 281.107 742.171 281.454 742.353 281.786C743.667 284.182 746.13 284.64 747.848 282.805C749.567 280.97 749.896 277.533 748.582 275.138C748.486 274.954 748.376 274.792 748.266 274.63L804.302 174.915C805.642 176.021 807.376 175.947 808.68 174.555C810.398 172.72 810.727 169.283 809.413 166.887C808.555 165.327 807.215 164.589 805.911 164.777L794.1 94.038C794.52 93.8472 794.922 93.5673 795.292 93.1792C796.882 91.4907 797.277 88.44 796.304 86.0979L842.395 45.2834C842.445 45.3813 842.482 45.4724 842.532 45.5703C843.847 47.966 846.31 48.4237 848.028 46.5888C849.746 44.7538 850.076 41.3174 848.762 38.9217C847.447 36.526 844.984 36.0683 843.266 37.9032C843.165 38.0053 843.071 38.1314 842.974 38.2455L822.401 9.30026C823.465 7.38406 823.528 4.6428 822.422 2.63378C821.108 0.238086 818.645 -0.219623 816.927 1.61528C815.821 2.79144 815.297 4.61523 815.404 6.40715L750.463 25.9098C750.333 25.3781 750.142 24.8819 749.878 24.4144C748.564 22.0187 746.101 21.561 744.383 23.3959C743.118 24.7509 742.601 26.9669 742.952 28.9967L732.864 35.8412L676.875 73.8038C675.548 71.5005 673.137 71.0825 671.441 72.8901C669.723 74.7251 669.393 78.1615 670.708 80.5572C671.09 81.2515 671.565 81.7786 672.101 82.1417L650.931 164.145C649.864 163.84 648.714 164.164 647.776 165.157C647.776 165.157 647.776 165.157 647.767 165.162L622.261 129.515L560.457 214.909C559.084 213.426 557.118 213.339 555.665 214.876C554.904 215.68 554.421 216.8 554.227 218.004L504.816 211.355C504.787 210.254 504.536 209.156 504.018 208.216C502.704 205.821 500.24 205.363 498.522 207.198C497.725 208.051 497.225 209.251 497.057 210.54L416.126 204.226C416.069 203.198 415.814 202.188 415.335 201.31C414.02 198.914 411.557 198.456 409.839 200.291C408.12 202.126 407.791 205.563 409.105 207.958C409.623 208.899 410.315 209.538 411.071 209.857L402.061 283.679C401.184 283.63 400.279 283.994 399.526 284.793C398.023 286.401 397.579 289.226 398.375 291.517L291.011 389.65L291.29 390.236C290.467 388.725 289.189 387.993 287.923 388.103L278.284 318.97C278.686 318.789 279.068 318.507 279.429 318.124C281.147 316.29 281.476 312.853 280.162 310.457C278.848 308.062 276.384 307.604 274.666 309.439C273.653 310.518 273.125 312.16 273.125 313.803L164.933 333.952C164.798 333.338 164.59 332.753 164.292 332.206C163.318 330.431 161.721 329.717 160.257 330.212L144.74 269.559C144.879 269.449 145.015 269.326 145.152 269.175C146.87 267.34 147.199 263.904 145.885 261.508C144.571 259.112 142.107 258.654 140.389 260.489C139.469 261.472 138.95 262.91 138.865 264.404L8.36712 283.742C8.24093 283.023 8.01769 282.32 7.67389 281.687C6.35953 279.292 3.89622 278.834 2.17803 280.669C0.459847 282.504 0.130201 285.94 1.44455 288.336L1.41106 288.426ZM6.63955 289.702C6.72702 289.622 6.82309 289.537 6.90692 289.445C7.51951 288.786 7.95237 287.936 8.19651 286.999L105.838 318.421L48.3378 403.583C47.3289 402.564 46.0262 402.285 44.8371 402.817L6.63094 289.707L6.63955 289.702ZM157.265 334.979C157.205 335.652 157.24 336.339 157.36 337.004L49.3803 405.148C49.3121 404.99 49.239 404.849 49.1622 404.696C49.1354 404.641 49.1037 404.603 49.0805 404.56L106.989 318.803L157.269 334.991L157.265 334.979ZM276.249 319.222L269.634 452.436C268.881 452.498 268.131 452.87 267.484 453.549C267.369 453.673 267.258 453.81 267.156 453.941L233.312 415.866L275.436 318.852C275.697 319.01 275.968 319.133 276.245 319.21L276.249 319.222ZM808.676 37.5869L793.986 83.6718C792.826 83.1951 791.528 83.4658 790.489 84.5602L790.471 84.5703L750.134 30.521C750.327 30.053 750.463 29.5624 750.553 29.0561L808.672 37.5749L808.676 37.5869ZM703.327 276.413L756.042 168.847C756.264 169.013 756.502 169.128 756.736 169.23L745.518 273.066C744.66 273.049 743.793 273.404 743.057 274.192C742.221 275.083 741.714 276.359 741.564 277.707L703.319 276.418L703.327 276.413ZM282.965 781.722C282.59 782.127 282.284 782.591 282.046 783.114L243.596 757.752L286.571 703.599L284.959 780.631C284.259 780.732 283.572 781.081 282.973 781.717L282.965 781.722ZM162.612 340.701L210.687 456.836C210.388 457.154 210.133 457.517 209.93 457.92L139.271 402.734L159.836 340.753C160.724 341.206 161.714 341.188 162.608 340.689L162.612 340.701ZM404.263 293.564C404.431 293.38 404.578 293.194 404.717 292.984L410.675 299.082L409.882 373.62L402.858 294.52C403.352 294.342 403.827 294.034 404.255 293.569L404.263 293.564ZM413.21 209.982L450.645 336.331C450.497 336.447 450.353 336.574 450.216 336.726C450.048 336.91 449.901 337.095 449.762 337.305L411.692 298.383L412.637 210.136C412.832 210.106 413.022 210.064 413.21 209.982ZM502.013 216.846L528.327 298.536C528.214 298.631 528.104 298.739 528.007 298.853C527.738 299.139 527.51 299.457 527.313 299.814L482.489 262.456L499.537 216.75C500.327 217.147 501.193 217.188 502.013 216.846ZM633.668 253.822L627.736 285.283C626.747 285.102 625.705 285.448 624.854 286.36C624.692 286.527 624.554 286.708 624.423 286.912L561.567 221.658C561.6 221.568 561.63 221.465 561.66 221.362L633.668 253.822ZM651.292 174.79L672.526 238.667L683.576 271.9C683.48 271.985 683.384 272.07 683.292 272.167C682.777 272.712 682.388 273.408 682.131 274.168L634.885 252.878L649.57 174.97C650.143 175.086 650.733 175.021 651.301 174.785L651.292 174.79ZM677.714 77.6126L751.006 84.9503L756.89 158.677C756.384 158.849 755.883 159.173 755.447 159.642C755.292 159.804 755.154 159.985 755.02 160.177L677.477 79.2105C677.614 78.6908 677.697 78.1604 677.714 77.6126ZM749.129 32.1619C749.274 32.0053 749.399 31.8468 749.528 31.6712L789.779 85.6019C789.482 86.1308 789.27 86.7374 789.133 87.3564L751.917 83.6342L747.877 33.0563C748.317 32.8673 748.749 32.5841 749.132 32.1739L749.129 32.1619ZM757.89 158.526L752.023 85.0579L788.959 88.7612C788.933 89.9803 789.194 91.2132 789.762 92.2512C789.848 92.3991 789.937 92.5589 790.027 92.6896L759.488 159.042C758.983 158.716 758.439 158.528 757.886 158.514L757.89 158.526ZM754.704 167.314C754.751 167.4 754.806 167.481 754.852 167.567L731.57 203.885L687.881 272.036C687.279 271.456 686.573 271.137 685.859 271.091L679.918 168.687L753.947 164.916C754.055 165.772 754.297 166.606 754.699 167.332L754.704 167.314ZM681.826 275.538C681.774 275.937 681.75 276.361 681.761 276.765L630.983 289.1C630.852 288.498 630.648 287.925 630.358 287.403C629.921 286.598 629.349 286.016 628.715 285.668L634.628 254.275L681.821 275.555L681.826 275.538ZM437.988 500.844L448.813 394.536L477.89 401.857C477.828 403.125 478.082 404.433 478.686 405.521C478.871 405.865 479.08 406.152 479.311 406.412L438.512 501.101C438.341 501.004 438.161 500.912 437.988 500.844ZM416.644 410.161L411.99 388.727C412.219 388.578 412.442 388.376 412.658 388.149C413.257 387.513 413.685 386.68 413.932 385.755L447.811 394.278L436.983 500.644C436.749 500.641 436.522 500.662 436.293 500.711L416.641 410.149L416.644 410.161ZM191.143 718.567C190.625 717.627 189.937 716.999 189.186 716.664L200.425 626.236L286.045 696.633C285.822 697.373 285.715 698.158 285.733 698.955L191.787 720.325C191.652 719.711 191.449 719.108 191.151 718.562L191.143 718.567ZM146.752 582.321C146.428 581.719 146.018 581.239 145.578 580.89L165.396 513.629C166.002 513.853 166.646 513.869 167.27 513.684L180.058 567.538L147.158 583.227C147.043 582.913 146.91 582.609 146.755 582.333L146.752 582.321ZM114.51 386.708C114.81 386.39 115.065 386.027 115.277 385.619L137.974 403.344L125.268 441.633C124.709 441.397 124.109 441.326 123.525 441.444L113.593 387.434C113.912 387.246 114.228 387.016 114.519 386.703L114.51 386.708ZM270.959 463.178L287.277 525.1C287.228 525.143 287.189 525.18 287.141 525.223C286.912 525.471 286.702 525.751 286.52 526.056L248.806 492.332L267.678 462.467C268.642 463.371 269.849 463.635 270.959 463.178ZM560.398 223.664C560.627 223.416 560.828 223.141 561.005 222.853L623.805 288.056C623.497 288.817 623.328 289.667 623.306 290.53L559.87 298.711L558.809 224.687C559.37 224.526 559.909 224.194 560.393 223.682L560.398 223.664ZM560.202 391.882C560.012 391.923 559.829 391.989 559.649 392.066L543.546 342.249L532.432 307.865C532.545 307.77 532.646 307.668 532.756 307.561C533.721 306.524 534.252 304.993 534.291 303.413L558.882 300.243L560.194 391.887L560.202 391.882ZM448.948 393.14L453.718 346.311C454.158 346.122 454.59 345.839 454.973 345.428C455.198 345.197 455.39 344.928 455.562 344.656L479.313 397.973C478.725 398.646 478.308 399.515 478.08 400.471L448.948 393.14ZM480.164 397.231L456.158 343.342C456.329 342.831 456.429 342.29 456.471 341.727L499.412 364.921L483.492 397.291C482.456 396.586 481.226 396.547 480.156 397.236L480.164 397.231ZM456.457 340.206C456.415 339.864 456.351 339.519 456.261 339.19L526.853 305.635C526.969 305.949 527.101 306.253 527.26 306.542C527.415 306.819 527.583 307.073 527.762 307.294L500.015 363.73L456.47 340.213L456.457 340.206ZM528.588 308.08C529.481 308.714 530.539 308.854 531.509 308.438L542.836 343.49L558.718 392.644C558.604 392.739 558.503 392.842 558.394 392.949C557.94 393.429 557.59 394.017 557.334 394.678L500.972 364.241L528.588 308.08ZM449.687 344.767C450.47 345.976 451.568 346.588 452.672 346.545L447.95 392.893L414.162 384.402C414.231 383.455 414.133 382.494 413.847 381.586L449.687 344.767ZM192.097 613.822L181.317 568.41L205.295 556.98C205.41 557.294 205.543 557.598 205.698 557.875C206.077 558.557 206.551 559.084 207.067 559.445L193.63 613.823C193.13 613.68 192.61 613.674 192.093 613.81L192.097 613.822ZM168.778 512.696C168.954 512.507 169.115 512.299 169.259 512.072L205.442 551.768C204.944 552.94 204.776 554.327 204.966 555.659L180.988 567.089L168.189 513.199C168.389 513.053 168.585 512.895 168.757 512.694L168.778 512.696ZM169.848 510.932C170.381 509.542 170.462 507.866 170.049 506.368L198.018 541.836L169.851 510.944L169.848 510.932ZM290.387 534.902L309.89 607.106C309.708 607.241 309.521 607.394 309.353 607.578C308.917 608.048 308.563 608.625 308.308 609.257L290.098 599.105L290.027 534.987C290.15 534.957 290.264 534.932 290.387 534.902ZM286.399 532.895C287.06 534.105 288.016 534.815 289.017 535.003L289.088 598.554L212.608 555.921C212.72 555.317 212.756 554.701 212.718 554.072L285.834 531.431C285.969 531.945 286.156 532.429 286.408 532.89L286.399 532.895ZM212.234 557.232L289.09 600.068L289.191 693.346C288.676 693.424 288.176 693.648 287.71 694.022L211.602 558.398C211.849 558.04 212.067 557.656 212.234 557.232ZM290.502 693.451C290.402 693.425 290.303 693.398 290.204 693.372L290.103 600.631L307.934 610.568C307.648 612.138 307.854 613.857 308.611 615.25C308.978 615.926 309.448 616.441 309.955 616.807L304.517 638.236L290.502 693.451ZM310.83 606.622L291.353 534.403C291.535 534.267 291.722 534.114 291.89 533.93C292.696 533.073 293.191 531.86 293.363 530.584L315.483 534.068L311.519 606.484C311.292 606.505 311.06 606.543 310.83 606.622ZM293.424 529.175C293.37 528.159 293.111 527.136 292.636 526.27C292.369 525.791 292.052 525.383 291.711 525.061L319.752 446.974C319.916 447.047 320.077 447.108 320.246 447.164L315.564 532.661L293.424 529.175ZM317.918 445.14C318.185 445.62 318.489 446.021 318.83 446.343L290.6 524.343C290.39 524.254 290.171 524.199 289.946 524.162L289.083 452.23L317.336 443.657C317.472 444.171 317.658 444.685 317.918 445.14ZM285.971 527.258C285.67 528.143 285.55 529.12 285.615 530.073L212.5 552.715C212.364 552.2 212.177 551.716 211.926 551.255C211.876 551.157 211.817 551.064 211.759 550.972L248.125 493.399L285.967 527.246L285.971 527.258ZM211.001 550.045C210.559 549.626 210.069 549.349 209.561 549.211L213.316 466.653C214.056 466.584 214.798 466.218 215.436 465.544C215.666 465.295 215.875 465.016 216.057 464.71L247.272 492.628L211.006 550.028L211.001 550.045ZM209.257 459.889L128.01 446.966C128.023 445.769 127.768 444.561 127.207 443.547C126.914 443.012 126.557 442.571 126.17 442.233L138.838 404.052L209.428 459.179C209.358 459.418 209.306 459.647 209.261 459.901L209.257 459.889ZM127.853 448.361L209.142 461.287C209.149 462.415 209.411 463.549 209.94 464.525C210.548 465.625 211.399 466.326 212.306 466.57L208.55 549.127C207.81 549.196 207.068 549.563 206.43 550.237C206.377 550.296 206.324 550.356 206.28 550.41L127.218 450.152C127.511 449.611 127.723 449.004 127.853 448.361ZM167.467 503.106C166.381 502.671 165.181 502.898 164.191 503.85L135.512 462.586L167.467 503.106ZM147.462 584.563L180.353 568.879L191.125 614.268C190.888 614.422 190.665 614.624 190.449 614.851C190.088 615.234 189.799 615.687 189.563 616.181L147.336 587.398C147.557 586.489 147.598 585.516 147.462 584.563ZM195.957 615.876C195.578 615.194 195.104 614.667 194.588 614.305L207.247 563.091L199.677 624.002L196.447 621.349C196.98 619.59 196.846 617.504 195.957 615.876ZM208.648 560.041C209.392 560.084 210.14 559.84 210.812 559.274L286.749 694.603L286.743 695.117C286.671 695.216 286.612 695.321 286.556 695.439L200.609 624.768L208.657 560.036L208.648 560.041ZM314.512 608.088C313.961 607.308 313.268 606.797 312.524 606.585L316.481 534.215L372.517 543.028C372.529 543.941 372.701 544.845 373.041 545.664L314.508 608.076L314.512 608.088ZM372.635 541.642L316.566 532.819L321.246 447.282C321.852 447.236 322.449 446.997 322.993 446.548L373.675 539.075C373.151 539.794 372.796 540.698 372.626 541.647L372.635 541.642ZM484.91 398.89C484.744 398.577 484.551 398.309 484.353 398.057L500.393 365.446L556.984 396.003C556.934 396.273 556.908 396.557 556.891 396.837L485.655 401.182C485.542 400.372 485.305 399.591 484.922 398.897L484.91 398.89ZM561.204 391.871L559.893 300.128L623.408 291.942C623.525 292.695 623.764 293.417 624.115 294.073C624.177 294.178 624.239 294.283 624.298 294.376L562.947 392.767C562.421 392.271 561.827 391.985 561.208 391.883L561.204 391.871ZM557.807 224.797L558.867 298.85L534.196 302.025C534.079 301.272 533.84 300.55 533.493 299.905C533.199 299.371 532.846 298.942 532.468 298.599L556.974 224.594C557.25 224.701 557.532 224.761 557.816 224.792L557.807 224.797ZM526.775 301.052C526.455 302.076 526.374 303.214 526.533 304.309L479.574 326.637L455.782 337.943C455.782 337.943 455.729 337.833 455.702 337.778C455.451 337.318 455.15 336.929 454.83 336.608L482.007 263.746L526.775 301.052ZM449.151 338.472C448.53 340.042 448.491 341.991 449.111 343.635L413.319 380.412C412.675 379.291 411.784 378.627 410.833 378.438L411.669 300.152L449.155 338.484L449.151 338.472ZM406.636 385.898L346.243 424.803L324.354 438.907C324.293 438.773 324.229 438.627 324.151 438.504C322.852 436.127 320.415 435.654 318.703 437.442L290.988 397.45C291.577 396.579 291.937 395.489 292.031 394.357L406.469 385.246C406.509 385.477 406.566 385.699 406.631 385.915L406.636 385.898ZM290.201 398.339L317.971 438.412C317.342 439.519 317.044 440.913 317.132 442.277L289.073 450.791L288.451 399.131C289.062 399.068 289.661 398.8 290.21 398.334L290.201 398.339ZM288.94 524.19C288.673 524.248 288.414 524.33 288.16 524.466L271.872 462.64C271.994 462.539 272.121 462.422 272.235 462.298C273.464 460.992 273.98 458.876 273.694 456.893L288.068 452.531L288.927 524.183L288.94 524.19ZM266.748 461.274C266.798 461.372 266.856 461.465 266.915 461.558L247.944 491.595L216.604 463.566C216.802 462.982 216.919 462.361 216.966 461.711L266.007 458.894C266.11 459.739 266.358 460.556 266.752 461.286L266.748 461.274ZM138.375 402.088L115.747 384.422C116.161 382.974 116.128 381.323 115.603 379.891L158.134 339.124C158.367 339.524 158.632 339.863 158.921 340.146L138.371 402.076L138.375 402.088ZM115.031 378.742C113.683 376.635 111.369 376.302 109.734 378.045C108.567 379.286 108.041 381.267 108.23 383.166L52.2476 404.929L156.043 339.424L115.019 378.735L115.031 378.742ZM49.9308 407.301L108.511 384.529C108.638 384.949 108.8 385.349 109.005 385.724C109.391 386.43 109.874 386.952 110.402 387.321L99.2178 433.786L49.8793 409.242C49.9799 408.602 49.997 407.955 49.9308 407.301ZM111.358 387.762C111.767 387.874 112.181 387.899 112.595 387.824L122.541 441.883C122.249 442.055 121.97 442.276 121.719 442.552C121.234 443.064 120.87 443.704 120.607 444.411L100.181 434.251L111.37 387.769L111.358 387.762ZM120.257 445.736C120.024 447.247 120.246 448.886 120.973 450.212C121.108 450.458 121.261 450.694 121.423 450.895L73.9486 543.818C73.9486 543.818 73.8592 543.757 73.8188 543.724L99.8432 435.583L120.257 445.736ZM75.2159 545.321C75.0806 545.075 74.928 544.839 74.7655 544.638L122.24 451.715C122.884 452.199 123.62 452.416 124.34 452.345L134.06 521.444L75.6662 546.372C75.5534 545.999 75.394 545.64 75.2123 545.309L75.2159 545.321ZM125.324 452.076C125.662 451.919 125.987 451.685 126.303 451.385L163.422 504.799C162.644 506.051 162.325 507.712 162.52 509.295L135.03 521.028L125.32 452.064L125.324 452.076ZM162.818 510.648C162.931 511.021 163.091 511.38 163.272 511.711C163.596 512.313 164.002 512.781 164.447 513.142L144.628 580.403C144.216 580.249 143.792 580.188 143.367 580.227L135.23 522.425L162.818 510.648ZM195.214 623.577C195.491 623.286 195.724 622.95 195.921 622.594L199.477 625.521L189.13 708.769L193.076 624.697C193.825 624.623 194.57 624.268 195.205 623.582L195.214 623.577ZM191.926 721.757L285.872 700.387C285.985 700.929 286.163 701.447 286.4 701.93L242.581 757.147L191.724 723.604C191.865 722.997 191.923 722.382 191.914 721.75L191.926 721.757ZM291.441 693.972L310.9 617.312C311.983 617.635 313.157 617.324 314.1 616.315C315.558 614.761 316.013 612.072 315.32 609.819L331.614 622.29L291.615 694.111C291.559 694.059 291.498 694.024 291.441 693.972ZM315.76 608.555L373.64 546.839L332.24 621.171L315.76 608.555ZM374.471 538.251L323.79 445.724C324.054 445.356 324.274 444.943 324.457 444.509L389.303 480.502L377.065 537.598C376.194 537.404 375.283 537.616 374.474 538.263L374.471 538.251ZM324.828 443.186C325.011 442.215 324.991 441.179 324.768 440.206L369.974 411.084L383.249 402.529L407.127 387.151C407.127 387.151 407.135 387.175 407.138 387.187C407.61 388.041 408.232 388.652 408.907 389.004L389.583 479.147L324.823 443.203L324.828 443.186ZM409.899 389.296C410.269 389.346 410.647 389.321 411.012 389.219L415.455 409.688L435.308 501.179C435.041 501.337 434.784 501.56 434.537 501.818C434.092 502.293 433.747 502.865 433.496 503.509L390.531 479.664L409.902 389.308L409.899 389.296ZM439.356 501.877L480.141 407.211C481.415 408.031 482.968 407.864 484.167 406.591C484.541 406.186 484.844 405.71 485.081 405.188L522.626 429.838L439.697 502.299C439.591 502.149 439.476 502.004 439.356 501.877ZM485.517 403.911C485.612 403.487 485.674 403.054 485.694 402.618L556.913 398.282C556.971 398.743 557.068 399.196 557.207 399.623L523.638 428.958L485.509 403.916L485.517 403.911ZM557.748 400.805C558.933 402.809 560.932 403.343 562.547 402.206L599.022 476.853C598.751 477.197 598.52 477.574 598.329 477.984L524.733 429.657L557.756 400.8L557.748 400.805ZM599.859 476.062L563.384 401.415C564.903 399.527 565.144 396.299 563.892 394.008C563.83 393.903 563.767 393.799 563.709 393.706L625.059 295.314C625.356 295.592 625.677 295.813 626.018 295.966L601.855 475.479C601.179 475.425 600.495 475.616 599.859 476.062ZM631.144 290.535L681.925 278.212C682.056 278.814 682.26 279.387 682.551 279.909C683.397 281.463 684.725 282.194 686.014 282.028L688.491 297.612C688.122 297.801 687.774 298.063 687.444 298.413C686.73 299.174 686.26 300.202 686.041 301.322L631.135 290.809C631.139 290.721 631.14 290.622 631.132 290.528L631.144 290.535ZM689.476 297.313L687 281.729C687.369 281.54 687.716 281.278 688.046 280.928C688.883 280.038 689.39 278.762 689.54 277.413L701.449 277.819L691.616 297.877C690.959 297.415 690.218 297.215 689.494 297.303L689.476 297.313ZM689.554 276.018C689.485 275.053 689.227 274.101 688.771 273.266C688.725 273.18 688.67 273.099 688.624 273.013L753.009 172.576L702.107 276.44L689.545 276.023L689.554 276.018ZM757.725 169.511C758.583 169.528 759.449 169.172 760.185 168.384C760.943 167.569 761.435 166.444 761.629 165.239L772.652 166.677L746.742 271.141L757.725 169.511ZM761.726 163.851C761.7 162.762 761.437 161.657 760.931 160.724C760.753 160.404 760.553 160.112 760.338 159.871L790.734 93.8159L773.003 165.323L761.726 163.851ZM743.283 30.4579C743.38 30.7119 743.486 30.9609 743.622 31.2067C744.418 32.6622 745.645 33.3963 746.858 33.3459L750.871 83.6L677.62 76.266C677.567 75.8872 677.483 75.5116 677.366 75.1564L692.854 64.6582L743.278 30.4749L743.283 30.4579ZM676.167 81.7244C676.489 81.3789 676.763 80.9766 676.988 80.5465L754.395 161.367C754.122 162.038 753.962 162.784 753.91 163.55L679.834 167.335L674.924 82.6137C675.364 82.4248 675.784 82.1347 676.176 81.7194L676.167 81.7244ZM684.842 271.252C684.719 271.282 684.603 271.336 684.484 271.378L673.309 237.766L652.204 174.28C652.308 174.19 652.409 174.088 652.502 173.991C653.431 173.004 653.946 171.553 654.031 170.059L678.904 168.79L684.846 271.264L684.842 271.252ZM647.006 172.973C647.435 173.753 647.983 174.321 648.587 174.673L633.916 252.529L561.908 220.069C561.973 219.38 561.939 218.664 561.811 217.975L646.649 172.164C646.754 172.442 646.867 172.715 647.015 172.968L647.006 172.973ZM554.899 222.704C555.216 223.282 555.605 223.76 556.033 224.102L531.542 298.055C530.794 297.732 529.999 297.72 529.243 298.039L502.928 216.349C503.041 216.253 503.151 216.146 503.252 216.044C504.014 215.241 504.497 214.121 504.69 212.916L554.101 219.565C554.13 220.666 554.381 221.764 554.899 222.704ZM497.752 215.014C498.004 215.474 498.304 215.863 498.625 216.184L481.605 261.817L415.775 206.954C415.893 206.572 415.978 206.183 416.03 205.784L496.961 212.097C497.018 213.125 497.273 214.135 497.752 215.014ZM481.141 263.067L453.931 336.02C453.177 335.644 452.346 335.582 451.562 335.875L414.128 209.525C414.275 209.41 414.419 209.282 414.556 209.131C414.825 208.845 415.053 208.526 415.25 208.169L481.133 263.072L481.141 263.067ZM410.684 297.434L405.302 291.932C406.032 290.085 405.955 287.752 404.989 285.972C404.471 285.032 403.78 284.392 403.023 284.074L411.58 213.917L410.684 297.434ZM401.845 294.764L409.285 378.587C408.79 378.766 408.316 379.074 407.888 379.539C406.883 380.613 406.357 382.226 406.348 383.874L292.027 392.972C291.962 392.288 291.8 391.619 291.54 390.994L398.904 292.861C399.664 294.097 400.748 294.76 401.857 294.771L401.845 294.764ZM287.43 399.111L288.056 451.151L273.385 455.603C273.269 455.289 273.133 454.973 272.975 454.684C272.611 454.021 272.165 453.519 271.67 453.16L287.013 398.974C287.153 399.033 287.289 399.08 287.43 399.111ZM266.518 455.152C266.2 455.878 266.011 456.697 265.957 457.522L216.915 460.339C216.812 459.494 216.564 458.677 216.171 457.947C215.97 457.584 215.741 457.266 215.498 456.999L232.781 417.198L266.518 455.152ZM214.639 456.274C213.669 455.686 212.552 455.651 211.553 456.24L163.481 340.117C163.481 340.117 163.515 340.097 163.537 340.07C163.652 339.946 163.763 339.809 163.865 339.678L231.996 416.317L214.651 456.281L214.639 456.274ZM47.5147 413.2C47.8334 413.012 48.1497 412.783 48.432 412.475C48.9164 411.962 49.281 411.322 49.5439 410.615L98.9033 435.161L72.8652 543.324C72.4556 543.212 72.042 543.187 71.628 543.261L47.5233 413.195L47.5147 413.2ZM75.9266 549.913C76.0385 549.21 76.0547 548.492 75.9703 547.778L134.266 522.895L142.38 580.554C141.981 580.747 141.596 581.017 141.243 581.394C140.776 581.897 140.413 582.507 140.155 583.197L75.9217 549.93L75.9266 549.913ZM190.371 726.342C190.371 726.342 190.388 726.331 190.397 726.326C190.771 725.921 191.078 725.457 191.315 724.935L241.79 758.223L218.772 787.235C217.66 785.91 216.096 785.572 214.754 786.336L190.375 726.354L190.371 726.342ZM220.081 790.385C219.981 789.651 219.771 788.925 219.441 788.271L242.766 758.865L281.598 784.482C281.499 784.894 281.446 785.322 281.423 785.747L220.069 790.378L220.081 790.385ZM287.548 781.637C287.066 781.185 286.518 780.886 285.963 780.76L287.577 703.501C288.923 704.661 290.688 704.624 292.023 703.199C293.327 701.807 293.827 699.502 293.428 697.415L369.172 653.488L287.544 781.625L287.548 781.637ZM293.039 696.13C292.956 695.924 292.865 695.723 292.76 695.544C292.651 695.354 292.538 695.18 292.428 695.018L332.527 623.026L369.858 651.596L293.043 696.142L293.039 696.13ZM333.149 621.894L374.45 547.735C374.829 548.049 375.238 548.26 375.66 548.379L370.561 650.531L333.149 621.894ZM379.802 540.202C379.73 540.032 379.646 539.855 379.557 539.695C379.148 538.946 378.621 538.379 378.034 538.017L390.249 481.047L433.132 504.856C432.959 505.793 432.964 506.781 433.168 507.723L379.802 540.202ZM442.13 501.883L523.714 430.583L597.905 479.296C597.798 479.784 597.725 480.28 597.719 480.794L442.13 501.883ZM693.398 300.507C693.288 300.146 693.133 299.8 692.951 299.468C692.796 299.191 692.628 298.937 692.446 298.704L702.648 277.89L741.541 279.207C741.548 279.33 741.563 279.449 741.57 279.572L693.385 300.5L693.398 300.507ZM747.444 273.926C747.363 273.861 747.273 273.8 747.193 273.735L773.708 166.847L802.369 170.577C802.394 171.666 802.658 172.771 803.163 173.704C803.26 173.888 803.37 174.049 803.48 174.211L747.444 273.926ZM804.9 165.261C804.549 165.44 804.21 165.696 803.897 166.037C803.139 166.852 802.647 167.977 802.454 169.182L774.047 165.486L791.724 94.2367C792.168 94.428 792.629 94.5097 793.087 94.4801L804.904 165.273L804.9 165.261ZM795.996 85.6849C795.695 85.1264 795.326 84.6788 794.919 84.3388L809.736 37.8387L841.709 42.5168C841.717 43.0785 841.787 43.6458 841.921 44.1895L795.735 85.089L796.009 85.6919L795.996 85.6849ZM841.815 41.1235L810.159 36.4851L818.163 11.362C819.322 11.8388 820.621 11.568 821.66 10.4736L842.303 39.5186C842.079 40.0189 841.908 40.559 841.806 41.1286L841.815 41.1235ZM815.588 7.95469C815.719 8.48641 815.909 8.98255 816.164 9.45514C816.465 10.0136 816.834 10.4613 817.242 10.8012L809.101 36.3447L750.654 27.7793C750.651 27.668 750.651 27.5686 750.639 27.4624L815.579 7.95978L815.588 7.95469ZM673.019 82.7607C673.317 82.8397 673.613 82.8775 673.915 82.8692L678.821 167.409L653.978 168.675C653.873 167.859 653.629 167.054 653.243 166.348C652.86 165.654 652.385 165.127 651.849 164.764L673.019 82.7607ZM622.216 131.679L647.014 166.328C646.301 167.627 646.04 169.281 646.295 170.858L561.414 216.694C561.331 216.488 561.236 216.275 561.127 216.085L622.216 131.679ZM286.901 388.55C286.499 388.73 286.118 389.012 285.757 389.395C284.038 391.23 283.709 394.667 285.023 397.062C285.324 397.621 285.69 398.056 286.088 398.401L270.721 452.673C270.721 452.673 270.655 452.655 270.634 452.653L277.248 319.439C277.248 319.439 277.248 319.439 277.257 319.434L286.896 388.567L286.901 388.55ZM273.228 315.384C273.361 316.056 273.578 316.706 273.899 317.296C274.1 317.658 274.328 317.977 274.572 318.244L232.522 415.101L164.498 338.583C164.9 337.666 165.104 336.597 165.078 335.537L273.232 315.396L273.228 315.384ZM159.291 330.91C159.117 331.041 158.939 331.188 158.771 331.372C158.181 332.004 157.758 332.82 157.503 333.72L107.776 317.716L140.39 269.408C141.366 270.418 142.621 270.739 143.776 270.298L159.291 330.91ZM138.883 266.007C138.992 266.835 139.235 267.64 139.626 268.358C139.636 268.394 139.661 268.408 139.672 268.444L106.644 317.364L8.42952 285.757C8.43984 285.624 8.45016 285.49 8.44823 285.35L138.887 266.019L138.883 266.007Z" fill="white" fill-opacity="0.18"/>
</svg>
