<svg width="650" height="643" viewBox="0 0 650 643" fill="none" xmlns="http://www.w3.org/2000/svg">
<path d="M46.6805 345.191H71.257L117.084 466.955H92.1519L81.7852 436.597H36.007L25.5919 466.955H0.660156L46.6644 345.191H46.6805ZM76.1175 419.959L58.9688 369.714L41.7232 419.959H76.1175Z" fill="white"/>
<path d="M178.896 462.492C176.91 463.296 174.504 464.211 171.694 465.236C168.885 466.261 165.865 467.097 162.652 467.728C159.438 468.359 156.176 468.674 152.899 468.674C148.571 468.674 144.583 467.933 140.965 466.466C137.332 465 134.442 462.65 132.278 459.417C130.114 456.184 129.033 451.973 129.033 446.753V395.61H116.922V377.947H129.033V348.787H152.559V377.947H171.872V395.61H152.559V438.947C152.672 441.991 153.561 444.198 155.191 445.539C156.822 446.895 158.873 447.573 161.344 447.573C163.814 447.573 166.204 447.179 168.545 446.375C170.887 445.57 172.76 444.892 174.165 444.309L178.912 462.492H178.896Z" fill="white"/>
<path d="M191.008 341.77H214.535V438.458C214.535 442.59 215.229 445.366 216.634 446.801C218.039 448.236 219.976 448.945 222.431 448.945C224.304 448.945 226.225 448.725 228.228 448.267C230.214 447.81 231.974 447.242 233.492 446.548L236.657 464.038C233.492 465.52 229.81 466.671 225.596 467.476C221.381 468.28 217.57 468.674 214.179 468.674C206.8 468.674 201.1 466.75 197.063 462.918C193.026 459.086 191.008 453.598 191.008 446.501V341.785V341.77Z" fill="white"/>
<path d="M240.532 440.713C240.532 434.956 242.195 429.894 245.537 425.557C248.88 421.205 253.531 417.845 259.489 415.48C265.464 413.114 272.31 411.916 280.029 411.916C283.888 411.916 287.812 412.2 291.8 412.767C295.772 413.335 299.228 414.25 302.167 415.511V410.733C302.167 405.119 300.439 400.798 296.983 397.77C293.528 394.742 288.409 393.228 281.611 393.228C276.573 393.228 271.777 394.079 267.207 395.798C262.638 397.517 257.842 400.025 252.804 403.337L245.247 388.244C251.334 384.365 257.567 381.447 263.946 379.492C270.324 377.552 277.025 376.574 284.049 376.574C297.161 376.574 307.366 379.728 314.697 386.036C322.012 392.345 325.678 401.365 325.678 413.083V441.312C325.678 443.677 326.114 445.365 327.002 446.39C327.874 447.399 329.311 448.03 331.297 448.251V466.939C329.182 467.286 327.292 467.57 325.597 467.79C323.901 468.011 322.464 468.137 321.302 468.137C316.619 468.137 313.082 467.112 310.677 465.046C308.271 462.981 306.785 460.473 306.204 457.508L305.671 452.872C301.682 457.902 296.709 461.782 290.75 464.526C284.776 467.27 278.688 468.642 272.488 468.642C266.287 468.642 260.926 467.428 256.066 464.999C251.205 462.57 247.394 459.243 244.649 455.001C241.904 450.758 240.516 445.996 240.516 440.681L240.532 440.713ZM297.775 445.176C299.066 443.835 300.116 442.495 300.94 441.17C301.763 439.829 302.167 438.599 302.167 437.495V428.632C299.357 427.513 296.305 426.661 293.043 426.046C289.766 425.431 286.665 425.131 283.742 425.131C277.655 425.131 272.649 426.393 268.725 428.901C264.801 431.408 262.848 434.72 262.848 438.852C262.848 441.075 263.494 443.204 264.785 445.207C266.077 447.21 267.95 448.834 270.405 450.064C272.859 451.295 275.782 451.91 279.189 451.91C282.596 451.91 286.148 451.263 289.556 449.986C292.947 448.708 295.708 447.115 297.807 445.223L297.775 445.176Z" fill="white"/>
<path d="M433.154 466.957H409.627V417.264C409.627 410.167 408.336 404.979 405.768 401.714C403.185 398.45 399.616 396.81 395.062 396.81C391.898 396.81 388.716 397.598 385.487 399.159C382.274 400.721 379.367 402.865 376.8 405.609C374.216 408.338 372.343 411.492 371.18 415.072V466.957H347.653V377.948H368.903V394.554C371.245 390.706 374.232 387.458 377.865 384.808C381.499 382.159 385.681 380.124 390.428 378.705C395.175 377.302 400.181 376.592 405.445 376.592C411.178 376.592 415.893 377.585 419.574 379.557C423.256 381.528 426.066 384.193 428.003 387.521C429.941 390.848 431.281 394.617 432.04 398.797C432.799 402.976 433.187 407.218 433.187 411.508V466.957H433.154Z" fill="white"/>
<path d="M508.305 462.492C506.319 463.296 503.913 464.211 501.103 465.236C498.294 466.261 495.274 467.097 492.061 467.728C488.847 468.359 485.586 468.674 482.308 468.674C477.98 468.674 473.992 467.933 470.375 466.466C466.741 465 463.851 462.65 461.687 459.417C459.524 456.184 458.442 451.973 458.442 446.753V395.61H446.331V377.947H458.442V348.787H481.969V377.947H501.281V395.61H481.969V438.947C482.082 441.991 482.97 444.198 484.601 445.539C486.232 446.895 488.282 447.573 490.753 447.573C493.223 447.573 495.613 447.179 497.955 446.375C500.296 445.57 502.169 444.892 503.574 444.309L508.321 462.492H508.305Z" fill="white"/>
<path d="M520.594 364.574V341.77H544.121V364.574H520.594ZM520.594 466.955V377.095H544.121V466.955H520.594Z" fill="white"/>
<path d="M608.21 468.676C600.718 468.676 593.984 467.461 588.01 465.033C582.035 462.604 576.948 459.213 572.734 454.861C568.519 450.508 565.274 445.556 562.981 440.021C560.704 434.485 559.558 428.65 559.558 422.547C559.558 414.189 561.511 406.524 565.435 399.569C569.359 392.615 574.946 387.048 582.213 382.869C589.463 378.689 598.069 376.592 608.032 376.592C617.995 376.592 626.521 378.705 633.675 382.932C640.812 387.158 646.141 392.709 649.661 399.569L626.65 406.43C624.664 403.118 622.016 400.579 618.754 398.797C615.476 397.03 611.843 396.131 607.871 396.131C603.414 396.131 599.361 397.22 595.663 399.412C591.982 401.604 589.075 404.679 586.976 408.669C584.861 412.643 583.811 417.28 583.811 422.547C583.811 427.814 584.893 432.277 587.057 436.251C589.221 440.226 592.111 443.364 595.744 445.666C599.377 447.969 603.414 449.12 607.855 449.12C610.664 449.12 613.329 448.663 615.848 447.748C618.367 446.833 620.611 445.572 622.614 443.979C624.6 442.386 626.069 440.541 627.006 438.491L650 445.351C647.884 449.814 644.816 453.82 640.78 457.352C636.743 460.901 631.995 463.676 626.554 465.663C621.112 467.666 614.992 468.66 608.21 468.66V468.676Z" fill="white"/>
<path d="M0.685109 640.793V519.029H12.9733V630.164H84.9589V640.793H0.668945H0.685109Z" fill="white"/>
<path d="M93.21 615.244C93.21 609.677 94.8408 604.883 98.1349 600.846C101.413 596.809 105.95 593.686 111.747 591.478C117.544 589.27 124.245 588.151 131.851 588.151C136.291 588.151 140.926 588.498 145.722 589.176C150.517 589.87 154.797 590.895 158.543 592.267V584.744C158.543 577.253 156.266 571.276 151.696 566.845C147.127 562.413 140.813 560.19 132.739 560.19C127.83 560.19 122.986 561.073 118.255 562.855C113.507 564.621 108.566 567.223 103.415 570.661L98.8454 562.429C104.82 558.423 110.665 555.427 116.398 553.424C122.13 551.421 127.992 550.428 133.95 550.428C145.189 550.428 154.086 553.55 160.642 559.795C167.198 566.04 170.476 574.683 170.476 585.706V626.773C170.476 628.365 170.831 629.532 171.525 630.274C172.236 631.015 173.334 631.441 174.868 631.551V640.808C173.576 640.919 172.462 641.029 171.525 641.155C170.589 641.266 169.878 641.266 169.426 641.155C166.504 641.045 164.275 640.13 162.757 638.411C161.239 636.692 160.416 634.863 160.303 632.923L160.125 626.41C156.024 631.551 150.695 635.525 144.139 638.332C137.583 641.139 130.914 642.527 124.116 642.527C118.255 642.527 112.958 641.313 108.227 638.868C103.48 636.424 99.7982 633.128 97.1661 628.98C94.5341 624.833 93.21 620.259 93.21 615.26V615.244ZM154.506 622.026C155.798 620.433 156.783 618.919 157.493 617.436C158.188 615.97 158.543 614.661 158.543 613.525V600.609C154.554 599.143 150.437 598.007 146.158 597.219C141.879 596.43 137.583 596.036 133.256 596.036C124.714 596.036 117.803 597.676 112.539 600.956C107.274 604.237 104.642 608.715 104.642 614.377C104.642 617.673 105.514 620.748 107.274 623.634C109.035 626.52 111.602 628.902 114.993 630.778C118.384 632.655 122.372 633.585 126.942 633.585C132.674 633.585 138.035 632.513 143.009 630.352C147.982 628.208 151.809 625.432 154.506 622.026Z" fill="white"/>
<path d="M241.073 642.513C233.936 642.513 227.315 640.715 221.228 637.104C215.14 633.508 210.393 628.951 207.002 623.478V640.794H196.296V515.608H208.229V570.663C212.33 564.607 217.239 559.718 222.972 555.997C228.704 552.29 235.373 550.429 242.994 550.429C249.437 550.429 255.202 551.739 260.288 554.356C265.375 556.974 269.735 560.475 273.368 564.844C277.001 569.228 279.746 574.164 281.619 579.684C283.492 585.203 284.429 590.849 284.429 596.653C284.429 602.914 283.347 608.764 281.183 614.221C279.019 619.678 275.935 624.535 271.963 628.809C267.991 633.067 263.389 636.426 258.173 638.87C252.957 641.315 247.257 642.529 241.057 642.529L241.073 642.513ZM238.263 632.215C243.188 632.215 247.742 631.253 251.956 629.313C256.171 627.389 259.804 624.724 262.84 621.318C265.875 617.911 268.217 614.079 269.864 609.821C271.495 605.563 272.318 601.163 272.318 596.621C272.318 590.376 270.946 584.51 268.185 578.99C265.439 573.486 261.629 569.054 256.768 565.711C251.908 562.368 246.208 560.68 239.652 560.68C234.969 560.68 230.609 561.705 226.572 563.74C222.536 565.79 218.967 568.487 215.867 571.83C212.766 575.173 210.215 578.832 208.229 582.806V610.389C208.697 613.448 209.924 616.319 211.911 618.984C213.897 621.649 216.383 623.951 219.371 625.875C222.358 627.799 225.491 629.345 228.769 630.48C232.046 631.616 235.211 632.184 238.247 632.184L238.263 632.215Z" fill="white"/>
<path d="M334.663 642.513C327.171 642.513 320.211 641.315 313.768 638.918C307.325 636.521 301.771 632.862 297.088 627.942L302.013 619.709C307.164 624.393 312.347 627.8 317.547 629.913C322.746 632.026 328.285 633.083 334.146 633.083C341.284 633.083 347.081 631.695 351.537 628.919C355.978 626.144 358.206 622.154 358.206 616.934C358.206 613.417 357.124 610.704 354.96 608.828C352.797 606.951 349.696 605.421 345.66 604.223C341.623 603.024 336.795 601.747 331.175 600.391C324.862 598.687 319.549 596.89 315.286 595.013C311.007 593.136 307.794 590.755 305.63 587.853C303.466 584.951 302.384 581.182 302.384 576.514C302.384 570.711 303.87 565.916 306.857 562.1C309.844 558.299 313.946 555.397 319.145 553.395C324.345 551.408 330.174 550.414 336.617 550.414C343.641 550.414 349.842 551.502 355.235 553.678C360.612 555.855 365.004 558.883 368.411 562.762L362.614 570.647C359.337 566.989 355.445 564.276 350.94 562.494C346.435 560.728 341.429 559.829 335.923 559.829C332.176 559.829 328.608 560.318 325.217 561.28C321.826 562.242 319.032 563.835 316.869 566.058C314.705 568.282 313.623 571.31 313.623 575.174C313.623 578.359 314.446 580.835 316.077 582.586C317.708 584.352 320.179 585.819 323.457 587.017C326.735 588.216 330.772 589.493 335.567 590.849C342.479 592.663 348.501 594.508 353.653 596.385C358.804 598.262 362.776 600.674 365.586 603.624C368.395 606.573 369.8 610.72 369.8 616.066C369.8 624.362 366.587 630.843 360.144 635.496C353.701 640.164 345.224 642.482 334.679 642.482L334.663 642.513Z" fill="white"/>
<path d="M303.248 290.26L188.918 7.48999C187.098 2.98999 182.378 0 177.108 0H128.368C123.098 0 118.388 2.98998 116.558 7.47998L1.78837 290.25C-1.24163 297.72 4.83837 305.65 13.5984 305.65H21.2284C23.4184 305.65 25.5484 304.87 27.1984 303.43C35.1584 296.45 59.5384 278.1 100.348 273.35C131.848 269.68 134.568 254.56 139.068 243.86L142.688 225.51L139.118 225.44C136.988 221.43 133.958 214.35 131.818 209.2C130.908 207.16 130.078 205.11 129.318 203.08C129.278 202.97 129.258 202.92 129.248 202.91C119.018 214.57 115.708 235.71 114.898 242.35C114.788 243.23 114.368 244.07 113.628 244.58C111.538 246.02 108.928 244.7 108.638 242.43L103.558 202.57C103.048 198.58 104.208 194.55 106.758 191.43L122.118 172.66C120.798 161.25 121.328 153.5 121.328 153.5C124.578 103.73 143.348 81.19 150.658 74.21C152.288 72.66 154.838 72.69 156.428 74.27C163.588 81.4 181.888 104.34 184.078 154.16C184.078 154.16 184.428 161.61 182.978 172.62L198.478 192.39C200.958 195.56 202.028 199.61 201.438 203.59L195.538 243.22C195.308 244.75 194.058 246 192.518 246.02C190.778 246.05 189.438 244.77 189.278 243.18C188.608 236.5 185.688 214.66 175.328 202.87C175.328 202.87 175.328 202.88 175.328 202.89C175.268 203.05 175.188 203.25 175.088 203.48C173.958 206.33 172.688 209.2 171.258 212.05H171.088C167.958 218.54 164.298 225.92 164.298 225.92L160.558 225.85L163.898 242.91C167.618 253.65 170.848 269.39 204.708 273.34C245.518 278.09 269.888 296.44 277.848 303.42C279.498 304.86 281.628 305.64 283.818 305.64H291.448C300.198 305.64 306.278 297.72 303.258 290.25L303.248 290.26Z" fill="white"/>
<path d="M155.429 123.51C144.749 122.05 135.659 130.95 136.899 141.66C137.739 148.96 143.569 154.9 150.839 155.9C161.519 157.36 170.609 148.46 169.369 137.75C168.529 130.45 162.709 124.51 155.429 123.51ZM154.959 150.18C147.689 151.29 141.569 145.04 142.839 137.8C143.609 133.41 147.189 129.91 151.589 129.23C158.859 128.12 164.979 134.37 163.709 141.61C162.939 146 159.359 149.5 154.959 150.18Z" fill="white"/>
</svg>
